<svg width="30" height="69" viewBox="0 0 30 69" fill="none" xmlns="http://www.w3.org/2000/svg">
<path d="M17 2C17 0.89543 16.1046 0 15 0C13.8954 0 13 0.89543 13 2L17 2ZM13.5858 68.4142C14.3668 69.1953 15.6332 69.1953 16.4142 68.4142L29.1421 55.6863C29.9232 54.9052 29.9232 53.6389 29.1421 52.8579C28.3611 52.0768 27.0948 52.0768 26.3137 52.8579L15 64.1716L3.68629 52.8579C2.90524 52.0768 1.63891 52.0768 0.857864 52.8579C0.0768156 53.6389 0.0768156 54.9052 0.857864 55.6863L13.5858 68.4142ZM13 2L13 67H17L17 2L13 2Z" fill="#EAE3D2"/>
</svg>
