<svg width="2560" height="1600" viewBox="0 0 2560 1600" fill="none" xmlns="http://www.w3.org/2000/svg" >
<mask id="mask0_507_2229" style="mask-type:luminance" maskUnits="userSpaceOnUse" x="-1870" y="-325" width="4713" height="2635">
<path d="M-1467.56 2309.46L2842.51 1015.91L2440.08 -325L-1870 968.543L-1467.56 2309.46Z" fill="white"/>
</mask>
<g mask="url(#mask0_507_2229)">
<mask id="mask1_507_2229" style="mask-type:luminance" maskUnits="userSpaceOnUse" x="-1870" y="-325" width="4713" height="2635">
<path d="M-1467.56 2309.46L2842.51 1015.91L2440.08 -325L-1870 968.543L-1467.56 2309.46Z" fill="white"/>
<path d="M1367.57 608.953C1366.84 606.489 1364.9 604.493 1362.2 603.405C1359.5 602.316 1356.25 602.224 1353.17 603.148C1350.09 604.073 1347.43 605.938 1345.78 608.334C1344.12 610.73 1343.61 613.46 1344.35 615.924C1345.09 618.388 1347.02 620.384 1349.72 621.473C1352.42 622.561 1355.67 622.654 1358.75 621.729C1361.83 620.805 1364.49 618.94 1366.15 616.544C1367.8 614.148 1368.31 611.417 1367.57 608.953ZM1389.85 683.182C1389.11 680.718 1387.18 678.723 1384.48 677.634C1381.78 676.545 1378.53 676.453 1375.45 677.377C1372.37 678.302 1369.71 680.167 1368.06 682.563C1366.4 684.959 1365.89 687.689 1366.63 690.153C1367.37 692.617 1369.3 694.613 1372 695.702C1374.7 696.79 1377.95 696.883 1381.03 695.958C1384.11 695.034 1386.77 693.169 1388.42 690.773C1390.08 688.377 1390.59 685.646 1389.85 683.182ZM1924.29 441.871C1923.93 440.651 1923.26 439.533 1922.34 438.581C1921.42 437.629 1920.26 436.861 1918.92 436.322C1917.58 435.783 1916.1 435.483 1914.55 435.439C1913 435.395 1911.42 435.608 1909.89 436.066C1908.37 436.523 1906.93 437.217 1905.66 438.107C1904.39 438.996 1903.32 440.065 1902.5 441.251C1901.68 442.438 1901.13 443.719 1900.88 445.021C1900.64 446.323 1900.7 447.622 1901.07 448.842C1901.43 450.062 1902.1 451.18 1903.02 452.132C1903.94 453.084 1905.1 453.851 1906.44 454.39C1907.78 454.929 1909.26 455.229 1910.81 455.273C1912.36 455.317 1913.94 455.105 1915.47 454.647C1916.99 454.189 1918.43 453.496 1919.7 452.606C1920.97 451.716 1922.04 450.647 1922.86 449.461C1923.68 448.275 1924.23 446.994 1924.48 445.691C1924.72 444.389 1924.66 443.091 1924.29 441.871Z" fill="black"/>
<path d="M1015.08 1119.34C1014.34 1116.88 1012.41 1114.88 1009.7 1113.79C1007 1112.7 1003.76 1112.61 1000.68 1113.54C997.596 1114.46 994.936 1116.33 993.281 1118.72C991.626 1121.12 991.112 1123.85 991.851 1126.31C992.591 1128.78 994.524 1130.77 997.224 1131.86C999.925 1132.95 1003.17 1133.04 1006.25 1132.12C1009.33 1131.19 1011.99 1129.33 1013.65 1126.93C1015.3 1124.54 1015.82 1121.8 1015.08 1119.34ZM1642.3 850.182C1641.94 848.962 1641.27 847.844 1640.35 846.892C1639.43 845.94 1638.27 845.173 1636.93 844.634C1635.59 844.095 1634.11 843.795 1632.56 843.75C1631.01 843.706 1629.43 843.919 1627.9 844.377C1626.38 844.835 1624.94 845.528 1623.67 846.418C1622.4 847.308 1621.33 848.376 1620.51 849.563C1619.69 850.749 1619.14 852.03 1618.89 853.332C1618.65 854.635 1618.71 855.933 1619.08 857.153C1619.44 858.373 1620.11 859.491 1621.03 860.443C1621.95 861.395 1623.11 862.163 1624.45 862.702C1625.79 863.241 1627.27 863.541 1628.82 863.585C1630.37 863.629 1631.95 863.416 1633.48 862.958C1635 862.501 1636.44 861.807 1637.71 860.917C1638.98 860.028 1640.05 858.959 1640.87 857.773C1641.69 856.586 1642.24 855.305 1642.49 854.003C1642.73 852.701 1642.67 851.402 1642.3 850.182ZM1341.67 859.494C1341.3 858.274 1340.64 857.156 1339.72 856.204C1338.79 855.252 1337.63 854.485 1336.29 853.946C1334.96 853.407 1333.47 853.107 1331.92 853.063C1330.37 853.019 1328.79 853.232 1327.27 853.689C1325.74 854.147 1324.3 854.84 1323.03 855.73C1321.76 856.62 1320.69 857.689 1319.87 858.875C1319.05 860.061 1318.5 861.342 1318.26 862.645C1318.01 863.947 1318.07 865.245 1318.44 866.465C1318.81 867.685 1319.47 868.803 1320.39 869.755C1321.31 870.707 1322.48 871.475 1323.81 872.014C1325.15 872.553 1326.64 872.853 1328.19 872.897C1329.74 872.941 1331.32 872.728 1332.84 872.27C1334.37 871.813 1335.81 871.119 1337.07 870.229C1338.34 869.34 1339.42 868.271 1340.24 867.085C1341.06 865.898 1341.6 864.618 1341.85 863.315C1342.1 862.013 1342.03 860.715 1341.67 859.494ZM1898.38 692.412C1897.65 689.948 1895.71 687.952 1893.01 686.863C1890.31 685.775 1887.06 685.682 1883.98 686.607C1880.9 687.531 1878.24 689.396 1876.59 691.792C1874.93 694.188 1874.42 696.919 1875.16 699.383C1875.9 701.847 1877.83 703.843 1880.53 704.931C1883.23 706.02 1886.48 706.112 1889.56 705.188C1892.64 704.264 1895.3 702.398 1896.95 700.002C1898.61 697.606 1899.12 694.876 1898.38 692.412ZM992.8 1045.11C992.061 1042.65 990.128 1040.65 987.427 1039.56C984.726 1038.47 981.479 1038.38 978.399 1039.31C975.319 1040.23 972.658 1042.1 971.003 1044.49C969.348 1046.89 968.834 1049.62 969.574 1052.08C970.313 1054.55 972.246 1056.54 974.947 1057.63C977.647 1058.72 980.895 1058.81 983.975 1057.89C987.055 1056.96 989.715 1055.1 991.37 1052.7C993.025 1050.31 993.54 1047.58 992.8 1045.11ZM2176.74 608.871C2176.38 607.651 2175.71 606.533 2174.79 605.581C2173.87 604.629 2172.71 603.861 2171.37 603.322C2170.03 602.783 2168.55 602.483 2167 602.439C2165.45 602.395 2163.87 602.608 2162.34 603.066C2160.82 603.523 2159.38 604.217 2158.11 605.107C2156.84 605.996 2155.77 607.065 2154.95 608.251C2154.13 609.438 2153.58 610.719 2153.33 612.021C2153.09 613.323 2153.15 614.621 2153.52 615.842C2153.88 617.062 2154.55 618.18 2155.47 619.132C2156.39 620.084 2157.55 620.851 2158.89 621.39C2160.23 621.929 2161.71 622.229 2163.26 622.273C2164.81 622.317 2166.39 622.104 2167.92 621.647C2169.44 621.189 2170.88 620.496 2172.15 619.606C2173.42 618.716 2174.49 617.647 2175.31 616.461C2176.13 615.275 2176.68 613.994 2176.93 612.691C2177.17 611.389 2177.11 610.091 2176.74 608.871Z" fill="black"/>
<path d="M395.161 738.963C394.422 736.499 392.489 734.503 389.788 733.414C387.087 732.326 383.84 732.233 380.76 733.158C377.68 734.082 375.02 735.948 373.365 738.344C371.71 740.739 371.195 743.47 371.935 745.934C372.674 748.398 374.607 750.394 377.308 751.482C380.009 752.571 383.256 752.663 386.336 751.739C389.416 750.815 392.076 748.949 393.731 746.553C395.386 744.157 395.901 741.427 395.161 738.963ZM280.098 692.581C279.358 690.117 277.426 688.121 274.725 687.032C272.024 685.944 268.776 685.851 265.696 686.776C262.616 687.7 259.956 689.565 258.301 691.961C256.646 694.357 256.132 697.088 256.871 699.552C257.611 702.016 259.544 704.012 262.244 705.1C264.945 706.189 268.193 706.281 271.273 705.357C274.353 704.432 277.013 702.567 278.668 700.171C280.323 697.775 280.837 695.045 280.098 692.581ZM1159.72 590.417C1158.98 587.953 1157.05 585.957 1154.35 584.868C1151.65 583.78 1148.4 583.687 1145.32 584.612C1142.24 585.536 1139.58 587.401 1137.93 589.797C1136.27 592.193 1135.76 594.924 1136.5 597.388C1137.24 599.852 1139.17 601.847 1141.87 602.936C1144.57 604.025 1147.82 604.117 1150.9 603.193C1153.98 602.268 1156.64 600.403 1158.29 598.007C1159.95 595.611 1160.46 592.881 1159.72 590.417ZM603.01 757.498C602.271 755.034 600.338 753.038 597.637 751.95C594.936 750.861 591.689 750.769 588.609 751.693C585.529 752.617 582.869 754.483 581.214 756.879C579.559 759.275 579.044 762.005 579.784 764.469C580.523 766.933 582.456 768.929 585.157 770.018C587.858 771.106 591.105 771.199 594.185 770.274C597.265 769.35 599.925 767.485 601.58 765.089C603.235 762.693 603.75 759.962 603.01 757.498ZM1530.87 479.029C1530.5 477.809 1529.84 476.691 1528.92 475.739C1527.99 474.787 1526.83 474.02 1525.49 473.481C1524.16 472.942 1522.67 472.641 1521.12 472.597C1519.57 472.553 1517.99 472.766 1516.46 473.224C1514.94 473.682 1513.5 474.375 1512.23 475.265C1510.96 476.155 1509.89 477.223 1509.07 478.41C1508.25 479.596 1507.7 480.877 1507.46 482.179C1507.21 483.482 1507.27 484.78 1507.64 486C1508.01 487.22 1508.67 488.338 1509.59 489.29C1510.51 490.242 1511.68 491.009 1513.01 491.549C1514.35 492.088 1515.84 492.388 1517.39 492.432C1518.93 492.476 1520.52 492.263 1522.04 491.805C1523.57 491.348 1525 490.654 1526.27 489.764C1527.54 488.874 1528.62 487.806 1529.44 486.62C1530.26 485.433 1530.8 484.152 1531.05 482.85C1531.29 481.548 1531.23 480.249 1530.87 479.029ZM72.2489 674.046C71.5094 671.582 69.5767 669.586 66.8759 668.497C64.1751 667.408 60.9274 667.316 57.8474 668.24C54.7674 669.165 52.1073 671.03 50.4523 673.426C48.7973 675.822 48.283 678.552 49.0225 681.016C49.762 683.48 51.6947 685.476 54.3955 686.565C57.0963 687.654 60.344 687.746 63.424 686.822C66.504 685.897 69.1641 684.032 70.8191 681.636C72.4741 679.24 72.9884 676.51 72.2489 674.046ZM881.367 673.958C880.628 671.494 878.695 669.498 875.994 668.409C873.293 667.32 870.046 667.228 866.966 668.152C863.886 669.077 861.225 670.942 859.57 673.338C857.915 675.734 857.401 678.464 858.141 680.928C858.88 683.392 860.813 685.388 863.514 686.477C866.214 687.566 869.462 687.658 872.542 686.734C875.622 685.809 878.282 683.944 879.937 681.548C881.592 679.152 882.107 676.422 881.367 673.958Z" fill="black"/>
<path d="M2547.8 497.473C2547.06 495.009 2545.13 493.013 2542.43 491.924C2539.73 490.836 2536.48 490.743 2533.4 491.668C2530.32 492.592 2527.66 494.457 2526 496.853C2524.35 499.249 2523.84 501.98 2524.58 504.444C2525.31 506.908 2527.25 508.904 2529.95 509.992C2532.65 511.081 2535.9 511.173 2538.98 510.249C2542.06 509.324 2544.72 507.459 2546.37 505.063C2548.03 502.667 2548.54 499.937 2547.8 497.473Z" fill="black"/>
<path d="M2180.4 284.103C2179.66 281.639 2177.72 279.643 2175.02 278.554C2172.32 277.465 2169.07 277.373 2165.99 278.297C2162.91 279.222 2160.25 281.087 2158.6 283.483C2156.94 285.879 2156.43 288.609 2157.17 291.073C2157.91 293.537 2159.84 295.533 2162.54 296.622C2165.24 297.711 2168.49 297.803 2171.57 296.879C2174.65 295.954 2177.31 294.089 2178.97 291.693C2180.62 289.297 2181.14 286.567 2180.4 284.103Z" fill="black"/>
<path d="M502.832 1434.87C502.092 1432.4 500.159 1430.41 497.459 1429.32C494.758 1428.23 491.51 1428.14 488.43 1429.06C485.35 1429.99 482.69 1431.85 481.035 1434.25C479.38 1436.65 478.866 1439.38 479.605 1441.84C480.345 1444.3 482.277 1446.3 484.978 1447.39C487.679 1448.48 490.927 1448.57 494.007 1447.64C497.087 1446.72 499.747 1444.86 501.402 1442.46C503.057 1440.06 503.571 1437.33 502.832 1434.87ZM1245.12 1212.09C1244.38 1209.63 1242.44 1207.63 1239.74 1206.55C1237.04 1205.46 1233.8 1205.36 1230.72 1206.29C1227.64 1207.21 1224.98 1209.08 1223.32 1211.47C1221.67 1213.87 1221.15 1216.6 1221.89 1219.06C1222.63 1221.53 1224.56 1223.52 1227.26 1224.61C1229.96 1225.7 1233.21 1225.79 1236.29 1224.87C1239.37 1223.95 1242.03 1222.08 1243.69 1219.68C1245.34 1217.29 1245.86 1214.56 1245.12 1212.09ZM1827.78 794.478C1827.04 792.014 1825.11 790.018 1822.41 788.93C1819.71 787.841 1816.46 787.748 1813.38 788.673C1810.3 789.597 1807.64 791.463 1805.99 793.859C1804.33 796.254 1803.82 798.985 1804.56 801.449C1805.3 803.913 1807.23 805.909 1809.93 806.997C1812.63 808.086 1815.88 808.178 1818.96 807.254C1822.04 806.33 1824.7 804.464 1826.35 802.068C1828.01 799.672 1828.52 796.942 1827.78 794.478ZM1501.2 1054.32C1500.46 1051.86 1498.52 1049.86 1495.82 1048.78C1493.12 1047.69 1489.87 1047.59 1486.79 1048.52C1483.71 1049.44 1481.05 1051.31 1479.4 1053.7C1477.74 1056.1 1477.23 1058.83 1477.97 1061.29C1478.71 1063.76 1480.64 1065.75 1483.34 1066.84C1486.04 1067.93 1489.29 1068.02 1492.37 1067.1C1495.45 1066.18 1498.11 1064.31 1499.77 1061.91C1501.42 1059.52 1501.94 1056.79 1501.2 1054.32ZM525.109 1509.1C524.37 1506.63 522.437 1504.64 519.736 1503.55C517.035 1502.46 513.788 1502.37 510.708 1503.29C507.628 1504.22 504.968 1506.08 503.313 1508.48C501.658 1510.87 501.143 1513.6 501.883 1516.07C502.622 1518.53 504.555 1520.53 507.256 1521.62C509.957 1522.71 513.204 1522.8 516.284 1521.87C519.364 1520.95 522.025 1519.08 523.68 1516.69C525.335 1514.29 525.849 1511.56 525.109 1509.1ZM736.633 1202.87C735.894 1200.41 733.961 1198.41 731.26 1197.32C728.559 1196.23 725.312 1196.14 722.232 1197.06C719.152 1197.99 716.492 1199.85 714.837 1202.25C713.182 1204.65 712.667 1207.38 713.407 1209.84C714.146 1212.3 716.079 1214.3 718.78 1215.39C721.481 1216.48 724.728 1216.57 727.808 1215.65C730.888 1214.72 733.548 1212.86 735.203 1210.46C736.858 1208.06 737.373 1205.33 736.633 1202.87ZM480.554 1360.64C479.814 1358.18 477.882 1356.18 475.181 1355.09C472.48 1354 469.232 1353.91 466.152 1354.83C463.072 1355.76 460.412 1357.62 458.757 1360.02C457.102 1362.42 456.588 1365.15 457.328 1367.61C458.067 1370.07 460 1372.07 462.701 1373.16C465.401 1374.25 468.649 1374.34 471.729 1373.42C474.809 1372.49 477.469 1370.63 479.124 1368.23C480.779 1365.83 481.293 1363.1 480.554 1360.64Z" fill="black"/>
<path d="M1092.87 367.728C1092.13 365.264 1090.2 363.268 1087.5 362.179C1084.8 361.09 1081.55 360.998 1078.47 361.922C1075.39 362.847 1072.73 364.712 1071.08 367.108C1069.42 369.504 1068.91 372.234 1069.65 374.698C1070.39 377.162 1072.32 379.158 1075.02 380.247C1077.72 381.336 1080.97 381.428 1084.05 380.504C1087.13 379.579 1089.79 377.714 1091.44 375.318C1093.1 372.922 1093.61 370.192 1092.87 367.728ZM1879.72 293.409C1879.35 292.189 1878.69 291.071 1877.77 290.119C1876.85 289.167 1875.68 288.4 1874.35 287.861C1873.01 287.322 1871.52 287.021 1869.97 286.977C1868.42 286.933 1866.84 287.146 1865.32 287.604C1863.79 288.062 1862.35 288.755 1861.08 289.645C1859.82 290.535 1858.74 291.603 1857.92 292.79C1857.1 293.976 1856.55 295.257 1856.31 296.559C1856.06 297.862 1856.13 299.16 1856.49 300.38C1856.86 301.6 1857.52 302.718 1858.44 303.67C1859.36 304.622 1860.53 305.389 1861.86 305.929C1863.2 306.468 1864.69 306.768 1866.24 306.812C1867.79 306.856 1869.37 306.643 1870.89 306.185C1872.42 305.727 1873.86 305.034 1875.13 304.144C1876.39 303.254 1877.47 302.186 1878.29 300.999C1879.11 299.813 1879.66 298.532 1879.9 297.23C1880.15 295.928 1880.08 294.629 1879.72 293.409ZM2321.37 79.9447C2320.63 77.4807 2318.7 75.4848 2316 74.3962C2313.3 73.3075 2310.05 73.2151 2306.97 74.1395C2303.89 75.0639 2301.23 76.9293 2299.57 79.3252C2297.92 81.7212 2297.41 84.4515 2298.15 86.9155C2298.88 89.3795 2300.82 91.3754 2303.52 92.4641C2306.22 93.5527 2309.47 93.6451 2312.55 92.7207C2315.63 91.7963 2318.29 89.9309 2319.94 87.535C2321.6 85.139 2322.11 82.4088 2321.37 79.9447ZM1185.66 339.881C1185.29 338.661 1184.63 337.543 1183.71 336.591C1182.79 335.639 1181.62 334.871 1180.29 334.332C1178.95 333.793 1177.46 333.493 1175.91 333.449C1174.36 333.405 1172.78 333.618 1171.26 334.075C1169.73 334.533 1168.29 335.227 1167.03 336.116C1165.76 337.006 1164.68 338.075 1163.86 339.261C1163.04 340.447 1162.5 341.728 1162.25 343.031C1162 344.333 1162.07 345.631 1162.43 346.851C1162.8 348.071 1163.46 349.189 1164.38 350.141C1165.31 351.093 1166.47 351.861 1167.81 352.4C1169.14 352.939 1170.63 353.239 1172.18 353.283C1173.73 353.327 1175.31 353.114 1176.83 352.657C1178.36 352.199 1179.8 351.505 1181.07 350.616C1182.34 349.726 1183.41 348.657 1184.23 347.471C1185.05 346.285 1185.6 345.004 1185.84 343.701C1186.09 342.399 1186.03 341.101 1185.66 339.881ZM1627.31 126.416C1626.57 123.952 1624.64 121.956 1621.94 120.868C1619.24 119.779 1615.99 119.687 1612.91 120.611C1609.83 121.535 1607.17 123.401 1605.52 125.797C1603.86 128.193 1603.35 130.923 1604.09 133.387C1604.83 135.851 1606.76 137.847 1609.46 138.935C1612.16 140.024 1615.41 140.117 1618.49 139.192C1621.57 138.268 1624.23 136.402 1625.88 134.006C1627.54 131.61 1628.05 128.88 1627.31 126.416Z" fill="black"/>
<path d="M1545.83 1202.79C1545.09 1200.32 1543.16 1198.33 1540.45 1197.24C1537.75 1196.15 1534.51 1196.06 1531.43 1196.98C1528.35 1197.91 1525.69 1199.77 1524.03 1202.17C1522.38 1204.56 1521.86 1207.3 1522.6 1209.76C1523.34 1212.22 1525.27 1214.22 1527.97 1215.31C1530.68 1216.4 1533.92 1216.49 1537 1215.56C1540.08 1214.64 1542.74 1212.77 1544.4 1210.38C1546.05 1207.98 1546.57 1205.25 1545.83 1202.79ZM2009.76 1063.55C2009.02 1061.09 2007.08 1059.09 2004.38 1058.01C2001.68 1056.92 1998.43 1056.82 1995.35 1057.75C1992.27 1058.67 1989.61 1060.54 1987.96 1062.93C1986.3 1065.33 1985.79 1068.06 1986.53 1070.52C1987.27 1072.99 1989.2 1074.98 1991.9 1076.07C1994.6 1077.16 1997.85 1077.25 2000.93 1076.33C2004.01 1075.41 2006.67 1073.54 2008.33 1071.14C2009.98 1068.75 2010.49 1066.02 2009.76 1063.55ZM2265.83 905.784C2265.47 904.564 2264.8 903.446 2263.88 902.494C2262.96 901.542 2261.8 900.775 2260.46 900.236C2259.12 899.697 2257.64 899.397 2256.09 899.353C2254.54 899.308 2252.96 899.521 2251.43 899.979C2249.91 900.437 2248.47 901.13 2247.2 902.02C2245.93 902.91 2244.86 903.978 2244.04 905.165C2243.22 906.351 2242.67 907.632 2242.42 908.934C2242.18 910.237 2242.24 911.535 2242.61 912.755C2242.97 913.975 2243.64 915.093 2244.56 916.045C2245.48 916.997 2246.64 917.765 2247.98 918.304C2249.32 918.843 2250.8 919.143 2252.35 919.187C2253.9 919.231 2255.48 919.018 2257.01 918.56C2258.53 918.103 2259.97 917.409 2261.24 916.519C2262.51 915.63 2263.58 914.561 2264.4 913.375C2265.22 912.188 2265.77 910.907 2266.02 909.605C2266.26 908.303 2266.2 907.004 2265.83 905.784ZM2380.9 952.167C2380.16 949.703 2378.22 947.707 2375.52 946.618C2372.82 945.529 2369.58 945.437 2366.5 946.361C2363.42 947.286 2360.76 949.151 2359.1 951.547C2357.45 953.943 2356.93 956.673 2357.67 959.137C2358.41 961.601 2360.34 963.597 2363.04 964.686C2365.74 965.775 2368.99 965.867 2372.07 964.943C2375.15 964.018 2377.81 962.153 2379.47 959.757C2381.12 957.361 2381.64 954.631 2380.9 952.167Z" fill="black"/>
</mask>
<g mask="url(#mask1_507_2229)">
<path d="M1749.39 575.281L1678.88 677.357L1586.1 705.204L1471.03 658.822L1378.25 686.669M1749.39 575.281L1842.18 547.434L1934.96 519.587L2027.75 491.739L2120.54 463.892M1749.39 575.281L1656.61 603.128L1563.82 630.975L1448.76 584.593L1355.97 612.44M2120.54 463.892L2005.47 417.51L1912.69 445.357M2120.54 463.892L2213.32 436.045L2306.11 408.198L2398.9 380.351L2491.68 352.504L2584.47 324.657L2677.26 296.81" stroke="#CCAC00" stroke-width="5.17"/>
<path d="M1379.15 605.476C1377.67 600.554 1373.81 596.567 1368.41 594.393C1363.02 592.218 1356.53 592.034 1350.38 593.88C1344.23 595.726 1338.91 599.452 1335.61 604.238C1332.3 609.024 1331.28 614.477 1332.75 619.399C1334.23 624.321 1338.09 628.307 1343.49 630.482C1348.88 632.657 1355.37 632.841 1361.52 630.995C1367.67 629.148 1372.98 625.422 1376.29 620.637C1379.6 615.851 1380.62 610.397 1379.15 605.476ZM1401.42 679.705C1399.95 674.783 1396.09 670.796 1390.69 668.622C1385.3 666.447 1378.81 666.263 1372.66 668.109C1366.51 669.955 1361.19 673.681 1357.89 678.467C1354.58 683.253 1353.55 688.706 1355.03 693.628C1356.51 698.55 1360.37 702.536 1365.76 704.711C1371.16 706.886 1377.64 707.07 1383.8 705.224C1389.95 703.377 1395.26 699.651 1398.57 694.866C1401.87 690.08 1402.9 684.626 1401.42 679.705ZM1935.86 438.393C1934.39 433.472 1930.53 429.485 1925.13 427.31C1919.74 425.136 1913.25 424.951 1907.1 426.798C1900.94 428.644 1895.63 432.37 1892.33 437.156C1889.02 441.942 1887.99 447.395 1889.47 452.317C1890.95 457.238 1894.81 461.225 1900.2 463.4C1905.6 465.574 1912.08 465.759 1918.24 463.912C1924.39 462.066 1929.7 458.34 1933.01 453.554C1936.31 448.769 1937.34 443.315 1935.86 438.393Z" fill="#CCAC00"/>
<path d="M1793.94 723.741L1723.43 825.817L1630.64 853.664M1793.94 723.741L1864.45 621.664L1957.23 593.817M1793.94 723.741L1701.15 751.588L1608.36 779.435M1608.36 779.435L1515.58 807.282L1422.79 835.129L1330 862.977M1608.36 779.435L1537.85 881.511L1445.07 909.359L1352.28 937.206L1259.49 965.053L1188.99 1067.13M1957.23 593.817L1886.72 695.893M1957.23 593.817L2050.02 565.97L2142.81 538.123L2235.59 510.276L2328.38 482.428M1188.99 1067.13L1073.92 1020.75L981.135 1048.59M1188.99 1067.13L1096.2 1094.98L1003.41 1122.82M2328.38 482.428L2257.87 584.505L2165.08 612.352M2328.38 482.428L2421.17 454.581L2513.95 426.734L2606.74 398.887L2699.53 371.04" stroke="#CCAC00" stroke-width="5.17"/>
<path d="M1026.57 1115.86C1025.09 1110.93 1021.23 1106.95 1015.83 1104.77C1010.44 1102.6 1003.95 1102.41 997.801 1104.26C991.649 1106.11 986.335 1109.83 983.03 1114.62C979.724 1119.4 978.697 1124.86 980.174 1129.78C981.651 1134.7 985.511 1138.69 990.906 1140.86C996.301 1143.04 1002.79 1143.22 1008.94 1141.38C1015.09 1139.53 1020.41 1135.8 1023.71 1131.02C1027.02 1126.23 1028.04 1120.78 1026.57 1115.86ZM1653.8 846.697C1652.32 841.775 1648.46 837.788 1643.06 835.614C1637.67 833.439 1631.18 833.255 1625.03 835.101C1618.88 836.948 1613.56 840.674 1610.26 845.459C1606.95 850.245 1605.92 855.699 1607.4 860.62C1608.88 865.542 1612.74 869.529 1618.13 871.703C1623.53 873.878 1630.02 874.062 1636.17 872.216C1642.32 870.369 1647.63 866.643 1650.94 861.858C1654.24 857.072 1655.27 851.618 1653.8 846.697ZM1353.16 856.009C1351.68 851.087 1347.82 847.101 1342.43 844.926C1337.03 842.752 1330.54 842.567 1324.39 844.414C1318.24 846.26 1312.93 849.986 1309.62 854.772C1306.31 859.557 1305.29 865.011 1306.76 869.933C1308.24 874.854 1312.1 878.841 1317.5 881.016C1322.89 883.19 1329.38 883.375 1335.53 881.528C1341.68 879.682 1347 875.956 1350.3 871.17C1353.61 866.384 1354.63 860.931 1353.16 856.009ZM1909.88 688.926C1908.4 684.004 1904.54 680.018 1899.14 677.843C1893.75 675.669 1887.26 675.484 1881.11 677.331C1874.96 679.177 1869.65 682.903 1866.34 687.689C1863.03 692.474 1862.01 697.928 1863.48 702.85C1864.96 707.771 1868.82 711.758 1874.22 713.933C1879.61 716.107 1886.1 716.292 1892.25 714.445C1898.4 712.599 1903.72 708.873 1907.02 704.087C1910.33 699.301 1911.35 693.848 1909.88 688.926ZM1004.29 1041.63C1002.81 1036.71 998.952 1032.72 993.557 1030.54C988.162 1028.37 981.675 1028.19 975.523 1030.03C969.371 1031.88 964.058 1035.6 960.752 1040.39C957.446 1045.18 956.419 1050.63 957.896 1055.55C959.373 1060.47 963.234 1064.46 968.628 1066.63C974.023 1068.81 980.51 1068.99 986.662 1067.15C992.814 1065.3 998.128 1061.57 1001.43 1056.79C1004.74 1052 1005.77 1046.55 1004.29 1041.63ZM2188.24 605.385C2186.76 600.463 2182.9 596.476 2177.5 594.302C2172.11 592.127 2165.62 591.943 2159.47 593.789C2153.32 595.636 2148 599.361 2144.7 604.147C2141.39 608.933 2140.37 614.386 2141.84 619.308C2143.32 624.23 2147.18 628.217 2152.58 630.391C2157.97 632.566 2164.46 632.75 2170.61 630.904C2176.76 629.057 2182.07 625.331 2185.38 620.546C2188.69 615.76 2189.71 610.306 2188.24 605.385Z" fill="#CCAC00"/>
<path d="M476.325 714.607L361.261 668.225L268.474 696.072M476.325 714.607L569.112 686.759L661.898 658.912M476.325 714.607L383.539 742.454M1218.62 491.829L1148.11 593.905M1218.62 491.829L1333.68 538.211L1426.47 510.364L1541.53 556.746L1634.32 528.899L1727.11 501.051L1819.89 473.204M1218.62 491.829L1125.83 519.676L1033.04 547.524L940.258 575.371M754.685 631.065L684.176 733.141L591.389 760.988M754.685 631.065L847.471 603.218L940.258 575.371M754.685 631.065L661.898 658.912M1819.89 473.204L1704.83 426.822L1612.04 454.67L1519.25 482.517M1819.89 473.204L1890.4 371.128L1983.19 343.281L2075.97 315.434L2191.04 361.816L2283.82 333.968L2376.61 306.121L2469.4 278.274L2562.18 250.427L2654.97 222.58M661.898 658.912L546.834 612.53L454.048 640.378L338.983 593.996L246.197 621.843L153.41 649.69L60.6237 677.537M940.258 575.371L869.749 677.447" stroke="#CCAC00" stroke-width="5.17"/>
<path d="M406.729 735.485C405.252 730.563 401.391 726.577 395.997 724.402C390.602 722.227 384.115 722.043 377.963 723.889C371.811 725.736 366.498 729.462 363.192 734.247C359.886 739.033 358.859 744.487 360.336 749.408C361.813 754.33 365.674 758.317 371.068 760.491C376.463 762.666 382.95 762.85 389.102 761.004C395.254 759.158 400.567 755.432 403.873 750.646C407.179 745.86 408.206 740.407 406.729 735.485ZM291.666 689.103C290.189 684.181 286.328 680.195 280.933 678.02C275.539 675.845 269.052 675.661 262.9 677.507C256.748 679.354 251.434 683.08 248.129 687.865C244.823 692.651 243.796 698.105 245.273 703.026C246.75 707.948 250.61 711.935 256.005 714.109C261.4 716.284 267.887 716.468 274.039 714.622C280.191 712.775 285.504 709.05 288.81 704.264C292.116 699.478 293.143 694.025 291.666 689.103ZM1171.29 586.939C1169.81 582.017 1165.95 578.031 1160.56 575.856C1155.16 573.681 1148.68 573.497 1142.53 575.343C1136.37 577.19 1131.06 580.916 1127.75 585.701C1124.45 590.487 1123.42 595.941 1124.9 600.862C1126.38 605.784 1130.24 609.771 1135.63 611.945C1141.03 614.12 1147.51 614.304 1153.66 612.458C1159.82 610.612 1165.13 606.886 1168.44 602.1C1171.74 597.314 1172.77 591.861 1171.29 586.939ZM614.578 754.02C613.101 749.099 609.24 745.112 603.846 742.937C598.451 740.763 591.964 740.578 585.812 742.425C579.66 744.271 574.347 747.997 571.041 752.783C567.735 757.569 566.708 763.022 568.185 767.944C569.662 772.865 573.523 776.852 578.917 779.027C584.312 781.201 590.799 781.386 596.951 779.539C603.103 777.693 608.416 773.967 611.722 769.181C615.028 764.396 616.055 758.942 614.578 754.02ZM1542.43 475.551C1540.96 470.63 1537.1 466.643 1531.7 464.468C1526.31 462.294 1519.82 462.109 1513.67 463.956C1507.52 465.802 1502.2 469.528 1498.9 474.314C1495.59 479.099 1494.56 484.553 1496.04 489.475C1497.52 494.396 1501.38 498.383 1506.77 500.558C1512.17 502.732 1518.65 502.917 1524.81 501.07C1530.96 499.224 1536.27 495.498 1539.58 490.712C1542.88 485.927 1543.91 480.473 1542.43 475.551ZM83.8167 670.568C82.3396 665.646 78.4792 661.659 73.0846 659.485C67.6899 657.31 61.203 657.126 55.0509 658.972C48.8988 660.818 43.5854 664.544 40.2797 669.33C36.974 674.116 35.9468 679.569 37.4239 684.491C38.901 689.413 42.7614 693.399 48.1561 695.574C53.5507 697.749 60.0377 697.933 66.1897 696.087C72.3418 694.24 77.6552 690.514 80.9609 685.729C84.2666 680.943 85.2938 675.489 83.8167 670.568ZM892.935 670.48C891.458 665.558 887.597 661.571 882.203 659.397C876.808 657.222 870.321 657.038 864.169 658.884C858.017 660.73 852.703 664.456 849.398 669.242C846.092 674.028 845.065 679.481 846.542 684.403C848.019 689.325 851.879 693.311 857.274 695.486C862.669 697.661 869.156 697.845 875.308 695.999C881.46 694.152 886.773 690.426 890.079 685.641C893.385 680.855 894.412 675.401 892.935 670.48Z" fill="#CCAC00"/>
<path d="M2721.81 445.268L2629.02 473.115L2536.24 500.963" stroke="#CCAC00" stroke-width="5.17"/>
<path d="M2559.41 493.997C2557.93 489.076 2554.07 485.089 2548.67 482.915C2543.28 480.74 2536.79 480.556 2530.64 482.402C2524.49 484.248 2519.18 487.974 2515.87 492.76C2512.56 497.546 2511.54 502.999 2513.01 507.921C2514.49 512.843 2518.35 516.829 2523.75 519.004C2529.14 521.179 2535.63 521.363 2541.78 519.517C2547.93 517.67 2553.25 513.944 2556.55 509.159C2559.86 504.373 2560.88 498.919 2559.41 493.997Z" fill="#CCAC00"/>
<path d="M2632.7 148.351L2539.91 176.198L2447.12 204.045L2354.34 231.892L2261.55 259.739L2168.77 287.586" stroke="#CCAC00" stroke-width="5.17"/>
<path d="M2191.89 280.618C2190.42 275.696 2186.55 271.71 2181.16 269.535C2175.77 267.36 2169.28 267.176 2163.13 269.022C2156.97 270.869 2151.66 274.595 2148.36 279.38C2145.05 284.166 2144.02 289.62 2145.5 294.541C2146.98 299.463 2150.84 303.45 2156.23 305.624C2161.63 307.799 2168.11 307.983 2174.27 306.137C2180.42 304.291 2185.73 300.565 2189.04 295.779C2192.34 290.993 2193.37 285.54 2191.89 280.618Z" fill="#CCAC00"/>
<path d="M1304.05 1113.51L1233.54 1215.59M1304.05 1113.51L1374.56 1011.43L1467.34 983.587L1560.13 955.74L1652.92 927.893L1745.7 900.046L1838.49 872.199M1304.05 1113.51L1211.26 1141.36L1118.47 1169.2M2209.63 760.81L2094.57 714.428L2001.78 742.275L1909 770.123L1816.21 797.97M2209.63 760.81L2302.42 732.963L2395.21 705.116L2465.72 603.04L2558.5 575.193L2651.29 547.345L2744.07 519.498M2209.63 760.81L2116.85 788.657L2024.06 816.504L1931.27 844.352L1838.49 872.199M1838.49 872.199L1767.98 974.275L1675.19 1002.12L1582.41 1029.97L1489.62 1057.82M1118.47 1169.2L1047.97 1271.28L955.179 1299.13L862.393 1326.98L791.884 1429.05L699.098 1456.9L606.311 1484.75L513.525 1512.59M1118.47 1169.2L1025.69 1197.05L932.902 1224.9M932.902 1224.9L817.837 1178.52L725.051 1206.36M932.902 1224.9L840.115 1252.75L769.606 1354.82M769.606 1354.82L654.542 1308.44L561.756 1336.29L468.969 1364.13M769.606 1354.82L676.82 1382.67L584.034 1410.52L491.247 1438.36" stroke="#CCAC00" stroke-width="5.17"/>
<path d="M514.467 1431.4C512.99 1426.48 509.13 1422.49 503.735 1420.32C498.341 1418.14 491.854 1417.96 485.701 1419.8C479.549 1421.65 474.236 1425.38 470.93 1430.16C467.625 1434.95 466.597 1440.4 468.075 1445.32C469.552 1450.24 473.412 1454.23 478.807 1456.41C484.201 1458.58 490.688 1458.76 496.84 1456.92C502.992 1455.07 508.306 1451.35 511.612 1446.56C514.917 1441.77 515.944 1436.32 514.467 1431.4ZM1256.75 1208.62C1255.28 1203.7 1251.41 1199.72 1246.02 1197.54C1240.63 1195.37 1234.14 1195.18 1227.99 1197.03C1221.83 1198.87 1216.52 1202.6 1213.22 1207.39C1209.91 1212.17 1208.88 1217.63 1210.36 1222.55C1211.84 1227.47 1215.7 1231.46 1221.09 1233.63C1226.49 1235.8 1232.97 1235.99 1239.13 1234.14C1245.28 1232.3 1250.59 1228.57 1253.9 1223.78C1257.2 1219 1258.23 1213.55 1256.75 1208.62ZM1839.42 791.008C1837.94 786.086 1834.08 782.1 1828.69 779.925C1823.29 777.75 1816.8 777.566 1810.65 779.412C1804.5 781.259 1799.19 784.985 1795.88 789.77C1792.58 794.556 1791.55 800.01 1793.03 804.931C1794.5 809.853 1798.36 813.84 1803.76 816.014C1809.15 818.189 1815.64 818.373 1821.79 816.527C1827.94 814.681 1833.26 810.955 1836.56 806.169C1839.87 801.383 1840.9 795.93 1839.42 791.008ZM1512.83 1050.85C1511.35 1045.93 1507.49 1041.95 1502.1 1039.77C1496.7 1037.6 1490.22 1037.41 1484.07 1039.26C1477.91 1041.1 1472.6 1044.83 1469.29 1049.62C1465.99 1054.4 1464.96 1059.86 1466.44 1064.78C1467.92 1069.7 1471.78 1073.69 1477.17 1075.86C1482.57 1078.03 1489.05 1078.22 1495.2 1076.37C1501.36 1074.53 1506.67 1070.8 1509.98 1066.01C1513.28 1061.23 1514.31 1055.78 1512.83 1050.85ZM536.745 1505.63C535.268 1500.71 531.407 1496.72 526.013 1494.54C520.618 1492.37 514.131 1492.19 507.979 1494.03C501.827 1495.88 496.514 1499.6 493.208 1504.39C489.902 1509.18 488.875 1514.63 490.352 1519.55C491.829 1524.47 495.69 1528.46 501.084 1530.63C506.479 1532.81 512.966 1532.99 519.118 1531.15C525.27 1529.3 530.583 1525.57 533.889 1520.79C537.195 1516 538.222 1510.55 536.745 1505.63ZM748.269 1199.4C746.792 1194.48 742.931 1190.49 737.537 1188.32C732.142 1186.14 725.655 1185.96 719.503 1187.8C713.351 1189.65 708.037 1193.38 704.732 1198.16C701.426 1202.95 700.399 1208.4 701.876 1213.32C703.353 1218.24 707.214 1222.23 712.608 1224.41C718.003 1226.58 724.49 1226.77 730.642 1224.92C736.794 1223.07 742.107 1219.35 745.413 1214.56C748.719 1209.78 749.746 1204.32 748.269 1199.4ZM492.19 1357.17C490.713 1352.25 486.852 1348.26 481.457 1346.09C476.063 1343.91 469.576 1343.73 463.424 1345.57C457.272 1347.42 451.958 1351.15 448.653 1355.93C445.347 1360.72 444.32 1366.17 445.797 1371.09C447.274 1376.01 451.134 1380 456.529 1382.18C461.924 1384.35 468.411 1384.53 474.563 1382.69C480.715 1380.84 486.028 1377.12 489.334 1372.33C492.64 1367.54 493.667 1362.09 492.19 1357.17Z" fill="#CCAC00"/>
<path d="M2031.42 166.977L1960.91 269.053L1868.13 296.901M2031.42 166.977L2124.21 139.13L2239.27 185.512L2332.06 157.664L2424.85 129.817M2031.42 166.977L1938.63 194.824M2424.85 129.817L2309.78 83.4354M2424.85 129.817L2517.63 101.97L2610.42 74.1227M1589.77 380.442L1474.7 334.061L1359.64 287.679L1266.85 315.526L1174.06 343.373M1589.77 380.442L1682.55 352.595L1775.34 324.748L1845.85 222.672L1938.63 194.824M1589.77 380.442L1496.98 408.29L1404.19 436.137L1311.41 463.984L1196.34 417.602L1081.28 371.221M1938.63 194.824L1823.57 148.443L1708.51 102.061L1615.72 129.908" stroke="#CCAC00" stroke-width="5.17"/>
<path d="M1104.41 364.25C1102.93 359.328 1099.07 355.341 1093.68 353.167C1088.28 350.992 1081.8 350.808 1075.65 352.654C1069.49 354.5 1064.18 358.226 1060.87 363.012C1057.57 367.798 1056.54 373.251 1058.02 378.173C1059.49 383.095 1063.36 387.081 1068.75 389.256C1074.14 391.431 1080.63 391.615 1086.78 389.769C1092.94 387.922 1098.25 384.196 1101.56 379.411C1104.86 374.625 1105.89 369.171 1104.41 364.25ZM1891.26 289.93C1889.78 285.009 1885.92 281.022 1880.53 278.847C1875.13 276.673 1868.64 276.488 1862.49 278.335C1856.34 280.181 1851.03 283.907 1847.72 288.693C1844.42 293.479 1843.39 298.932 1844.87 303.854C1846.34 308.776 1850.2 312.762 1855.6 314.937C1860.99 317.111 1867.48 317.296 1873.63 315.449C1879.78 313.603 1885.1 309.877 1888.4 305.091C1891.71 300.306 1892.74 294.852 1891.26 289.93ZM2332.91 76.4654C2331.44 71.5437 2327.58 67.5571 2322.18 65.3825C2316.79 63.2079 2310.3 63.0235 2304.15 64.8699C2298 66.7163 2292.68 70.4422 2289.38 75.2279C2286.07 80.0137 2285.04 85.4673 2286.52 90.389C2288 95.3107 2291.86 99.2973 2297.25 101.472C2302.65 103.646 2309.13 103.831 2315.29 101.984C2321.44 100.138 2326.75 96.4121 2330.06 91.6264C2333.36 86.8406 2334.39 81.3871 2332.91 76.4654ZM1197.2 336.402C1195.72 331.481 1191.86 327.494 1186.47 325.319C1181.07 323.145 1174.58 322.961 1168.43 324.807C1162.28 326.653 1156.97 330.379 1153.66 335.165C1150.35 339.951 1149.33 345.404 1150.8 350.326C1152.28 355.248 1156.14 359.234 1161.54 361.409C1166.93 363.583 1173.42 363.768 1179.57 361.921C1185.72 360.075 1191.04 356.349 1194.34 351.563C1197.65 346.778 1198.67 341.324 1197.2 336.402ZM1638.85 122.937C1637.38 118.016 1633.51 114.029 1628.12 111.855C1622.73 109.68 1616.24 109.496 1610.09 111.342C1603.93 113.188 1598.62 116.914 1595.32 121.7C1592.01 126.486 1590.98 131.939 1592.46 136.861C1593.94 141.783 1597.8 145.769 1603.19 147.944C1608.59 150.118 1615.07 150.303 1621.23 148.457C1627.38 146.61 1632.69 142.884 1636 138.098C1639.3 133.313 1640.33 127.859 1638.85 122.937Z" fill="#CCAC00"/>
<path d="M2231.91 835.039L2161.4 937.115L2068.62 964.962L1998.11 1067.04M2231.91 835.039L2324.7 807.192L2417.48 779.345M2231.91 835.039L2139.13 862.886L2046.34 890.733L1975.83 992.81L1883.04 1020.66L1812.54 1122.73L1719.75 1150.58L1626.96 1178.43L1534.18 1206.27M2417.48 779.345L2346.98 881.421L2254.19 909.268M2417.48 779.345L2510.27 751.498M2510.27 751.498L2439.76 853.574L2369.25 955.65M2510.27 751.498L2603.06 723.651L2673.57 621.574L2766.35 593.727" stroke="#CCAC00" stroke-width="5.17"/>
<path d="M1557.31 1199.31C1555.83 1194.39 1551.97 1190.4 1546.58 1188.22C1541.18 1186.05 1534.7 1185.86 1528.54 1187.71C1522.39 1189.56 1517.08 1193.28 1513.77 1198.07C1510.47 1202.86 1509.44 1208.31 1510.92 1213.23C1512.39 1218.15 1516.25 1222.14 1521.65 1224.31C1527.04 1226.49 1533.53 1226.67 1539.68 1224.83C1545.83 1222.98 1551.15 1219.25 1554.45 1214.47C1557.76 1209.68 1558.79 1204.23 1557.31 1199.31ZM2021.24 1060.07C2019.76 1055.15 2015.9 1051.16 2010.51 1048.99C2005.12 1046.81 1998.63 1046.63 1992.48 1048.48C1986.32 1050.32 1981.01 1054.05 1977.7 1058.83C1974.4 1063.62 1973.37 1069.07 1974.85 1073.99C1976.33 1078.92 1980.19 1082.9 1985.58 1085.08C1990.98 1087.25 1997.46 1087.44 2003.61 1085.59C2009.77 1083.74 2015.08 1080.02 2018.39 1075.23C2021.69 1070.45 2022.72 1064.99 2021.24 1060.07ZM2277.32 902.3C2275.85 897.378 2271.99 893.392 2266.59 891.217C2261.2 889.043 2254.71 888.858 2248.56 890.705C2242.41 892.551 2237.09 896.277 2233.79 901.063C2230.48 905.848 2229.45 911.302 2230.93 916.224C2232.41 921.145 2236.27 925.132 2241.66 927.307C2247.06 929.481 2253.54 929.666 2259.7 927.819C2265.85 925.973 2271.16 922.247 2274.47 917.461C2277.77 912.675 2278.8 907.222 2277.32 902.3ZM2392.39 948.682C2390.91 943.76 2387.05 939.774 2381.66 937.599C2376.26 935.424 2369.77 935.24 2363.62 937.086C2357.47 938.933 2352.16 942.659 2348.85 947.445C2345.55 952.23 2344.52 957.684 2346 962.606C2347.47 967.527 2351.33 971.514 2356.73 973.688C2362.12 975.863 2368.61 976.047 2374.76 974.201C2380.91 972.355 2386.23 968.629 2389.53 963.843C2392.84 959.057 2393.87 953.604 2392.39 948.682Z" fill="#CCAC00"/>
</g>
</g>
</svg>
