<svg width="32" height="32" viewBox="0 0 50 50" fill="none" xmlns="http://www.w3.org/2000/svg">
<path d="M34.3683 9.37317C34.3683 10.7694 34.0656 12.0972 33.5091 13.2982L38.6643 22.2027C36.3503 24.6729 33.3724 26.5085 30.0234 27.436L24.9951 18.7463L18.3558 30.2187C20.455 30.8826 22.6811 31.2439 25.0049 31.2439C31.9078 31.2439 38.0687 28.0512 42.0816 23.0424C43.1654 21.695 45.1279 21.4802 46.4753 22.5542C47.8227 23.6282 48.0375 25.6005 46.9635 26.9479C41.7985 33.3724 33.8801 37.4927 24.9951 37.4927C21.5388 37.4927 18.2191 36.8678 15.1631 35.7254L9.63679 45.2744C9.1779 46.0652 8.49443 46.7096 7.67428 47.1197L2.26518 49.8243C1.777 50.0683 1.20094 50.0391 0.742043 49.7559C0.283148 49.4728 0 48.965 0 48.428V43.0189C0 42.1988 0.214802 41.3884 0.634642 40.6659L6.49287 30.5409C5.24312 29.4474 4.08123 28.2464 3.04628 26.9479C1.96251 25.6005 2.18707 23.638 3.53447 22.5542C4.88186 21.4704 6.84437 21.695 7.92814 23.0424C8.48467 23.7356 9.08026 24.3898 9.70514 25.0049L16.4812 13.2982C15.9344 12.107 15.6219 10.7791 15.6219 9.37317C15.6219 4.1984 19.8203 0 24.9951 0C30.1699 0 34.3683 4.1984 34.3683 9.37317ZM36.4187 38.4593C39.6016 37.2095 42.521 35.4521 45.0986 33.2943L49.3654 40.6659C49.7754 41.3786 50 42.189 50 43.0189V48.428C50 48.965 49.7169 49.4728 49.258 49.7559C48.7991 50.0391 48.223 50.0683 47.7348 49.8243L42.3257 47.1197C41.5056 46.7096 40.8221 46.0652 40.3632 45.2744L36.4187 38.4593ZM24.9951 12.4976C26.7233 12.4976 28.1195 11.1013 28.1195 9.37317C28.1195 7.64499 26.7233 6.24878 24.9951 6.24878C23.2669 6.24878 21.8707 7.64499 21.8707 9.37317C21.8707 11.1013 23.2669 12.4976 24.9951 12.4976Z" fill="#CCAC00"/>
</svg>
