<svg width="108" height="24" viewBox="0 0 108 24" fill="none" xmlns="http://www.w3.org/2000/svg">
<path d="M33.3652 24V0.47083H34.6425V4.17224C34.7933 4.00827 34.9327 3.83408 35.0595 3.65092C35.5815 2.56753 36.4014 1.65536 37.4232 1.02134C38.445 0.387314 39.6264 0.0577041 40.8289 0.0711446C43.7396 -0.015743 46.103 1.06167 47.4932 3.65092C48.3777 5.2594 48.8645 7.05621 48.9129 8.89124C48.9613 10.7263 48.5698 12.5462 47.7712 14.1991C46.4766 17.1011 43.2791 18.5435 39.8557 18.0134C38.7904 17.9227 37.7648 17.5667 36.8724 16.9778C35.98 16.3889 35.2492 15.586 34.7467 14.6422V24H33.3652ZM34.6425 8.79466C34.7554 9.94158 34.7989 10.7583 34.9292 11.5577C35.4332 14.703 37.2926 16.5711 40.212 16.91C41.5828 17.1353 42.9893 16.8783 44.1918 16.1827C45.3944 15.4872 46.3185 14.3962 46.8067 13.0956C47.3678 11.7578 47.6378 10.316 47.5988 8.86593C47.5599 7.41582 47.2129 5.99059 46.5808 4.68488C46.0597 3.51919 45.1734 2.55473 44.0558 1.93715C42.9382 1.31957 41.65 1.08242 40.3858 1.26151C39.1988 1.34751 38.0681 1.80123 37.1509 2.55958C36.2337 3.31794 35.5756 4.34324 35.2681 5.49293C34.9959 6.5805 34.7871 7.68293 34.6425 8.79466Z" fill="black"/>
<path d="M74.9666 11.9921C74.773 13.6487 73.9844 15.1787 72.7474 16.2974C71.5104 17.4162 69.9091 18.0476 68.2415 18.0742C62.8892 18.3436 60.3781 14.7899 59.9785 10.6888C59.701 8.46168 60.0627 6.2016 61.0211 4.17223C61.6886 2.7802 62.7817 1.63668 64.1422 0.9072C65.5028 0.177717 67.0602 -0.0998843 68.589 0.114577C70.0425 0.237764 71.4203 0.815063 72.5275 1.76473C73.6346 2.71439 74.415 3.98829 74.758 5.40603C75.03 6.69726 75.2301 8.00258 75.3576 9.31597H61.2905C61.0298 13.0348 63.0282 16.0237 65.8607 16.7449C69.3884 17.6137 72.4034 16.0845 73.4982 12.7307C73.7414 11.8705 74.1846 11.7488 74.9666 11.9921ZM61.2905 8.12561H73.8631C73.7849 4.16354 71.3173 1.29625 67.9721 1.2528C64.1838 1.19198 61.4555 3.95501 61.2905 8.12561Z" fill="black"/>
<path d="M77.5558 12.079H78.7896C78.8352 12.9869 79.1302 13.8646 79.6422 14.6157C80.1541 15.3668 80.8633 15.9622 81.6917 16.3365C82.7319 16.8046 83.8643 17.0321 85.0045 17.002C86.1448 16.9719 87.2637 16.685 88.2777 16.1627C88.8304 15.9136 89.2933 15.5009 89.604 14.9804C89.9148 14.4599 90.0584 13.8567 90.0155 13.252C90.0473 12.6688 89.888 12.0912 89.5619 11.6066C89.2357 11.1221 88.7605 10.7572 88.2082 10.5672C86.8528 10.0632 85.4104 9.78517 84.0289 9.34204C82.5915 8.9327 81.186 8.41869 79.8236 7.80413C77.5993 6.71804 77.4602 2.48661 79.98 1.14854C81.2702 0.420455 82.7222 0.027079 84.2035 0.00431311C85.6848 -0.0184528 87.1482 0.330115 88.4602 1.01821C89.255 1.45745 89.897 2.12853 90.3006 2.94196C90.7042 3.7554 90.8502 4.67255 90.7193 5.57112H89.6593C89.6593 5.51899 89.5637 5.47554 89.5637 5.42341C89.4333 2.04348 86.6008 1.00083 83.5597 1.29625C82.6519 1.40823 81.7702 1.6757 80.9531 2.08693C80.4623 2.31141 80.0532 2.68273 79.7824 3.14964C79.5116 3.61655 79.3924 4.15601 79.4413 4.69355C79.4428 5.23134 79.6106 5.7555 79.9217 6.19416C80.2328 6.63282 80.672 6.96452 81.179 7.14378C82.5171 7.63035 83.916 7.94315 85.2888 8.32546C86.3923 8.62956 87.5392 8.8294 88.6079 9.19433C89.3622 9.4416 90.0237 9.91212 90.5046 10.5436C90.9856 11.1751 91.2635 11.9378 91.3014 12.7307C91.4304 13.5994 91.2824 14.4867 90.8784 15.2666C90.4744 16.0464 89.8351 16.6792 89.051 17.075C86.149 18.7172 81.3702 18.2828 79.2414 16.2062C78.7019 15.6636 78.2752 15.0195 77.9859 14.3111C77.6966 13.6028 77.5504 12.8441 77.5558 12.079Z" fill="black"/>
<path d="M106.941 5.57111H105.785C105.785 5.41471 105.725 5.27569 105.707 5.14535C105.688 4.27914 105.373 3.44565 104.813 2.78448C104.253 2.12331 103.483 1.67458 102.631 1.51345C101.025 1.05259 99.3116 1.13505 97.757 1.74805C97.1425 1.92424 96.6015 2.29443 96.2147 2.80337C95.8279 3.3123 95.6161 3.93268 95.6109 4.5719C95.5893 5.19966 95.7849 5.81565 96.1648 6.31586C96.5448 6.81608 97.0856 7.16988 97.6962 7.31754C99.4339 7.85625 101.215 8.18642 102.979 8.67299C103.551 8.81018 104.113 8.98136 104.665 9.18563C105.488 9.48009 106.203 10.016 106.716 10.7233C107.23 11.4306 107.518 12.2764 107.544 13.1502C107.569 14.0239 107.33 14.885 106.858 15.6209C106.387 16.3568 105.704 16.9332 104.899 17.2749C103.673 17.8317 102.344 18.1262 100.997 18.1397C99.6509 18.1531 98.3163 17.8852 97.0793 17.3531C96.062 16.9143 95.2035 16.1745 94.6194 15.2331C94.0354 14.2917 93.7537 13.194 93.8123 12.0877H94.2989H94.9418C95.1508 13.0958 95.6023 14.0378 96.2574 14.8321C96.9125 15.6265 97.7513 16.2491 98.7012 16.6462C99.6511 17.0433 100.684 17.2028 101.709 17.111C102.734 17.0192 103.722 16.6788 104.586 16.1193C105.113 15.8457 105.55 15.427 105.846 14.9126C106.141 14.3982 106.283 13.8098 106.255 13.2172C106.281 12.6337 106.116 12.0575 105.785 11.5762C105.454 11.0948 104.975 10.7344 104.421 10.5498C103.066 10.0458 101.623 9.77646 100.242 9.33334C98.7963 8.93031 97.3821 8.42211 96.0105 7.8128C93.8384 6.74409 93.6646 2.54742 96.1409 1.20935C97.4471 0.450757 98.9275 0.0432572 100.438 0.0265085C101.948 0.00975968 103.437 0.384332 104.76 1.11377C105.517 1.56536 106.125 2.22711 106.513 3.01847C106.9 3.80984 107.049 4.6967 106.941 5.57111Z" fill="black"/>
<path d="M31.2537 17.6485C30.7988 17.8207 30.2965 17.8204 29.8418 17.6475C29.3872 17.4746 29.0116 17.1411 28.7861 16.7101C27.3698 14.59 25.8058 12.5656 24.3027 10.4976L23.651 9.62876C21.8611 12.0269 20.0712 14.3294 18.4378 16.7188C18.2249 17.1307 17.8696 17.4512 17.4381 17.6207C17.0065 17.7901 16.528 17.7969 16.0918 17.6398L22.8082 8.62956L16.561 0.488187C17.0107 0.325812 17.5026 0.323585 17.9538 0.481883C18.4049 0.64018 18.7876 0.949304 19.0373 1.35706C20.4883 3.47712 22.0957 5.5016 23.6945 7.64773C25.3019 5.51898 26.8919 3.48581 28.3777 1.38313C28.5917 0.977899 28.9472 0.665462 29.3765 0.505257C29.8059 0.345051 30.2792 0.348254 30.7063 0.514256L28.2821 3.7291C27.196 5.16274 26.1273 6.60508 24.9978 8.00397C24.9068 8.08546 24.834 8.18523 24.7841 8.29677C24.7343 8.40831 24.7085 8.52911 24.7085 8.65128C24.7085 8.77345 24.7343 8.89424 24.7841 9.00578C24.834 9.11732 24.9068 9.2171 24.9978 9.29859C27.0744 12.0529 29.1336 14.816 31.2537 17.6485Z" fill="black"/>
<path d="M59.7696 0.401321V1.61775C58.8908 1.56011 58.0096 1.68738 57.1831 1.99134C56.3565 2.2953 55.6029 2.76919 54.9708 3.38244C54.3387 3.99568 53.8423 4.73465 53.5134 5.55164C53.1846 6.36864 53.0308 7.2455 53.0618 8.12563C53.0618 10.9871 53.0618 13.8486 53.0618 16.7101C53.0618 17.0142 53.0618 17.3183 53.0618 17.6833H51.8193V0.470833H53.0358V3.99847C54.5389 1.42659 56.8588 0.470831 59.7696 0.401321Z" fill="black"/>
<path d="M0 8.51661C0.182464 7.64774 0.295418 6.70066 0.547392 5.81441C2.05055 0.47082 8.17612 -1.7535 12.3902 1.55692C14.8578 3.49451 15.4747 6.24016 15.353 9.33335H1.45102C1.22512 14.8594 5.21326 18.1959 10.3136 16.4929C11.1409 16.197 11.8815 15.6996 12.4686 15.0458C13.0556 14.392 13.4706 13.6024 13.6761 12.748C13.9455 11.8792 14.3799 11.7315 15.2053 11.9834C15.0694 13.0412 14.6954 14.0544 14.1115 14.9468C13.5275 15.8392 12.7489 16.5877 11.8341 17.1359C10.3226 17.9624 8.58845 18.2899 6.87962 18.0714C5.1708 17.8529 3.57482 17.0997 2.3199 15.9194C1.07841 14.5235 0.327744 12.7598 0.182464 10.8973C0.182464 10.6019 0.0695101 10.3065 0.00868875 10.0285C0.00289625 9.51293 0 9.00898 0 8.51661ZM1.4684 8.14299H14.041C13.9628 4.13748 11.4344 1.29625 8.06317 1.27019C4.30962 1.21805 1.6248 3.99846 1.45971 8.12562L1.4684 8.14299Z" fill="black"/>
</svg>
