<svg width="20" height="33" viewBox="0 0 35 48" fill="none" xmlns="http://www.w3.org/2000/svg">
<path d="M9.09995 48C13.7368 48 17.5 44.416 17.5 40V32H9.09995C4.46315 32 0.699951 35.584 0.699951 40C0.699951 44.416 4.46315 48 9.09995 48Z" fill="#0ACF83"/>
<path d="M0.699951 24C0.699951 19.584 4.46315 16 9.09995 16H17.5V32H9.09995C4.46315 32 0.699951 28.416 0.699951 24Z" fill="#A259FF"/>
<path d="M0.699951 8C0.699951 3.584 4.46315 0 9.09995 0H17.5V16H9.09995C4.46315 16 0.699951 12.416 0.699951 8Z" fill="#F24E1E"/>
<path d="M17.5 0H25.9C30.5368 0 34.3 3.584 34.3 8C34.3 12.416 30.5368 16 25.9 16H17.5V0Z" fill="#FF7262"/>
<path d="M34.3 24C34.3 28.416 30.5368 32 25.9 32C21.2632 32 17.5 28.416 17.5 24C17.5 19.584 21.2632 16 25.9 16C30.5368 16 34.3 19.584 34.3 24Z" fill="#1ABCFE"/>
</svg>
