<svg width="56" height="45" viewBox="0 0 56 45" fill="none" xmlns="http://www.w3.org/2000/svg">
<path d="M26.9938 11.8388C27.6151 11.2875 27.8601 10.4213 27.5363 9.65126C27.3351 9.18751 27.1163 8.73251 26.8713 8.29501L26.6001 7.82251C26.3376 7.38501 26.0488 6.95626 25.7426 6.54501C25.2438 5.88001 24.3688 5.66126 23.5813 5.92376L21.1138 6.73751C20.1776 5.96751 19.1013 5.33751 17.9463 4.90876L17.4126 2.37126C17.2463 1.55751 16.6163 0.910012 15.7938 0.813762C15.1988 0.735012 14.6038 0.700012 14.0001 0.700012C13.3963 0.700012 12.8013 0.735012 12.2151 0.805012C11.3926 0.901262 10.7626 1.55751 10.5963 2.36251L10.0626 4.90876C8.89881 5.34626 7.83131 5.96751 6.89506 6.73751L4.41881 5.93251C3.63131 5.67001 2.75631 5.88876 2.25756 6.55376C1.95131 6.96501 1.66256 7.39376 1.39131 7.83126L1.12881 8.29501C0.883811 8.73251 0.665061 9.18751 0.463811 9.66001C0.140061 10.4213 0.385061 11.2875 1.00631 11.8475L2.94881 13.58C2.85256 14.1663 2.80006 14.7788 2.80006 15.4C2.80006 16.0213 2.85256 16.6338 2.94881 17.2288L1.00631 18.9613C0.385061 19.5125 0.140061 20.3788 0.463811 21.1488C0.665061 21.6125 0.883811 22.0675 1.12881 22.5138L1.39131 22.9688C1.65381 23.415 1.94256 23.835 2.25756 24.2463C2.75631 24.9113 3.63131 25.13 4.41881 24.8675L6.88631 24.0538C7.82256 24.8238 8.89881 25.4538 10.0538 25.8825L10.5876 28.4288C10.7538 29.2425 11.3838 29.89 12.2063 29.9863C12.7926 30.0563 13.3876 30.0913 13.9913 30.0913C14.5951 30.0913 15.1901 30.0563 15.7763 29.9863C16.5988 29.89 17.2288 29.2338 17.3951 28.4288L17.9288 25.8825C19.0926 25.445 20.1601 24.8238 21.0963 24.0538L23.5638 24.8675C24.3513 25.13 25.2263 24.9113 25.7251 24.2463C26.0313 23.835 26.3201 23.415 26.5826 22.9688L26.8538 22.4963C27.0988 22.0588 27.3176 21.6038 27.5188 21.14C27.8426 20.3788 27.5976 19.5125 26.9763 18.9525L25.0338 17.22C25.1301 16.625 25.1826 16.0125 25.1826 15.3913C25.1826 14.77 25.1301 14.1575 25.0338 13.5625L26.9763 11.83L26.9938 11.8388ZM18.2001 15.4C18.2001 17.7188 16.3188 19.6 14.0001 19.6C11.6813 19.6 9.80006 17.7188 9.80006 15.4C9.80006 13.0813 11.6813 11.2 14.0001 11.2C16.3188 11.2 18.2001 13.0813 18.2001 15.4ZM44.1613 43.7938C44.7126 44.415 45.5788 44.66 46.3488 44.3363C46.8126 44.135 47.2676 43.9163 47.7051 43.6713L48.1776 43.4C48.6151 43.1375 49.0438 42.8488 49.4551 42.5425C50.1201 42.0438 50.3388 41.1688 50.0763 40.3813L49.2626 37.9138C50.0326 36.9775 50.6626 35.9013 51.0913 34.7463L53.6376 34.2125C54.4513 34.0463 55.0988 33.4163 55.1951 32.5938C55.2651 32.0075 55.3001 31.4125 55.3001 30.8088C55.3001 30.205 55.2651 29.61 55.1951 29.0238C55.0988 28.2013 54.4426 27.5713 53.6376 27.405L51.0913 26.8625C50.6538 25.6988 50.0326 24.6313 49.2626 23.695L50.0763 21.2275C50.3388 20.44 50.1201 19.565 49.4551 19.0663C49.0438 18.76 48.6151 18.4713 48.1776 18.2L47.7138 17.9375C47.2763 17.6925 46.8213 17.4738 46.3488 17.2725C45.5876 16.9488 44.7213 17.1938 44.1613 17.815L42.4288 19.7575C41.8338 19.6613 41.2213 19.6088 40.6001 19.6088C39.9788 19.6088 39.3663 19.6613 38.7713 19.7575L37.0388 17.815C36.4876 17.1938 35.6213 16.9488 34.8513 17.2725C34.3876 17.4738 33.9326 17.6925 33.4863 17.9375L33.0313 18.2C32.5851 18.4625 32.1651 18.7513 31.7538 19.0663C31.0888 19.565 30.8701 20.44 31.1326 21.2275L31.9463 23.695C31.1763 24.6313 30.5463 25.7075 30.1176 26.8625L27.5713 27.3875C26.7576 27.5538 26.1101 28.1838 26.0138 29.0063C25.9438 29.5925 25.9088 30.1875 25.9088 30.7913C25.9088 31.395 25.9438 31.99 26.0138 32.5763C26.1101 33.3988 26.7663 34.0288 27.5713 34.195L30.1176 34.7288C30.5551 35.8925 31.1763 36.96 31.9463 37.8963L31.1326 40.3638C30.8701 41.1513 31.0888 42.0263 31.7538 42.525C32.1651 42.8313 32.5851 43.12 33.0313 43.3825L33.5038 43.6538C33.9413 43.8988 34.3963 44.1175 34.8601 44.3188C35.6213 44.6425 36.4876 44.3975 37.0476 43.7763L38.7801 41.8338C39.3751 41.93 39.9876 41.9825 40.6088 41.9825C41.2301 41.9825 41.8426 41.93 42.4376 41.8338L44.1701 43.7763L44.1613 43.7938ZM40.6001 35C38.2813 35 36.4001 33.1188 36.4001 30.8C36.4001 28.4813 38.2813 26.6 40.6001 26.6C42.9188 26.6 44.8001 28.4813 44.8001 30.8C44.8001 33.1188 42.9188 35 40.6001 35Z" fill="#1C3879"/>
</svg>
