<svg width="24" height="23" viewBox="0 0 42 41" fill="none" xmlns="http://www.w3.org/2000/svg">
<path d="M9.42905 30.5182C9.39679 30.522 9.3552 30.5324 9.31132 30.5561C9.29943 30.5626 9.28737 30.57 9.27528 30.5786C9.27142 30.5813 9.26755 30.5842 9.26369 30.5872L9.29349 30.6259L9.30548 30.6415L9.30566 30.6417M9.42905 30.5182L9.30566 30.6417M9.42905 30.5182C9.43293 30.5242 9.43682 30.5303 9.44071 30.5363C9.44236 30.5388 9.44401 30.5414 9.44567 30.5439C9.44573 30.544 9.44578 30.5441 9.44584 30.5442C9.45462 30.5578 9.46344 30.5712 9.47227 30.5846M9.42905 30.5182L9.47227 30.5846M9.30566 30.6417L9.35406 30.7046L9.35842 30.7103C9.36762 30.7057 9.3767 30.7005 9.38557 30.6947C9.3935 30.6885 9.40099 30.6819 9.40803 30.6752C9.43516 30.6491 9.45571 30.6196 9.46964 30.5903C9.47055 30.5884 9.47143 30.5865 9.47227 30.5846M9.30566 30.6417L9.47227 30.5846M9.29622 30.6483L9.34993 30.7144M9.29622 30.6483L9.34993 30.7144M9.29622 30.6483L9.29602 30.6481L9.28314 30.6322L9.25325 30.5954C9.22215 30.6207 9.1995 30.6523 9.18583 30.6839C9.18436 30.6873 9.18303 30.6906 9.18182 30.6939C9.17655 30.7079 9.17356 30.7205 9.17193 30.7311M9.29622 30.6483L9.17193 30.7311M9.34993 30.7144C9.32106 30.7278 9.29122 30.7358 9.26276 30.7388C9.22419 30.743 9.19443 30.7377 9.1756 30.7322M9.34993 30.7144L9.1756 30.7322M9.1756 30.7322C9.17548 30.7322 9.17535 30.7321 9.17523 30.7321C9.17409 30.7317 9.17299 30.7314 9.17193 30.7311M9.1756 30.7322L9.17193 30.7311M13.5738 32.8557C13.5776 32.8478 13.5817 32.8405 13.5858 32.8338C13.5876 32.836 13.5893 32.8384 13.591 32.8408C13.595 32.8465 13.5989 32.8526 13.6027 32.8592C13.6044 32.8622 13.6061 32.8653 13.6077 32.8684C13.6251 32.9025 13.6335 32.9394 13.6335 32.9734C13.6335 33.014 13.6256 33.048 13.6145 33.0756C13.6123 33.081 13.61 33.0862 13.6077 33.0911C13.6031 33.1004 13.5983 33.1089 13.5934 33.1165C13.5932 33.1163 13.5931 33.1161 13.5929 33.1158C13.5901 33.112 13.5874 33.1079 13.5847 33.1035C13.5808 33.0973 13.5772 33.0907 13.5738 33.0839C13.558 33.052 13.548 33.0138 13.548 32.9734C13.548 32.9291 13.5573 32.8928 13.57 32.8639C13.5712 32.8611 13.5725 32.8584 13.5738 32.8557ZM6.44211 27.2674C6.44187 27.2673 6.44164 27.2673 6.40161 27.7657L6.44164 27.2673L6.42472 27.266L6.40773 27.2658C6.12664 27.2623 5.88602 27.281 5.68665 27.3275C5.49409 27.3724 5.28699 27.4554 5.13509 27.6226C4.96285 27.8123 4.92075 28.0434 4.95339 28.2465C4.98242 28.4271 5.06773 28.5803 5.14337 28.6907C5.29645 28.9143 5.51782 29.1154 5.67583 29.2468C5.75921 29.3162 5.83444 29.3738 5.8891 29.4144C5.91654 29.4347 5.9391 29.4509 5.95526 29.4624L5.97461 29.4761L5.98039 29.4801L5.98225 29.4814L5.98291 29.4818L5.98318 29.482C5.98329 29.4821 5.9834 29.4821 6.26613 29.0698L5.9834 29.4821L6.01897 29.5065L6.05818 29.5245C6.60233 29.7733 7.12467 30.4268 7.53453 31.1137C7.73106 31.4431 7.88728 31.7551 7.99437 31.9851C8.04776 32.0997 8.08855 32.1932 8.11567 32.2571C8.12922 32.289 8.13934 32.3136 8.14588 32.3296L8.15021 32.3404C8.87365 34.5186 10.9348 35.1892 12.6254 35.351C13.4875 35.4334 14.3025 35.3908 14.8984 35.3288C15.0431 35.3138 15.1754 35.2976 15.2931 35.2815C15.295 36.0639 15.3 36.964 15.3051 37.765C15.3069 38.0661 15.3088 38.3529 15.3105 38.6141C15.3146 39.2329 15.3177 39.7084 15.3177 39.8915C15.3177 40.063 15.2572 40.2199 15.1537 40.3148C15.0678 40.3936 14.8808 40.4955 14.4754 40.4298C6.25791 37.6596 0.5 29.8254 0.5 20.6613C0.5 9.19483 9.25826 0.5 20.729 0.5C32.2169 0.5 41.5 9.21152 41.5 20.6613C41.5 29.8323 35.9046 37.6616 27.6689 40.4129C27.2685 40.4783 27.0804 40.3774 26.9926 40.2971C26.8872 40.2009 26.8262 40.0433 26.8262 39.8746C26.8262 39.6466 26.829 39.1104 26.8327 38.3905C26.8346 38.0192 26.8367 37.5991 26.8389 37.1472C26.8453 35.8208 26.8516 34.2236 26.8516 32.7956C26.8516 31.2565 26.4758 30.0808 25.9151 29.2534C27.9812 29.0009 30.1315 28.6208 31.8289 27.4657C33.8442 26.0943 35.1331 23.7059 35.1331 19.5097C35.1331 18.2843 34.9127 17.3351 34.4978 16.488C34.129 15.7347 33.6161 15.0837 33.0194 14.4102C33.3142 13.5001 33.7692 11.3141 32.6933 8.58897L32.6059 8.36749L32.3788 8.29579C31.7879 8.1092 31.0797 8.21984 30.4258 8.4149C29.7529 8.61563 29.0467 8.93434 28.4134 9.26209C27.7774 9.59123 27.2003 9.93713 26.783 10.2C26.5793 10.3284 26.4129 10.4374 26.2953 10.5159C24.6211 10.0694 22.8361 9.83911 21.0677 9.83911C19.2993 9.83911 17.5141 10.0694 15.8398 10.516C15.7222 10.4378 15.5558 10.3289 15.352 10.2009C14.9348 9.93871 14.3577 9.59366 13.7218 9.26511C13.0885 8.93793 12.3826 8.61962 11.71 8.41856C11.0564 8.22317 10.3489 8.1116 9.75877 8.29514L9.53041 8.36616L9.44237 8.58851C8.366 11.3069 8.82145 13.4991 9.11628 14.4104C8.51905 15.09 8.04671 15.744 7.72036 16.5044C7.35651 17.3522 7.18871 18.2975 7.18871 19.5097C7.18871 23.6857 8.41954 26.0762 10.3807 27.455C12.0391 28.6209 14.1536 29.0056 16.2159 29.2568C15.8467 29.8111 15.5515 30.5155 15.3939 31.3702C14.8106 31.608 13.9454 31.8533 13.0425 31.7726C12.0414 31.683 10.9491 31.1913 10.1051 29.7037L10.1035 29.701C9.45757 28.5788 8.54549 27.9701 7.80138 27.6443C7.42993 27.4817 7.09795 27.3883 6.85638 27.3353C6.73535 27.3087 6.63624 27.2921 6.56525 27.282C6.52972 27.2769 6.50116 27.2734 6.48032 27.2711L6.45493 27.2685L6.44674 27.2678L6.4438 27.2675L6.44263 27.2674L6.44211 27.2674ZM7.6251 28.6669C7.67101 28.6903 7.71736 28.7151 7.76401 28.7413C7.76159 28.7464 7.75905 28.7514 7.75636 28.7564L7.61628 28.681L7.6143 28.6799L7.61913 28.6638C7.62112 28.6648 7.62311 28.6658 7.6251 28.6669ZM7.58658 28.6474L7.57965 28.6613L7.42317 28.577C7.42398 28.5752 7.42482 28.5733 7.42565 28.5715C7.47847 28.5951 7.53218 28.6203 7.58658 28.6474ZM7.41761 28.5904L7.56389 28.6928L7.49074 28.8391C7.45609 28.8202 7.4254 28.7991 7.39925 28.7765C7.39728 28.7658 7.39576 28.7543 7.39484 28.7422C7.39094 28.691 7.39873 28.6387 7.41761 28.5904ZM7.55625 28.8734L7.60235 28.7197L7.72574 28.8061C7.69643 28.848 7.66303 28.8764 7.63197 28.8956C7.60669 28.8915 7.58118 28.8842 7.55625 28.8734ZM8.42703 29.3361C8.45754 29.3164 8.49035 29.3027 8.5226 29.2951C8.54274 29.314 8.56281 29.3332 8.58278 29.3527L8.50198 29.4335L8.48044 29.455L8.46774 29.4677L8.44786 29.4876L8.42966 29.5058L8.30282 29.6193C8.3019 29.6152 8.301 29.6104 8.30025 29.6047C8.29744 29.5836 8.2959 29.5427 8.31313 29.4908C8.32474 29.4558 8.34373 29.4199 8.37056 29.3871C8.37303 29.3841 8.37556 29.3811 8.37817 29.3782C8.38209 29.3737 8.38616 29.3693 8.39039 29.365C8.39322 29.3621 8.39613 29.3592 8.3991 29.3564C8.40812 29.349 8.41746 29.3422 8.42703 29.3361ZM8.30774 29.6354C8.30776 29.6354 8.30779 29.6355 8.30781 29.6355C8.30747 29.6353 8.30729 29.6352 8.30727 29.6352C8.30725 29.6351 8.3074 29.6352 8.30774 29.6354ZM8.30788 29.6355C8.30786 29.6355 8.30785 29.6355 8.30783 29.6354C8.30803 29.6356 8.30829 29.6357 8.30859 29.6359C8.3083 29.6358 8.30807 29.6357 8.30788 29.6355ZM8.30874 29.6372C8.30872 29.6372 8.30846 29.6368 8.30803 29.6359L8.30874 29.6372ZM8.32046 29.6404L8.45891 29.502L8.48044 29.4804L8.49315 29.4677L8.51302 29.4479L8.53124 29.4296L8.59919 29.3688C8.61747 29.3869 8.63568 29.4053 8.65381 29.424C8.65211 29.4307 8.65011 29.4376 8.64776 29.4447C8.63615 29.4796 8.61716 29.5156 8.59032 29.5484C8.58786 29.5514 8.58532 29.5544 8.58272 29.5573C8.5788 29.5618 8.57472 29.5662 8.5705 29.5705C8.56766 29.5734 8.56475 29.5763 8.56178 29.5791C8.55276 29.5865 8.54342 29.5932 8.53386 29.5994C8.50174 29.6202 8.46707 29.6342 8.4332 29.6415C8.38436 29.6522 8.34795 29.647 8.33075 29.6431C8.32677 29.6422 8.32335 29.6413 8.32046 29.6404ZM10.4593 31.7398C10.4649 31.7379 10.4704 31.7364 10.4756 31.735C10.4775 31.7367 10.4794 31.7383 10.4813 31.7399C10.4812 31.7406 10.4811 31.7413 10.481 31.742C10.4807 31.7442 10.4803 31.7465 10.4799 31.7488C10.4794 31.7516 10.4788 31.7545 10.4781 31.7574C10.4773 31.7614 10.4763 31.7654 10.4752 31.7696C10.4687 31.7937 10.458 31.8196 10.4425 31.8449C10.4399 31.8491 10.4371 31.8534 10.4342 31.8576C10.4275 31.8674 10.4201 31.8771 10.4118 31.8865C10.4105 31.8876 10.4092 31.8887 10.4079 31.8898C10.3953 31.9003 10.3827 31.909 10.3703 31.9162C10.3458 31.9303 10.3222 31.9385 10.3017 31.9431C10.2947 31.9447 10.2881 31.9459 10.2819 31.9467C10.2818 31.9467 10.2817 31.9467 10.2816 31.9468C10.2818 31.9455 10.282 31.9442 10.2823 31.9429C10.2831 31.9387 10.2841 31.934 10.2854 31.9291C10.2867 31.9242 10.2882 31.9189 10.2899 31.9134C10.2958 31.8951 10.3048 31.874 10.3181 31.8519C10.3226 31.8444 10.3276 31.8368 10.3331 31.8291C10.3375 31.8231 10.3422 31.8171 10.3472 31.8111C10.354 31.8041 10.3609 31.7975 10.3681 31.7914C10.3695 31.7902 10.3709 31.7891 10.3723 31.7879C10.3875 31.7754 10.4034 31.7651 10.4194 31.7567C10.4327 31.7497 10.4462 31.7441 10.4593 31.7398ZM11.8548 32.6264C11.8634 32.6126 11.8724 32.6009 11.8815 32.591L11.8484 32.7013L11.8368 32.7401L11.8227 32.7871L11.8156 32.8107C11.8123 32.7874 11.8118 32.761 11.816 32.7329C11.8179 32.7203 11.8208 32.7074 11.8247 32.6942C11.8328 32.6673 11.8433 32.6449 11.8548 32.6264ZM11.8256 32.8533C11.8243 32.8494 11.823 32.8454 11.8218 32.8411C11.8215 32.84 11.8212 32.8389 11.821 32.8379L11.8464 32.7435L11.857 32.7039L11.8897 32.5825C11.89 32.5822 11.8903 32.5819 11.8906 32.5816C11.8916 32.5849 11.8926 32.5883 11.8936 32.5918C11.9011 32.6198 11.9046 32.6527 11.9015 32.6877C11.9007 32.697 11.8994 32.7065 11.8976 32.7161C11.895 32.7297 11.8913 32.7436 11.8864 32.7575C11.8757 32.7881 11.8611 32.8122 11.8467 32.8303C11.8394 32.8395 11.8322 32.8471 11.8256 32.8533ZM15.1624 32.7681C15.1568 32.7308 15.1594 32.6959 15.1665 32.6658L15.1897 32.7617L15.1899 32.764L15.1624 32.7681ZM15.1903 32.7676L15.1936 32.7994L15.1695 32.803C15.1669 32.7932 15.1647 32.7828 15.163 32.7719L15.1903 32.7676ZM15.2019 32.8795C15.1905 32.8607 15.1796 32.8377 15.1716 32.8106L15.1944 32.8077L15.2019 32.8795ZM15.2635 32.7986C15.2667 32.8231 15.2653 32.8486 15.2598 32.873L15.2425 32.8014L15.2635 32.7986ZM15.2403 32.7924L15.2327 32.7609L15.2557 32.7573C15.2583 32.7673 15.2605 32.7779 15.2622 32.7891L15.2403 32.7924ZM15.2549 32.7542L15.2319 32.7577L15.2089 32.6622C15.2269 32.685 15.2442 32.7152 15.2549 32.7542ZM15.1876 32.7417L15.1683 32.6589C15.1706 32.65 15.1734 32.6416 15.1764 32.6337L15.1876 32.7417ZM9.13882 30.7146C9.13797 30.7138 9.13757 30.7134 9.13754 30.7133C9.1375 30.7131 9.13798 30.7135 9.13882 30.7146Z" fill="#EF5032" stroke="#EF5032"/>
</svg>
