<svg width="388" height="378" viewBox="0 0 388 378" fill="none" xmlns="http://www.w3.org/2000/svg">
<g filter="url(#filter0_d_356_167)">
<rect x="29" y="29" width="330" height="320" rx="20" fill="white"/>
<rect x="29.5" y="29.5" width="329" height="319" rx="19.5" stroke="#EAE3D2"/>
</g>
<path d="M146.756 231.13H144.116V238H140.336V217.78H146.666C148.946 217.78 150.766 218.4 152.126 219.64C153.506 220.88 154.196 222.47 154.196 224.41C154.196 226.47 153.486 228.11 152.066 229.33C150.666 230.53 148.896 231.13 146.756 231.13ZM146.336 220.87H144.116V228.07H146.246C147.626 228.07 148.656 227.74 149.336 227.08C150.016 226.42 150.356 225.53 150.356 224.41C150.356 223.31 150.016 222.45 149.336 221.83C148.656 221.19 147.656 220.87 146.336 220.87ZM169.906 238H166.276V235.51C165.476 237.27 163.916 238.15 161.596 238.15C160.056 238.15 158.856 237.71 157.996 236.83C157.136 235.95 156.706 234.7 156.706 233.08V222.79H160.306V232.24C160.306 233.2 160.536 233.93 160.996 234.43C161.476 234.93 162.126 235.18 162.946 235.18C163.986 235.18 164.796 234.83 165.376 234.13C165.976 233.43 166.276 232.37 166.276 230.95V222.79H169.906V238ZM177.569 238H173.969V216.79H177.569V238ZM185.362 238H181.762V216.79H185.362V238ZM203.031 220.9H200.571V227.5H203.091C204.251 227.5 205.121 227.21 205.701 226.63C206.281 226.03 206.571 225.2 206.571 224.14C206.571 223.1 206.261 222.3 205.641 221.74C205.041 221.18 204.171 220.9 203.031 220.9ZM200.571 238H196.791V217.78H203.031C205.331 217.78 207.131 218.36 208.431 219.52C209.751 220.68 210.411 222.23 210.411 224.17C210.391 225.61 210.041 226.83 209.361 227.83C208.681 228.81 207.751 229.54 206.571 230.02L211.761 238H207.231L202.641 230.62H200.571V238ZM225.917 237.16C224.857 237.82 223.327 238.15 221.327 238.15C218.907 238.15 216.997 237.43 215.597 235.99C214.197 234.55 213.497 232.69 213.497 230.41C213.497 227.99 214.157 226.09 215.477 224.71C216.797 223.33 218.447 222.64 220.427 222.64C222.407 222.64 223.977 223.24 225.137 224.44C226.297 225.64 226.877 227.39 226.877 229.69C226.877 230.25 226.807 230.97 226.667 231.85H217.127C217.387 232.95 217.927 233.79 218.747 234.37C219.587 234.95 220.627 235.24 221.867 235.24C223.467 235.24 224.817 234.84 225.917 234.04V237.16ZM220.517 225.46C219.657 225.46 218.907 225.78 218.267 226.42C217.647 227.04 217.247 227.95 217.067 229.15H223.457V228.7C223.417 227.72 223.147 226.94 222.647 226.36C222.167 225.76 221.457 225.46 220.517 225.46ZM234.116 226.93C233.416 227.77 233.066 228.92 233.066 230.38C233.066 231.84 233.416 233 234.116 233.86C234.836 234.7 235.726 235.12 236.786 235.12C237.806 235.12 238.676 234.7 239.396 233.86C240.136 233.02 240.506 231.83 240.506 230.29C240.506 228.75 240.126 227.59 239.366 226.81C238.626 226.03 237.736 225.64 236.696 225.64C235.676 225.64 234.816 226.07 234.116 226.93ZM244.106 243.73H240.506V235.66C239.466 237.36 237.936 238.21 235.916 238.21C233.916 238.21 232.326 237.47 231.146 235.99C229.966 234.49 229.376 232.6 229.376 230.32C229.376 228 229.966 226.13 231.146 224.71C232.346 223.29 233.936 222.58 235.916 222.58C237.896 222.58 239.426 223.43 240.506 225.13V222.79H244.106V243.73ZM261.049 238H257.419V235.51C256.619 237.27 255.059 238.15 252.739 238.15C251.199 238.15 249.999 237.71 249.139 236.83C248.279 235.95 247.849 234.7 247.849 233.08V222.79H251.449V232.24C251.449 233.2 251.679 233.93 252.139 234.43C252.619 234.93 253.269 235.18 254.089 235.18C255.129 235.18 255.939 234.83 256.519 234.13C257.119 233.43 257.419 232.37 257.419 230.95V222.79H261.049V238ZM276.572 237.16C275.512 237.82 273.982 238.15 271.982 238.15C269.562 238.15 267.652 237.43 266.252 235.99C264.852 234.55 264.152 232.69 264.152 230.41C264.152 227.99 264.812 226.09 266.132 224.71C267.452 223.33 269.102 222.64 271.082 222.64C273.062 222.64 274.632 223.24 275.792 224.44C276.952 225.64 277.532 227.39 277.532 229.69C277.532 230.25 277.462 230.97 277.322 231.85H267.782C268.042 232.95 268.582 233.79 269.402 234.37C270.242 234.95 271.282 235.24 272.522 235.24C274.122 235.24 275.472 234.84 276.572 234.04V237.16ZM271.172 225.46C270.312 225.46 269.562 225.78 268.922 226.42C268.302 227.04 267.902 227.95 267.722 229.15H274.112V228.7C274.072 227.72 273.802 226.94 273.302 226.36C272.822 225.76 272.112 225.46 271.172 225.46ZM290.771 233.62C290.771 235.04 290.261 236.15 289.241 236.95C288.221 237.75 286.861 238.15 285.161 238.15C283.281 238.15 281.761 237.84 280.601 237.22V233.92C281.941 234.82 283.391 235.27 284.951 235.27C285.611 235.27 286.121 235.15 286.481 234.91C286.861 234.65 287.051 234.3 287.051 233.86C287.051 233.6 286.991 233.37 286.871 233.17C286.751 232.95 286.521 232.74 286.181 232.54C285.841 232.34 285.571 232.2 285.371 232.12C285.191 232.02 284.821 231.85 284.261 231.61C284.201 231.59 284.151 231.57 284.111 231.55C284.091 231.53 284.051 231.51 283.991 231.49C283.931 231.47 283.881 231.45 283.841 231.43C281.621 230.43 280.511 228.99 280.511 227.11C280.511 225.71 281.041 224.61 282.101 223.81C283.161 223.01 284.491 222.61 286.091 222.61C287.631 222.61 288.911 222.83 289.931 223.27V226.45C288.931 225.85 287.681 225.55 286.181 225.55C285.561 225.55 285.071 225.69 284.711 225.97C284.371 226.23 284.201 226.57 284.201 226.99C284.201 227.15 284.221 227.3 284.261 227.44C284.321 227.58 284.411 227.72 284.531 227.86C284.671 227.98 284.801 228.09 284.921 228.19C285.041 228.29 285.211 228.4 285.431 228.52C285.651 228.62 285.841 228.71 286.001 228.79C286.161 228.87 286.381 228.97 286.661 229.09C286.941 229.21 287.161 229.31 287.321 229.39C288.381 229.91 289.221 230.49 289.841 231.13C290.461 231.77 290.771 232.6 290.771 233.62ZM302.043 237.64C301.343 237.98 300.443 238.15 299.343 238.15C296.063 238.15 294.423 236.49 294.423 233.17V225.49H292.143V222.79H294.423V219.13H298.023V222.79H301.803V225.49H298.023V233.23C298.023 233.87 298.193 234.36 298.533 234.7C298.873 235.02 299.343 235.18 299.943 235.18C300.703 235.18 301.403 234.97 302.043 234.55V237.64ZM314.941 233.62C314.941 235.04 314.431 236.15 313.411 236.95C312.391 237.75 311.031 238.15 309.331 238.15C307.451 238.15 305.931 237.84 304.771 237.22V233.92C306.111 234.82 307.561 235.27 309.121 235.27C309.781 235.27 310.291 235.15 310.651 234.91C311.031 234.65 311.221 234.3 311.221 233.86C311.221 233.6 311.161 233.37 311.041 233.17C310.921 232.95 310.691 232.74 310.351 232.54C310.011 232.34 309.741 232.2 309.541 232.12C309.361 232.02 308.991 231.85 308.431 231.61C308.371 231.59 308.321 231.57 308.281 231.55C308.261 231.53 308.221 231.51 308.161 231.49C308.101 231.47 308.051 231.45 308.011 231.43C305.791 230.43 304.681 228.99 304.681 227.11C304.681 225.71 305.211 224.61 306.271 223.81C307.331 223.01 308.661 222.61 310.261 222.61C311.801 222.61 313.081 222.83 314.101 223.27V226.45C313.101 225.85 311.851 225.55 310.351 225.55C309.731 225.55 309.241 225.69 308.881 225.97C308.541 226.23 308.371 226.57 308.371 226.99C308.371 227.15 308.391 227.3 308.431 227.44C308.491 227.58 308.581 227.72 308.701 227.86C308.841 227.98 308.971 228.09 309.091 228.19C309.211 228.29 309.381 228.4 309.601 228.52C309.821 228.62 310.011 228.71 310.171 228.79C310.331 228.87 310.551 228.97 310.831 229.09C311.111 229.21 311.331 229.31 311.491 229.39C312.551 229.91 313.391 230.49 314.011 231.13C314.631 231.77 314.941 232.6 314.941 233.62Z" fill="#333333" fill-opacity="0.75"/>
<path d="M91.3478 235.36C91.3478 238.048 90.3238 240.208 88.2758 241.84C86.2598 243.44 83.4278 244.24 79.7798 244.24C76.3558 244.24 73.5238 243.696 71.2838 242.608V235.888C73.8438 237.296 76.4838 238 79.2038 238C80.7718 238 81.9878 237.664 82.8518 236.992C83.7478 236.32 84.1958 235.472 84.1958 234.448C84.1958 232.112 82.0358 230.944 77.7158 230.944H76.0358V225.184H77.7158C79.4118 225.184 80.8038 224.896 81.8918 224.32C82.9798 223.744 83.5238 222.88 83.5238 221.728C83.5238 219.52 82.0838 218.416 79.2038 218.416C76.9958 218.416 74.7718 219.104 72.5318 220.48V213.952C74.8998 212.768 77.2838 212.176 79.6838 212.176C83.0758 212.176 85.7638 212.992 87.7478 214.624C89.7318 216.224 90.7238 218.32 90.7238 220.912C90.7238 224.464 89.1078 226.912 85.8758 228.256C89.5238 229.12 91.3478 231.488 91.3478 235.36ZM101.351 231.376H108.263V217.168L101.351 231.376ZM115.223 244H108.263V237.328H94.4869V231.376L104.087 212.512H115.223V231.376H119.063V237.328H115.223V244Z" fill="#CCAC00" fill-opacity="0.75"/>
<path d="M146.576 283.9H144.116V290.5H146.636C147.796 290.5 148.666 290.21 149.246 289.63C149.826 289.03 150.116 288.2 150.116 287.14C150.116 286.1 149.806 285.3 149.186 284.74C148.586 284.18 147.716 283.9 146.576 283.9ZM144.116 301H140.336V280.78H146.576C148.876 280.78 150.676 281.36 151.976 282.52C153.296 283.68 153.956 285.23 153.956 287.17C153.936 288.61 153.586 289.83 152.906 290.83C152.226 291.81 151.296 292.54 150.116 293.02L155.306 301H150.776L146.186 293.62H144.116V301ZM169.462 300.16C168.402 300.82 166.872 301.15 164.872 301.15C162.452 301.15 160.542 300.43 159.142 298.99C157.742 297.55 157.042 295.69 157.042 293.41C157.042 290.99 157.702 289.09 159.022 287.71C160.342 286.33 161.992 285.64 163.972 285.64C165.952 285.64 167.522 286.24 168.682 287.44C169.842 288.64 170.422 290.39 170.422 292.69C170.422 293.25 170.352 293.97 170.212 294.85H160.672C160.932 295.95 161.472 296.79 162.292 297.37C163.132 297.95 164.172 298.24 165.412 298.24C167.012 298.24 168.362 297.84 169.462 297.04V300.16ZM164.062 288.46C163.202 288.46 162.452 288.78 161.812 289.42C161.192 290.04 160.792 290.95 160.612 292.15H167.002V291.7C166.962 290.72 166.692 289.94 166.192 289.36C165.712 288.76 165.002 288.46 164.062 288.46ZM177.331 306.73H173.731V285.79H177.331V288.13C178.411 286.43 179.961 285.58 181.981 285.58C183.961 285.58 185.531 286.29 186.691 287.71C187.871 289.13 188.461 291 188.461 293.32C188.461 295.6 187.871 297.49 186.691 298.99C185.531 300.47 183.951 301.21 181.951 301.21C179.911 301.21 178.371 300.38 177.331 298.72V306.73ZM178.471 289.81C177.711 290.59 177.331 291.75 177.331 293.29C177.331 294.83 177.701 296.02 178.441 296.86C179.181 297.7 180.071 298.12 181.111 298.12C182.191 298.12 183.071 297.71 183.751 296.89C184.431 296.05 184.771 294.88 184.771 293.38C184.771 291.88 184.431 290.72 183.751 289.9C183.071 289.06 182.211 288.64 181.171 288.64C180.131 288.64 179.231 289.03 178.471 289.81ZM205.404 293.35C205.404 295.65 204.754 297.54 203.454 299.02C202.174 300.5 200.374 301.24 198.054 301.24C195.754 301.24 193.954 300.52 192.654 299.08C191.374 297.64 190.734 295.8 190.734 293.56C190.734 291.24 191.404 289.33 192.744 287.83C194.084 286.31 195.854 285.55 198.054 285.55C200.394 285.55 202.204 286.29 203.484 287.77C204.764 289.23 205.404 291.09 205.404 293.35ZM194.514 293.44C194.514 294.84 194.824 296.01 195.444 296.95C196.064 297.89 196.944 298.36 198.084 298.36C199.264 298.36 200.154 297.9 200.754 296.98C201.354 296.06 201.654 294.89 201.654 293.47C201.654 292.01 201.364 290.82 200.784 289.9C200.204 288.96 199.294 288.49 198.054 288.49C196.914 288.49 196.034 288.96 195.414 289.9C194.814 290.84 194.514 292.02 194.514 293.44ZM218.437 296.62C218.437 298.04 217.927 299.15 216.907 299.95C215.887 300.75 214.527 301.15 212.827 301.15C210.947 301.15 209.427 300.84 208.267 300.22V296.92C209.607 297.82 211.057 298.27 212.617 298.27C213.277 298.27 213.787 298.15 214.147 297.91C214.527 297.65 214.717 297.3 214.717 296.86C214.717 296.6 214.657 296.37 214.537 296.17C214.417 295.95 214.187 295.74 213.847 295.54C213.507 295.34 213.237 295.2 213.037 295.12C212.857 295.02 212.487 294.85 211.927 294.61C211.867 294.59 211.817 294.57 211.777 294.55C211.757 294.53 211.717 294.51 211.657 294.49C211.597 294.47 211.547 294.45 211.507 294.43C209.287 293.43 208.177 291.99 208.177 290.11C208.177 288.71 208.707 287.61 209.767 286.81C210.827 286.01 212.157 285.61 213.757 285.61C215.297 285.61 216.577 285.83 217.597 286.27V289.45C216.597 288.85 215.347 288.55 213.847 288.55C213.227 288.55 212.737 288.69 212.377 288.97C212.037 289.23 211.867 289.57 211.867 289.99C211.867 290.15 211.887 290.3 211.927 290.44C211.987 290.58 212.077 290.72 212.197 290.86C212.337 290.98 212.467 291.09 212.587 291.19C212.707 291.29 212.877 291.4 213.097 291.52C213.317 291.62 213.507 291.71 213.667 291.79C213.827 291.87 214.047 291.97 214.327 292.09C214.607 292.21 214.827 292.31 214.987 292.39C216.047 292.91 216.887 293.49 217.507 294.13C218.127 294.77 218.437 295.6 218.437 296.62ZM225.059 301H221.459V285.79H225.059V301ZM225.419 281.23C225.419 281.85 225.209 282.37 224.789 282.79C224.369 283.21 223.859 283.42 223.259 283.42C222.659 283.42 222.149 283.21 221.729 282.79C221.309 282.37 221.099 281.85 221.099 281.23C221.099 280.63 221.309 280.12 221.729 279.7C222.149 279.28 222.659 279.07 223.259 279.07C223.859 279.07 224.369 279.28 224.789 279.7C225.209 280.12 225.419 280.63 225.419 281.23ZM237.502 300.64C236.802 300.98 235.902 301.15 234.802 301.15C231.522 301.15 229.882 299.49 229.882 296.17V288.49H227.602V285.79H229.882V282.13H233.482V285.79H237.262V288.49H233.482V296.23C233.482 296.87 233.652 297.36 233.992 297.7C234.332 298.02 234.802 298.18 235.402 298.18C236.162 298.18 236.862 297.97 237.502 297.55V300.64ZM254.33 293.35C254.33 295.65 253.68 297.54 252.38 299.02C251.1 300.5 249.3 301.24 246.98 301.24C244.68 301.24 242.88 300.52 241.58 299.08C240.3 297.64 239.66 295.8 239.66 293.56C239.66 291.24 240.33 289.33 241.67 287.83C243.01 286.31 244.78 285.55 246.98 285.55C249.32 285.55 251.13 286.29 252.41 287.77C253.69 289.23 254.33 291.09 254.33 293.35ZM243.44 293.44C243.44 294.84 243.75 296.01 244.37 296.95C244.99 297.89 245.87 298.36 247.01 298.36C248.19 298.36 249.08 297.9 249.68 296.98C250.28 296.06 250.58 294.89 250.58 293.47C250.58 292.01 250.29 290.82 249.71 289.9C249.13 288.96 248.22 288.49 246.98 288.49C245.84 288.49 244.96 288.96 244.34 289.9C243.74 290.84 243.44 292.02 243.44 293.44ZM261.032 301H257.402L257.432 285.79H261.032V288.49C261.732 286.61 263.012 285.67 264.872 285.67C265.292 285.67 265.632 285.7 265.892 285.76V289.24C265.432 289.04 264.922 288.94 264.362 288.94C263.382 288.94 262.582 289.34 261.962 290.14C261.342 290.94 261.032 291.94 261.032 293.14V301ZM271.759 301H268.159V285.79H271.759V301ZM272.119 281.23C272.119 281.85 271.909 282.37 271.489 282.79C271.069 283.21 270.559 283.42 269.959 283.42C269.359 283.42 268.849 283.21 268.429 282.79C268.009 282.37 267.799 281.85 267.799 281.23C267.799 280.63 268.009 280.12 268.429 279.7C268.849 279.28 269.359 279.07 269.959 279.07C270.559 279.07 271.069 279.28 271.489 279.7C271.909 280.12 272.119 280.63 272.119 281.23ZM287.412 300.16C286.352 300.82 284.822 301.15 282.822 301.15C280.402 301.15 278.492 300.43 277.092 298.99C275.692 297.55 274.992 295.69 274.992 293.41C274.992 290.99 275.652 289.09 276.972 287.71C278.292 286.33 279.942 285.64 281.922 285.64C283.902 285.64 285.472 286.24 286.632 287.44C287.792 288.64 288.372 290.39 288.372 292.69C288.372 293.25 288.302 293.97 288.162 294.85H278.622C278.882 295.95 279.422 296.79 280.242 297.37C281.082 297.95 282.122 298.24 283.362 298.24C284.962 298.24 286.312 297.84 287.412 297.04V300.16ZM282.012 288.46C281.152 288.46 280.402 288.78 279.762 289.42C279.142 290.04 278.742 290.95 278.562 292.15H284.952V291.7C284.912 290.72 284.642 289.94 284.142 289.36C283.662 288.76 282.952 288.46 282.012 288.46ZM301.61 296.62C301.61 298.04 301.1 299.15 300.08 299.95C299.06 300.75 297.7 301.15 296 301.15C294.12 301.15 292.6 300.84 291.44 300.22V296.92C292.78 297.82 294.23 298.27 295.79 298.27C296.45 298.27 296.96 298.15 297.32 297.91C297.7 297.65 297.89 297.3 297.89 296.86C297.89 296.6 297.83 296.37 297.71 296.17C297.59 295.95 297.36 295.74 297.02 295.54C296.68 295.34 296.41 295.2 296.21 295.12C296.03 295.02 295.66 294.85 295.1 294.61C295.04 294.59 294.99 294.57 294.95 294.55C294.93 294.53 294.89 294.51 294.83 294.49C294.77 294.47 294.72 294.45 294.68 294.43C292.46 293.43 291.35 291.99 291.35 290.11C291.35 288.71 291.88 287.61 292.94 286.81C294 286.01 295.33 285.61 296.93 285.61C298.47 285.61 299.75 285.83 300.77 286.27V289.45C299.77 288.85 298.52 288.55 297.02 288.55C296.4 288.55 295.91 288.69 295.55 288.97C295.21 289.23 295.04 289.57 295.04 289.99C295.04 290.15 295.06 290.3 295.1 290.44C295.16 290.58 295.25 290.72 295.37 290.86C295.51 290.98 295.64 291.09 295.76 291.19C295.88 291.29 296.05 291.4 296.27 291.52C296.49 291.62 296.68 291.71 296.84 291.79C297 291.87 297.22 291.97 297.5 292.09C297.78 292.21 298 292.31 298.16 292.39C299.22 292.91 300.06 293.49 300.68 294.13C301.3 294.77 301.61 295.6 301.61 296.62Z" fill="#333333" fill-opacity="0.75"/>
<path d="M113.324 298.264C113.324 301.016 112.252 303.24 110.108 304.936C107.996 306.632 105.228 307.48 101.804 307.48C98.3478 307.48 95.5958 306.68 93.5478 305.08C91.5318 303.448 90.5238 301.256 90.5238 298.504C90.5238 295.112 92.0438 292.664 95.0838 291.16C92.3638 289.592 91.0038 287.336 91.0038 284.392C91.0038 281.448 92.0118 279.16 94.0278 277.528C96.0758 275.864 98.6678 275.032 101.804 275.032C105.068 275.032 107.708 275.816 109.724 277.384C111.772 278.952 112.796 281.288 112.796 284.392C112.796 287.272 111.484 289.48 108.86 291.016C111.836 292.392 113.324 294.808 113.324 298.264ZM97.5318 298.312C97.5318 299.304 97.8678 300.152 98.5398 300.856C99.2438 301.56 100.348 301.912 101.852 301.912C103.324 301.912 104.428 301.56 105.164 300.856C105.932 300.12 106.316 299.24 106.316 298.216C106.316 297.064 105.916 296.12 105.116 295.384C104.348 294.648 103.26 294.28 101.852 294.28C100.412 294.28 99.3238 294.68 98.5878 295.48C97.8838 296.28 97.5318 297.224 97.5318 298.312ZM98.0598 284.296C98.0598 285.512 98.4278 286.456 99.1638 287.128C99.8998 287.8 100.828 288.136 101.948 288.136C103.036 288.136 103.948 287.8 104.684 287.128C105.42 286.456 105.788 285.512 105.788 284.296C105.788 281.832 104.46 280.6 101.804 280.6C100.524 280.6 99.5798 280.968 98.9718 281.704C98.3638 282.408 98.0598 283.272 98.0598 284.296Z" fill="#CCAC00" fill-opacity="0.75"/>
<path d="M70.7194 178H63.7594V154.144L55.8394 158.896V151.744L64.6714 146.608H70.7194V178ZM95.0978 169.36C95.0978 172.048 94.0738 174.208 92.0258 175.84C90.0098 177.44 87.1778 178.24 83.5298 178.24C80.1058 178.24 77.2738 177.696 75.0338 176.608V169.888C77.5938 171.296 80.2338 172 82.9538 172C84.5218 172 85.7378 171.664 86.6018 170.992C87.4978 170.32 87.9458 169.472 87.9458 168.448C87.9458 166.112 85.7858 164.944 81.4658 164.944H79.7858V159.184H81.4658C83.1618 159.184 84.5538 158.896 85.6418 158.32C86.7298 157.744 87.2738 156.88 87.2738 155.728C87.2738 153.52 85.8338 152.416 82.9538 152.416C80.7458 152.416 78.5218 153.104 76.2818 154.48V147.952C78.6498 146.768 81.0338 146.176 83.4338 146.176C86.8258 146.176 89.5138 146.992 91.4978 148.624C93.4818 150.224 94.4738 152.32 94.4738 154.912C94.4738 158.464 92.8578 160.912 89.6258 162.256C93.2738 163.12 95.0978 165.488 95.0978 169.36ZM118.301 169.36C118.301 172.048 117.277 174.208 115.229 175.84C113.213 177.44 110.381 178.24 106.733 178.24C103.309 178.24 100.477 177.696 98.2369 176.608V169.888C100.797 171.296 103.437 172 106.157 172C107.725 172 108.941 171.664 109.805 170.992C110.701 170.32 111.149 169.472 111.149 168.448C111.149 166.112 108.989 164.944 104.669 164.944H102.989V159.184H104.669C106.365 159.184 107.757 158.896 108.845 158.32C109.933 157.744 110.477 156.88 110.477 155.728C110.477 153.52 109.037 152.416 106.157 152.416C103.949 152.416 101.725 153.104 99.4849 154.48V147.952C101.853 146.768 104.237 146.176 106.637 146.176C110.029 146.176 112.717 146.992 114.701 148.624C116.685 150.224 117.677 152.32 117.677 154.912C117.677 158.464 116.061 160.912 112.829 162.256C116.477 163.12 118.301 165.488 118.301 169.36Z" fill="#CCAC00" fill-opacity="0.75"/>
<path d="M155.223 171.04C153.983 171.84 152.243 172.24 150.003 172.24C147.003 172.24 144.523 171.3 142.563 169.42C140.623 167.52 139.653 165.01 139.653 161.89C139.653 158.83 140.613 156.34 142.533 154.42C144.473 152.48 146.963 151.51 150.003 151.51C152.223 151.51 153.953 151.88 155.193 152.62V156.31C153.673 155.43 151.993 154.99 150.153 154.99C148.313 154.99 146.773 155.62 145.533 156.88C144.313 158.12 143.703 159.79 143.703 161.89C143.703 163.99 144.313 165.66 145.533 166.9C146.773 168.14 148.383 168.76 150.363 168.76C152.263 168.76 153.883 168.26 155.223 167.26V171.04ZM172.455 164.35C172.455 166.65 171.805 168.54 170.505 170.02C169.225 171.5 167.425 172.24 165.105 172.24C162.805 172.24 161.005 171.52 159.705 170.08C158.425 168.64 157.785 166.8 157.785 164.56C157.785 162.24 158.455 160.33 159.795 158.83C161.135 157.31 162.905 156.55 165.105 156.55C167.445 156.55 169.255 157.29 170.535 158.77C171.815 160.23 172.455 162.09 172.455 164.35ZM161.565 164.44C161.565 165.84 161.875 167.01 162.495 167.95C163.115 168.89 163.995 169.36 165.135 169.36C166.315 169.36 167.205 168.9 167.805 167.98C168.405 167.06 168.705 165.89 168.705 164.47C168.705 163.01 168.415 161.82 167.835 160.9C167.255 159.96 166.345 159.49 165.105 159.49C163.965 159.49 163.085 159.96 162.465 160.9C161.865 161.84 161.565 163.02 161.565 164.44ZM188.757 172H185.157V162.64C185.157 161.64 184.917 160.89 184.437 160.39C183.957 159.87 183.307 159.61 182.487 159.61C181.547 159.61 180.757 159.98 180.117 160.72C179.477 161.44 179.157 162.48 179.157 163.84V172H175.557V156.79H179.157V159.4C180.017 157.54 181.577 156.61 183.837 156.61C185.357 156.61 186.557 157.07 187.437 157.99C188.317 158.91 188.757 160.21 188.757 161.89V172ZM200.92 171.64C200.22 171.98 199.32 172.15 198.22 172.15C194.94 172.15 193.3 170.49 193.3 167.17V159.49H191.02V156.79H193.3V153.13H196.9V156.79H200.68V159.49H196.9V167.23C196.9 167.87 197.07 168.36 197.41 168.7C197.75 169.02 198.22 169.18 198.82 169.18C199.58 169.18 200.28 168.97 200.92 168.55V171.64ZM207.488 172H203.858L203.888 156.79H207.488V159.49C208.188 157.61 209.468 156.67 211.328 156.67C211.748 156.67 212.088 156.7 212.348 156.76V160.24C211.888 160.04 211.378 159.94 210.818 159.94C209.838 159.94 209.038 160.34 208.418 161.14C207.798 161.94 207.488 162.94 207.488 164.14V172ZM218.214 172H214.614V156.79H218.214V172ZM218.574 152.23C218.574 152.85 218.364 153.37 217.944 153.79C217.524 154.21 217.014 154.42 216.414 154.42C215.814 154.42 215.304 154.21 214.884 153.79C214.464 153.37 214.254 152.85 214.254 152.23C214.254 151.63 214.464 151.12 214.884 150.7C215.304 150.28 215.814 150.07 216.414 150.07C217.014 150.07 217.524 150.28 217.944 150.7C218.364 151.12 218.574 151.63 218.574 152.23ZM225.917 172H222.287V150.79H225.917V159.1C226.977 157.42 228.497 156.58 230.477 156.58C232.377 156.58 233.937 157.29 235.157 158.71C236.397 160.11 237.017 162.01 237.017 164.41C237.017 166.57 236.427 168.41 235.247 169.93C234.087 171.45 232.507 172.21 230.507 172.21C228.507 172.21 226.977 171.36 225.917 169.66V172ZM225.917 164.26C225.917 165.84 226.277 167.05 226.997 167.89C227.717 168.71 228.617 169.12 229.697 169.12C230.737 169.12 231.607 168.69 232.307 167.83C233.007 166.97 233.357 165.85 233.357 164.47C233.357 162.95 232.997 161.77 232.277 160.93C231.577 160.07 230.707 159.64 229.667 159.64C228.687 159.64 227.817 160.03 227.057 160.81C226.297 161.57 225.917 162.72 225.917 164.26ZM253.148 172H249.518V169.51C248.718 171.27 247.158 172.15 244.838 172.15C243.298 172.15 242.098 171.71 241.238 170.83C240.378 169.95 239.948 168.7 239.948 167.08V156.79H243.548V166.24C243.548 167.2 243.778 167.93 244.238 168.43C244.718 168.93 245.368 169.18 246.188 169.18C247.228 169.18 248.038 168.83 248.618 168.13C249.218 167.43 249.518 166.37 249.518 164.95V156.79H253.148V172ZM265.461 171.64C264.761 171.98 263.861 172.15 262.761 172.15C259.481 172.15 257.841 170.49 257.841 167.17V159.49H255.561V156.79H257.841V153.13H261.441V156.79H265.221V159.49H261.441V167.23C261.441 167.87 261.611 168.36 261.951 168.7C262.291 169.02 262.761 169.18 263.361 169.18C264.121 169.18 264.821 168.97 265.461 168.55V171.64ZM272.179 172H268.579V156.79H272.179V172ZM272.539 152.23C272.539 152.85 272.329 153.37 271.909 153.79C271.489 154.21 270.979 154.42 270.379 154.42C269.779 154.42 269.269 154.21 268.849 153.79C268.429 153.37 268.219 152.85 268.219 152.23C268.219 151.63 268.429 151.12 268.849 150.7C269.269 150.28 269.779 150.07 270.379 150.07C270.979 150.07 271.489 150.28 271.909 150.7C272.329 151.12 272.539 151.63 272.539 152.23ZM290.081 164.35C290.081 166.65 289.431 168.54 288.131 170.02C286.851 171.5 285.051 172.24 282.731 172.24C280.431 172.24 278.631 171.52 277.331 170.08C276.051 168.64 275.411 166.8 275.411 164.56C275.411 162.24 276.081 160.33 277.421 158.83C278.761 157.31 280.531 156.55 282.731 156.55C285.071 156.55 286.881 157.29 288.161 158.77C289.441 160.23 290.081 162.09 290.081 164.35ZM279.191 164.44C279.191 165.84 279.501 167.01 280.121 167.95C280.741 168.89 281.621 169.36 282.761 169.36C283.941 169.36 284.831 168.9 285.431 167.98C286.031 167.06 286.331 165.89 286.331 164.47C286.331 163.01 286.041 161.82 285.461 160.9C284.881 159.96 283.971 159.49 282.731 159.49C281.591 159.49 280.711 159.96 280.091 160.9C279.491 161.84 279.191 163.02 279.191 164.44ZM306.384 172H302.784V162.64C302.784 161.64 302.544 160.89 302.064 160.39C301.584 159.87 300.934 159.61 300.114 159.61C299.174 159.61 298.384 159.98 297.744 160.72C297.104 161.44 296.784 162.48 296.784 163.84V172H293.184V156.79H296.784V159.4C297.644 157.54 299.204 156.61 301.464 156.61C302.984 156.61 304.184 157.07 305.064 157.99C305.944 158.91 306.384 160.21 306.384 161.89V172ZM320.077 167.62C320.077 169.04 319.567 170.15 318.547 170.95C317.527 171.75 316.167 172.15 314.467 172.15C312.587 172.15 311.067 171.84 309.907 171.22V167.92C311.247 168.82 312.697 169.27 314.257 169.27C314.917 169.27 315.427 169.15 315.787 168.91C316.167 168.65 316.357 168.3 316.357 167.86C316.357 167.6 316.297 167.37 316.177 167.17C316.057 166.95 315.827 166.74 315.487 166.54C315.147 166.34 314.877 166.2 314.677 166.12C314.497 166.02 314.127 165.85 313.567 165.61C313.507 165.59 313.457 165.57 313.417 165.55C313.397 165.53 313.357 165.51 313.297 165.49C313.237 165.47 313.187 165.45 313.147 165.43C310.927 164.43 309.817 162.99 309.817 161.11C309.817 159.71 310.347 158.61 311.407 157.81C312.467 157.01 313.797 156.61 315.397 156.61C316.937 156.61 318.217 156.83 319.237 157.27V160.45C318.237 159.85 316.987 159.55 315.487 159.55C314.867 159.55 314.377 159.69 314.017 159.97C313.677 160.23 313.507 160.57 313.507 160.99C313.507 161.15 313.527 161.3 313.567 161.44C313.627 161.58 313.717 161.72 313.837 161.86C313.977 161.98 314.107 162.09 314.227 162.19C314.347 162.29 314.517 162.4 314.737 162.52C314.957 162.62 315.147 162.71 315.307 162.79C315.467 162.87 315.687 162.97 315.967 163.09C316.247 163.21 316.467 163.31 316.627 163.39C317.687 163.91 318.527 164.49 319.147 165.13C319.767 165.77 320.077 166.6 320.077 167.62Z" fill="#333333" fill-opacity="0.75"/>
<path d="M196.968 91.26C195.128 92.58 192.828 93.24 190.068 93.24C186.868 93.24 184.278 92.31 182.298 90.45C180.338 88.59 179.358 86.06 179.358 82.86C179.358 79.74 180.368 77.22 182.388 75.3C184.428 73.38 186.998 72.42 190.098 72.42C192.398 72.42 194.368 72.85 196.008 73.71V77.58C194.168 76.48 192.218 75.93 190.158 75.93C188.138 75.93 186.508 76.56 185.268 77.82C184.028 79.08 183.408 80.76 183.408 82.86C183.408 85 184.008 86.69 185.208 87.93C186.428 89.15 188.098 89.76 190.218 89.76C191.258 89.76 192.268 89.58 193.248 89.22V84.45H189.528V81.21H196.968V90.93H196.938L196.968 91.26ZM204.569 93H200.969V77.79H204.569V93ZM204.929 73.23C204.929 73.85 204.719 74.37 204.299 74.79C203.879 75.21 203.369 75.42 202.769 75.42C202.169 75.42 201.659 75.21 201.239 74.79C200.819 74.37 200.609 73.85 200.609 73.23C200.609 72.63 200.819 72.12 201.239 71.7C201.659 71.28 202.169 71.07 202.769 71.07C203.369 71.07 203.879 71.28 204.299 71.7C204.719 72.12 204.929 72.63 204.929 73.23ZM217.012 92.64C216.312 92.98 215.412 93.15 214.312 93.15C211.032 93.15 209.392 91.49 209.392 88.17V80.49H207.112V77.79H209.392V74.13H212.992V77.79H216.772V80.49H212.992V88.23C212.992 88.87 213.162 89.36 213.502 89.7C213.842 90.02 214.312 90.18 214.912 90.18C215.672 90.18 216.372 89.97 217.012 89.55V92.64ZM236.029 93H232.219V84.51H223.909V93H220.129V72.78H223.909V81.24H232.219V72.78H236.029V93ZM253.127 93H249.497V90.51C248.697 92.27 247.137 93.15 244.817 93.15C243.277 93.15 242.077 92.71 241.217 91.83C240.357 90.95 239.927 89.7 239.927 88.08V77.79H243.527V87.24C243.527 88.2 243.757 88.93 244.217 89.43C244.697 89.93 245.347 90.18 246.167 90.18C247.207 90.18 248.017 89.83 248.597 89.13C249.197 88.43 249.497 87.37 249.497 85.95V77.79H253.127V93ZM260.7 93H257.07V71.79H260.7V80.1C261.76 78.42 263.28 77.58 265.26 77.58C267.16 77.58 268.72 78.29 269.94 79.71C271.18 81.11 271.8 83.01 271.8 85.41C271.8 87.57 271.21 89.41 270.03 90.93C268.87 92.45 267.29 93.21 265.29 93.21C263.29 93.21 261.76 92.36 260.7 90.66V93ZM260.7 85.26C260.7 86.84 261.06 88.05 261.78 88.89C262.5 89.71 263.4 90.12 264.48 90.12C265.52 90.12 266.39 89.69 267.09 88.83C267.79 87.97 268.14 86.85 268.14 85.47C268.14 83.95 267.78 82.77 267.06 81.93C266.36 81.07 265.49 80.64 264.45 80.64C263.47 80.64 262.6 81.03 261.84 81.81C261.08 82.57 260.7 83.72 260.7 85.26Z" fill="#333333" fill-opacity="0.75"/>
<path d="M128.379 95.4032C128.379 95.5645 128.194 95.6936 127.96 95.6936C127.694 95.7177 127.508 95.5887 127.508 95.4032C127.508 95.2419 127.694 95.1129 127.927 95.1129C128.169 95.0887 128.379 95.2177 128.379 95.4032ZM125.871 95.0403C125.815 95.2016 125.976 95.3871 126.218 95.4355C126.427 95.5161 126.669 95.4355 126.718 95.2742C126.766 95.1129 126.613 94.9274 126.371 94.8548C126.161 94.7984 125.927 94.879 125.871 95.0403ZM129.435 94.9032C129.202 94.9597 129.04 95.1129 129.065 95.2984C129.089 95.4597 129.298 95.5645 129.54 95.5081C129.774 95.4516 129.935 95.2984 129.911 95.1371C129.887 94.9839 129.669 94.879 129.435 94.9032ZM134.742 64C123.556 64 115 72.4919 115 83.6774C115 92.621 120.629 100.274 128.669 102.968C129.702 103.153 130.065 102.516 130.065 101.992C130.065 101.492 130.04 98.7339 130.04 97.0403C130.04 97.0403 124.395 98.25 123.21 94.6371C123.21 94.6371 122.29 92.2903 120.968 91.6855C120.968 91.6855 119.121 90.4194 121.097 90.4436C121.097 90.4436 123.105 90.6048 124.21 92.5242C125.976 95.6371 128.935 94.7419 130.089 94.2097C130.274 92.9194 130.798 92.0242 131.379 91.4919C126.871 90.9919 122.323 90.3387 122.323 82.5806C122.323 80.3629 122.935 79.25 124.226 77.8306C124.016 77.3065 123.331 75.1452 124.435 72.3548C126.121 71.8306 130 74.5323 130 74.5323C131.613 74.0806 133.347 73.8468 135.065 73.8468C136.782 73.8468 138.516 74.0806 140.129 74.5323C140.129 74.5323 144.008 71.8226 145.694 72.3548C146.798 75.1532 146.113 77.3065 145.903 77.8306C147.194 79.2581 147.984 80.371 147.984 82.5806C147.984 90.3629 143.234 90.9839 138.726 91.4919C139.468 92.129 140.097 93.3387 140.097 95.2339C140.097 97.9516 140.073 101.315 140.073 101.976C140.073 102.5 140.444 103.137 141.468 102.952C149.532 100.274 155 92.621 155 83.6774C155 72.4919 145.927 64 134.742 64ZM122.839 91.8145C122.734 91.8952 122.758 92.0806 122.895 92.2339C123.024 92.3629 123.21 92.4194 123.315 92.3145C123.419 92.2339 123.395 92.0484 123.258 91.8952C123.129 91.7661 122.944 91.7097 122.839 91.8145ZM121.968 91.1613C121.911 91.2661 121.992 91.3952 122.153 91.4758C122.282 91.5565 122.444 91.5323 122.5 91.4194C122.556 91.3145 122.476 91.1855 122.315 91.1048C122.153 91.0565 122.024 91.0806 121.968 91.1613ZM124.581 94.0323C124.452 94.1371 124.5 94.379 124.685 94.5323C124.871 94.7177 125.105 94.7419 125.21 94.6129C125.315 94.5081 125.266 94.2661 125.105 94.1129C124.927 93.9274 124.685 93.9032 124.581 94.0323ZM123.661 92.8468C123.532 92.9274 123.532 93.1371 123.661 93.3226C123.79 93.5081 124.008 93.5887 124.113 93.5081C124.242 93.4032 124.242 93.1936 124.113 93.0081C124 92.8226 123.79 92.7419 123.661 92.8468Z" fill="#EF5032"/>
<defs>
<filter id="filter0_d_356_167" x="0" y="0" width="388" height="378" filterUnits="userSpaceOnUse" color-interpolation-filters="sRGB">
<feFlood flood-opacity="0" result="BackgroundImageFix"/>
<feColorMatrix in="SourceAlpha" type="matrix" values="0 0 0 0 0 0 0 0 0 0 0 0 0 0 0 0 0 0 127 0" result="hardAlpha"/>
<feMorphology radius="4" operator="dilate" in="SourceAlpha" result="effect1_dropShadow_356_167"/>
<feOffset/>
<feGaussianBlur stdDeviation="12.5"/>
<feComposite in2="hardAlpha" operator="out"/>
<feColorMatrix type="matrix" values="0 0 0 0 0.2 0 0 0 0 0.2 0 0 0 0 0.2 0 0 0 0.25 0"/>
<feBlend mode="normal" in2="BackgroundImageFix" result="effect1_dropShadow_356_167"/>
<feBlend mode="normal" in="SourceGraphic" in2="effect1_dropShadow_356_167" result="shape"/>
</filter>
</defs>
</svg>
