<svg width="308" height="138" viewBox="0 0 308 138" fill="none" xmlns="http://www.w3.org/2000/svg">
<g filter="url(#filter0_d_374_247)">
<rect x="29" y="29" width="250" height="80" rx="20" fill="white"/>
<rect x="29.5" y="29.5" width="249" height="79" rx="19.5" stroke="#EAE3D2"/>
</g>
<path d="M126.811 72.24C126.811 74.14 126.331 75.58 125.371 76.56C124.411 77.54 123.091 78.03 121.411 78.03C120.151 78.03 119.121 77.82 118.321 77.4V73.98C119.081 74.46 119.881 74.7 120.721 74.7C122.261 74.7 123.031 73.88 123.031 72.24V57.81H126.811V72.24ZM135.958 75.45C136.758 75.45 137.378 75.22 137.818 74.76C138.278 74.28 138.508 73.66 138.508 72.9V71.46H136.648C135.708 71.46 134.988 71.66 134.488 72.06C133.988 72.44 133.738 72.93 133.738 73.53C133.738 74.81 134.478 75.45 135.958 75.45ZM138.658 76.17C137.958 77.47 136.638 78.12 134.698 78.12C133.258 78.12 132.108 77.7 131.248 76.86C130.408 76.02 129.988 74.96 129.988 73.68C129.988 72.24 130.528 71.11 131.608 70.29C132.688 69.47 134.248 69.06 136.288 69.06H138.508V68.13C138.508 67.29 138.288 66.65 137.848 66.21C137.408 65.77 136.658 65.55 135.598 65.55C133.978 65.55 132.488 66 131.128 66.9V63.57C132.268 62.87 133.908 62.52 136.048 62.52C140.168 62.52 142.228 64.44 142.228 68.28V78H138.658V76.17ZM153.773 78H149.873L144.383 62.79H148.163L150.173 69.24C150.573 70.5 150.913 71.63 151.193 72.63C151.473 73.61 151.653 74.28 151.733 74.64L151.823 75.18C152.023 74.06 152.593 72.08 153.533 69.24L155.633 62.79H159.353L153.773 78ZM166.896 75.45C167.696 75.45 168.316 75.22 168.756 74.76C169.216 74.28 169.446 73.66 169.446 72.9V71.46H167.586C166.646 71.46 165.926 71.66 165.426 72.06C164.926 72.44 164.676 72.93 164.676 73.53C164.676 74.81 165.416 75.45 166.896 75.45ZM169.596 76.17C168.896 77.47 167.576 78.12 165.636 78.12C164.196 78.12 163.046 77.7 162.186 76.86C161.346 76.02 160.926 74.96 160.926 73.68C160.926 72.24 161.466 71.11 162.546 70.29C163.626 69.47 165.186 69.06 167.226 69.06H169.446V68.13C169.446 67.29 169.226 66.65 168.786 66.21C168.346 65.77 167.596 65.55 166.536 65.55C164.916 65.55 163.426 66 162.066 66.9V63.57C163.206 62.87 164.846 62.52 166.986 62.52C171.106 62.52 173.166 64.44 173.166 68.28V78H169.596V76.17ZM189.241 72.33C189.241 74.13 188.591 75.57 187.291 76.65C186.011 77.71 184.321 78.24 182.221 78.24C179.941 78.24 178.051 77.81 176.551 76.95V73.08C178.271 74.32 180.151 74.94 182.191 74.94C183.111 74.94 183.851 74.72 184.411 74.28C184.971 73.82 185.251 73.21 185.251 72.45C185.251 72.09 185.181 71.77 185.041 71.49C184.901 71.21 184.611 70.93 184.171 70.65C183.751 70.37 183.421 70.17 183.181 70.05C182.961 69.93 182.491 69.71 181.771 69.39C181.571 69.29 181.421 69.22 181.321 69.18C180.581 68.84 179.981 68.54 179.521 68.28C179.061 68 178.561 67.63 178.021 67.17C177.481 66.71 177.071 66.16 176.791 65.52C176.531 64.88 176.401 64.15 176.401 63.33C176.401 61.61 177.031 60.23 178.291 59.19C179.571 58.15 181.261 57.63 183.361 57.63C185.261 57.63 186.901 57.96 188.281 58.62V62.28C186.781 61.38 185.181 60.93 183.481 60.93C182.541 60.93 181.801 61.14 181.261 61.56C180.741 61.98 180.481 62.52 180.481 63.18C180.481 63.84 180.761 64.39 181.321 64.83C181.901 65.25 182.761 65.72 183.901 66.24C184.701 66.6 185.351 66.92 185.851 67.2C186.351 67.46 186.891 67.83 187.471 68.31C188.071 68.79 188.511 69.37 188.791 70.05C189.091 70.71 189.241 71.47 189.241 72.33ZM203.418 77.34C202.358 77.96 201.038 78.27 199.458 78.27C197.118 78.27 195.218 77.53 193.758 76.05C192.318 74.57 191.598 72.7 191.598 70.44C191.618 68.22 192.338 66.35 193.758 64.83C195.198 63.31 197.158 62.55 199.638 62.55C201.118 62.55 202.378 62.83 203.418 63.39V66.57C202.418 65.93 201.278 65.61 199.998 65.61C198.598 65.61 197.468 66.05 196.608 66.93C195.748 67.81 195.308 68.98 195.288 70.44C195.328 71.88 195.758 73.04 196.578 73.92C197.418 74.8 198.548 75.24 199.968 75.24C201.208 75.24 202.358 74.9 203.418 74.22V77.34ZM210.1 78H206.47L206.5 62.79H210.1V65.49C210.8 63.61 212.08 62.67 213.94 62.67C214.36 62.67 214.7 62.7 214.96 62.76V66.24C214.5 66.04 213.99 65.94 213.43 65.94C212.45 65.94 211.65 66.34 211.03 67.14C210.41 67.94 210.1 68.94 210.1 70.14V78ZM220.826 78H217.226V62.79H220.826V78ZM221.186 58.23C221.186 58.85 220.976 59.37 220.556 59.79C220.136 60.21 219.626 60.42 219.026 60.42C218.426 60.42 217.916 60.21 217.496 59.79C217.076 59.37 216.866 58.85 216.866 58.23C216.866 57.63 217.076 57.12 217.496 56.7C217.916 56.28 218.426 56.07 219.026 56.07C219.626 56.07 220.136 56.28 220.556 56.7C220.976 57.12 221.186 57.63 221.186 58.23ZM228.469 83.73H224.869V62.79H228.469V65.13C229.549 63.43 231.099 62.58 233.119 62.58C235.099 62.58 236.669 63.29 237.829 64.71C239.009 66.13 239.599 68 239.599 70.32C239.599 72.6 239.009 74.49 237.829 75.99C236.669 77.47 235.089 78.21 233.089 78.21C231.049 78.21 229.509 77.38 228.469 75.72V83.73ZM229.609 66.81C228.849 67.59 228.469 68.75 228.469 70.29C228.469 71.83 228.839 73.02 229.579 73.86C230.319 74.7 231.209 75.12 232.249 75.12C233.329 75.12 234.209 74.71 234.889 73.89C235.569 73.05 235.909 71.88 235.909 70.38C235.909 68.88 235.569 67.72 234.889 66.9C234.209 66.06 233.349 65.64 232.309 65.64C231.269 65.64 230.369 66.03 229.609 66.81ZM251.082 77.64C250.382 77.98 249.482 78.15 248.382 78.15C245.102 78.15 243.462 76.49 243.462 73.17V65.49H241.182V62.79H243.462V59.13H247.062V62.79H250.842V65.49H247.062V73.23C247.062 73.87 247.232 74.36 247.572 74.7C247.912 75.02 248.382 75.18 248.982 75.18C249.742 75.18 250.442 74.97 251.082 74.55V77.64Z" fill="#333333" fill-opacity="0.75"/>
<path d="M56 49V89H96V49H56ZM77.7679 80.1964C77.7679 84.0893 75.4821 85.8661 72.1518 85.8661C69.1429 85.8661 67.4018 84.3125 66.5089 82.4286L69.5714 80.5804C70.1607 81.625 70.6964 82.5089 71.9911 82.5089C73.2232 82.5089 74.0089 82.0268 74.0089 80.1429V67.3661H77.7679V80.1964ZM86.6607 85.8661C83.1696 85.8661 80.9107 84.2054 79.8125 82.0268L82.875 80.2589C83.6786 81.5714 84.7321 82.5446 86.5804 82.5446C88.1339 82.5446 89.1339 81.7679 89.1339 80.6875C89.1339 79.4018 88.1161 78.9464 86.3929 78.1875L85.4554 77.7857C82.7411 76.6339 80.9464 75.1786 80.9464 72.1161C80.9464 69.2946 83.0982 67.1518 86.4464 67.1518C88.8393 67.1518 90.5536 67.9821 91.7857 70.1607L88.8571 72.0357C88.2143 70.8839 87.5179 70.4286 86.4375 70.4286C85.3393 70.4286 84.6429 71.125 84.6429 72.0357C84.6429 73.1607 85.3393 73.6161 86.9554 74.3214L87.8929 74.7232C91.0893 76.0893 92.8839 77.4911 92.8839 80.6339C92.8839 84.0089 90.2232 85.8661 86.6607 85.8661Z" fill="#EED818"/>
<defs>
<filter id="filter0_d_374_247" x="0" y="0" width="308" height="138" filterUnits="userSpaceOnUse" color-interpolation-filters="sRGB">
<feFlood flood-opacity="0" result="BackgroundImageFix"/>
<feColorMatrix in="SourceAlpha" type="matrix" values="0 0 0 0 0 0 0 0 0 0 0 0 0 0 0 0 0 0 127 0" result="hardAlpha"/>
<feMorphology radius="4" operator="dilate" in="SourceAlpha" result="effect1_dropShadow_374_247"/>
<feOffset/>
<feGaussianBlur stdDeviation="12.5"/>
<feComposite in2="hardAlpha" operator="out"/>
<feColorMatrix type="matrix" values="0 0 0 0 0.2 0 0 0 0 0.2 0 0 0 0 0.2 0 0 0 0.25 0"/>
<feBlend mode="normal" in2="BackgroundImageFix" result="effect1_dropShadow_374_247"/>
<feBlend mode="normal" in="SourceGraphic" in2="effect1_dropShadow_374_247" result="shape"/>
</filter>
</defs>
</svg>
