<svg width="24" height="24" viewBox="0 0 42 42" fill="none" xmlns="http://www.w3.org/2000/svg">
<path d="M5.96875 36V36.5H6.46875H12.6937H12.7031H13.2031V36V15.9562V15.4562H12.7031H6.46875H5.96875V15.9562V36ZM36.0281 36.5H36.5281V36V25.0125C36.5281 22.3012 36.2395 19.7865 35.0776 17.9442C33.8825 16.0492 31.8298 14.9594 28.5563 14.9594C26.0929 14.9594 24.2269 15.9938 23.075 17.2545V15.9562V15.4562H22.575H16.6031H16.1031V15.9562V36V36.5H16.6031H22.8281H23.3281V36V26.0813C23.3281 24.7827 23.4562 23.6086 23.9198 22.7685C24.1451 22.3603 24.4477 22.0352 24.8579 21.8082C25.271 21.5797 25.8228 21.4344 26.5687 21.4344C27.2855 21.4344 27.7803 21.6014 28.1322 21.8477C28.4853 22.0947 28.7375 22.4515 28.9162 22.904C29.285 23.8376 29.3031 25.0658 29.3031 26.25V36V36.5H29.8031H36.0281ZM2.99062 0.5H39C40.3698 0.5 41.5 1.63146 41.5 3.02813V38.9719C41.5 40.3685 40.3698 41.5 39 41.5H2.99062C1.62283 41.5 0.5 40.3706 0.5 38.9719V3.02813C0.5 1.62942 1.62283 0.5 2.99062 0.5ZM5.47188 9.60938C5.47188 11.8722 7.30739 13.7188 9.58125 13.7188C11.8543 13.7188 13.6906 11.8824 13.6906 9.60938C13.6906 7.34573 11.8449 5.5 9.58125 5.5C7.30739 5.5 5.47188 7.34658 5.47188 9.60938Z" fill="#0073B1" stroke="#0073B1"/>
</svg>
