<svg width="2478" height="1600" viewBox="0 0 2478 1600" fill="none" xmlns="http://www.w3.org/2000/svg">
<mask id="mask0_507_2229" style="mask-type:luminance" maskUnits="userSpaceOnUse" x="-525" y="-528" width="3003" height="3551">
<path d="M455.513 3022.13L2477.4 165.22L1497.89 -528L-524 2328.91L455.513 3022.13Z" fill="white"/>
</mask>
<g mask="url(#mask0_507_2229)">
<mask id="mask1_507_2229" style="mask-type:luminance" maskUnits="userSpaceOnUse" x="-525" y="-528" width="3003" height="3551">
<path d="M455.513 3022.13L2477.4 165.22L1497.89 -528L-524 2328.91L455.513 3022.13Z" fill="white"/>
<path d="M1325.9 584.878C1324.1 583.605 1321.8 583.194 1319.5 583.737C1317.21 584.28 1315.11 585.732 1313.66 587.773C1312.22 589.815 1311.55 592.279 1311.8 594.623C1312.05 596.968 1313.2 599 1315 600.274C1316.8 601.548 1319.1 601.959 1321.4 601.416C1323.69 600.873 1325.79 599.421 1327.24 597.379C1328.68 595.338 1329.35 592.874 1329.1 590.529C1328.85 588.185 1327.7 586.152 1325.9 584.878ZM1380.12 623.253C1378.32 621.979 1376.02 621.569 1373.73 622.112C1371.43 622.654 1369.33 624.106 1367.89 626.148C1366.44 628.19 1365.77 630.654 1366.02 632.998C1366.27 635.342 1367.43 637.375 1369.23 638.649C1371.03 639.923 1373.33 640.333 1375.62 639.79C1377.91 639.247 1380.02 637.796 1381.46 635.754C1382.9 633.712 1383.58 631.248 1383.32 628.904C1383.07 626.56 1381.92 624.527 1380.12 623.253ZM1587.06 215.861C1586.17 215.23 1585.14 214.804 1584.05 214.608C1582.95 214.413 1581.8 214.45 1580.66 214.719C1579.53 214.988 1578.43 215.483 1577.43 216.175C1576.42 216.868 1575.54 217.744 1574.82 218.755C1574.11 219.766 1573.58 220.891 1573.26 222.067C1572.94 223.242 1572.84 224.444 1572.96 225.605C1573.08 226.766 1573.43 227.863 1573.98 228.832C1574.53 229.802 1575.27 230.625 1576.16 231.256C1577.05 231.887 1578.08 232.312 1579.18 232.508C1580.27 232.704 1581.42 232.667 1582.56 232.398C1583.69 232.129 1584.79 231.634 1585.8 230.942C1586.8 230.249 1587.68 229.372 1588.4 228.361C1589.11 227.35 1589.65 226.225 1589.97 225.05C1590.29 223.875 1590.39 222.672 1590.26 221.511C1590.14 220.351 1589.79 219.254 1589.24 218.285C1588.69 217.315 1587.95 216.491 1587.06 215.861Z" fill="black"/>
<path d="M1379.38 1084.27C1377.58 1082.99 1375.28 1082.58 1372.98 1083.13C1370.69 1083.67 1368.59 1085.12 1367.14 1087.16C1365.7 1089.2 1365.03 1091.67 1365.28 1094.01C1365.53 1096.36 1366.68 1098.39 1368.48 1099.66C1370.28 1100.94 1372.58 1101.35 1374.88 1100.8C1377.17 1100.26 1379.27 1098.81 1380.72 1096.77C1382.16 1094.73 1382.83 1092.26 1382.58 1089.92C1382.33 1087.57 1381.18 1085.54 1379.38 1084.27ZM1629.84 615.371C1628.95 614.741 1627.93 614.315 1626.83 614.119C1625.73 613.923 1624.59 613.961 1623.45 614.23C1622.31 614.498 1621.21 614.993 1620.21 615.686C1619.21 616.378 1618.32 617.255 1617.61 618.266C1616.89 619.277 1616.36 620.402 1616.04 621.577C1615.72 622.753 1615.62 623.955 1615.74 625.116C1615.87 626.277 1616.22 627.373 1616.77 628.343C1617.31 629.312 1618.06 630.136 1618.95 630.767C1619.84 631.398 1620.86 631.823 1621.96 632.019C1623.06 632.215 1624.21 632.177 1625.34 631.908C1626.48 631.64 1627.58 631.145 1628.58 630.452C1629.58 629.76 1630.47 628.883 1631.18 627.872C1631.9 626.861 1632.43 625.736 1632.75 624.561C1633.07 623.385 1633.17 622.183 1633.05 621.022C1632.92 619.861 1632.58 618.765 1632.03 617.795C1631.48 616.826 1630.73 616.002 1629.84 615.371ZM1445.04 761.506C1444.15 760.875 1443.13 760.449 1442.03 760.253C1440.93 760.058 1439.78 760.095 1438.65 760.364C1437.51 760.633 1436.41 761.128 1435.41 761.82C1434.4 762.513 1433.52 763.389 1432.81 764.4C1432.09 765.411 1431.56 766.536 1431.24 767.712C1430.92 768.887 1430.82 770.089 1430.94 771.25C1431.07 772.411 1431.41 773.508 1431.96 774.477C1432.51 775.447 1433.25 776.27 1434.14 776.901C1435.04 777.532 1436.06 777.957 1437.16 778.153C1438.25 778.349 1439.4 778.312 1440.54 778.043C1441.67 777.774 1442.78 777.279 1443.78 776.587C1444.78 775.894 1445.66 775.017 1446.38 774.006C1447.09 772.995 1447.63 771.87 1447.95 770.695C1448.27 769.52 1448.37 768.317 1448.24 767.156C1448.12 765.996 1447.77 764.899 1447.22 763.93C1446.67 762.96 1445.93 762.136 1445.04 761.506ZM1706.2 392.488C1704.4 391.214 1702.1 390.803 1699.81 391.346C1697.51 391.889 1695.41 393.341 1693.97 395.382C1692.52 397.424 1691.85 399.888 1692.1 402.232C1692.35 404.577 1693.51 406.609 1695.31 407.883C1697.11 409.157 1699.41 409.568 1701.7 409.025C1703.99 408.482 1706.09 407.03 1707.54 404.988C1708.98 402.947 1709.66 400.483 1709.4 398.138C1709.15 395.794 1708 393.761 1706.2 392.488ZM1325.16 1045.89C1323.36 1044.62 1321.06 1044.21 1318.76 1044.75C1316.47 1045.29 1314.37 1046.75 1312.92 1048.79C1311.48 1050.83 1310.81 1053.29 1311.06 1055.64C1311.31 1057.98 1312.46 1060.01 1314.26 1061.29C1316.06 1062.56 1318.36 1062.97 1320.65 1062.43C1322.95 1061.89 1325.05 1060.43 1326.49 1058.39C1327.94 1056.35 1328.61 1053.89 1328.36 1051.54C1328.11 1049.2 1326.96 1047.17 1325.16 1045.89ZM1836.78 207.979C1835.89 207.348 1834.87 206.922 1833.77 206.727C1832.67 206.531 1831.52 206.568 1830.39 206.837C1829.25 207.106 1828.15 207.601 1827.15 208.293C1826.15 208.986 1825.26 209.862 1824.55 210.873C1823.83 211.884 1823.3 213.009 1822.98 214.185C1822.66 215.36 1822.56 216.562 1822.68 217.723C1822.81 218.884 1823.15 219.981 1823.7 220.95C1824.25 221.92 1824.99 222.743 1825.89 223.374C1826.78 224.005 1827.8 224.43 1828.9 224.626C1829.99 224.822 1831.14 224.785 1832.28 224.516C1833.42 224.247 1834.52 223.752 1835.52 223.06C1836.52 222.367 1837.4 221.49 1838.12 220.479C1838.84 219.469 1839.37 218.343 1839.69 217.168C1840.01 215.993 1840.11 214.79 1839.98 213.629C1839.86 212.469 1839.51 211.372 1838.96 210.403C1838.41 209.433 1837.67 208.609 1836.78 207.979Z" fill="black"/>
<path d="M782.183 1123.16C780.384 1121.89 778.083 1121.47 775.789 1122.02C773.495 1122.56 771.394 1124.01 769.949 1126.05C768.504 1128.1 767.833 1130.56 768.084 1132.9C768.336 1135.25 769.488 1137.28 771.288 1138.55C773.088 1139.83 775.388 1140.24 777.682 1139.7C779.977 1139.15 782.077 1137.7 783.522 1135.66C784.967 1133.62 785.638 1131.15 785.387 1128.81C785.136 1126.47 783.983 1124.43 782.183 1123.16ZM684.434 1146.29C682.634 1145.01 680.334 1144.6 678.039 1145.15C675.745 1145.69 673.644 1147.14 672.199 1149.18C670.754 1151.22 670.084 1153.69 670.335 1156.03C670.586 1158.38 671.738 1160.41 673.538 1161.68C675.338 1162.96 677.638 1163.37 679.932 1162.82C682.227 1162.28 684.327 1160.83 685.772 1158.79C687.217 1156.75 687.888 1154.28 687.637 1151.94C687.386 1149.59 686.233 1147.56 684.434 1146.29ZM1184.62 669.51C1182.82 668.236 1180.52 667.825 1178.23 668.368C1175.93 668.911 1173.83 670.363 1172.39 672.405C1170.94 674.446 1170.27 676.91 1170.52 679.254C1170.77 681.599 1171.93 683.632 1173.73 684.905C1175.53 686.179 1177.83 686.59 1180.12 686.047C1182.41 685.504 1184.52 684.052 1185.96 682.011C1187.4 679.969 1188.08 677.505 1187.82 675.161C1187.57 672.816 1186.42 670.784 1184.62 669.51ZM923.46 1038.53C921.66 1037.25 919.36 1036.84 917.066 1037.39C914.771 1037.93 912.67 1039.38 911.226 1041.42C909.781 1043.46 909.11 1045.93 909.361 1048.27C909.612 1050.62 910.764 1052.65 912.564 1053.92C914.364 1055.2 916.664 1055.61 918.959 1055.06C921.253 1054.52 923.354 1053.07 924.799 1051.03C926.244 1048.99 926.914 1046.52 926.663 1044.18C926.412 1041.83 925.26 1039.8 923.46 1038.53ZM1358.73 423.498C1357.84 422.867 1356.81 422.442 1355.72 422.246C1354.62 422.05 1353.47 422.087 1352.33 422.356C1351.2 422.625 1350.1 423.12 1349.1 423.812C1348.09 424.505 1347.21 425.382 1346.49 426.393C1345.78 427.403 1345.25 428.529 1344.93 429.704C1344.61 430.879 1344.51 432.082 1344.63 433.243C1344.75 434.403 1345.1 435.5 1345.65 436.469C1346.2 437.439 1346.94 438.263 1347.83 438.893C1348.72 439.524 1349.75 439.95 1350.84 440.145C1351.94 440.341 1353.09 440.304 1354.23 440.035C1355.36 439.766 1356.46 439.271 1357.47 438.579C1358.47 437.886 1359.35 437.01 1360.07 435.999C1360.78 434.988 1361.32 433.863 1361.64 432.687C1361.96 431.512 1362.06 430.31 1361.93 429.149C1361.81 427.988 1361.46 426.891 1360.91 425.922C1360.36 424.952 1359.62 424.129 1358.73 423.498ZM543.157 1230.92C541.357 1229.64 539.057 1229.23 536.762 1229.78C534.468 1230.32 532.367 1231.77 530.922 1233.81C529.477 1235.86 528.807 1238.32 529.058 1240.66C529.309 1243.01 530.461 1245.04 532.261 1246.31C534.061 1247.59 536.361 1248 538.656 1247.46C540.95 1246.91 543.051 1245.46 544.496 1243.42C545.94 1241.38 546.611 1238.91 546.36 1236.57C546.109 1234.23 544.957 1232.19 543.157 1230.92ZM1054.04 854.019C1052.24 852.745 1049.94 852.334 1047.65 852.877C1045.35 853.42 1043.25 854.872 1041.81 856.914C1040.36 858.955 1039.69 861.419 1039.94 863.764C1040.19 866.108 1041.34 868.141 1043.14 869.414C1044.94 870.688 1047.24 871.099 1049.54 870.556C1051.83 870.013 1053.93 868.561 1055.38 866.52C1056.82 864.478 1057.49 862.014 1057.24 859.67C1056.99 857.325 1055.84 855.293 1054.04 854.019Z" fill="black"/>
<path d="M1663.42 -7.02318C1661.62 -8.29703 1659.32 -8.70766 1657.02 -8.16478C1654.73 -7.62191 1652.63 -6.16999 1651.18 -4.12841C1649.74 -2.08683 1649.07 0.377193 1649.32 2.72155C1649.57 5.06591 1650.72 7.09858 1652.52 8.37242C1654.32 9.64627 1656.62 10.0569 1658.91 9.51402C1661.21 8.97115 1663.31 7.51923 1664.75 5.47765C1666.2 3.43607 1666.87 0.972047 1666.62 -1.37231C1666.37 -3.71667 1665.22 -5.74934 1663.42 -7.02318Z" fill="black"/>
<path d="M1226.66 1530.03C1224.86 1528.76 1222.56 1528.35 1220.27 1528.89C1217.98 1529.44 1215.87 1530.89 1214.43 1532.93C1212.98 1534.97 1212.31 1537.43 1212.56 1539.78C1212.82 1542.12 1213.97 1544.16 1215.77 1545.43C1217.57 1546.7 1219.87 1547.11 1222.16 1546.57C1224.46 1546.03 1226.56 1544.58 1228 1542.54C1229.45 1540.49 1230.12 1538.03 1229.87 1535.69C1229.62 1533.34 1228.46 1531.31 1226.66 1530.03ZM1574.88 1038.01C1573.08 1036.74 1570.78 1036.33 1568.48 1036.87C1566.19 1037.41 1564.09 1038.86 1562.64 1040.91C1561.2 1042.95 1560.53 1045.41 1560.78 1047.76C1561.03 1050.1 1562.18 1052.13 1563.98 1053.41C1565.78 1054.68 1568.08 1055.09 1570.38 1054.55C1572.67 1054 1574.77 1052.55 1576.22 1050.51C1577.66 1048.47 1578.33 1046.01 1578.08 1043.66C1577.83 1041.32 1576.68 1039.28 1574.88 1038.01ZM1716.9 492.365C1715.1 491.091 1712.8 490.681 1710.5 491.224C1708.21 491.767 1706.11 493.218 1704.66 495.26C1703.22 497.302 1702.55 499.766 1702.8 502.11C1703.05 504.454 1704.2 506.487 1706 507.761C1707.8 509.035 1710.1 509.445 1712.4 508.902C1714.69 508.36 1716.79 506.908 1718.24 504.866C1719.68 502.824 1720.35 500.361 1720.1 498.016C1719.85 495.672 1718.7 493.639 1716.9 492.365ZM1651.24 815.127C1649.44 813.853 1647.14 813.442 1644.84 813.985C1642.55 814.528 1640.45 815.98 1639 818.021C1637.56 820.063 1636.89 822.527 1637.14 824.871C1637.39 827.216 1638.54 829.248 1640.34 830.522C1642.14 831.796 1644.44 832.207 1646.73 831.664C1649.03 831.121 1651.13 829.669 1652.57 827.627C1654.02 825.586 1654.69 823.122 1654.44 820.778C1654.19 818.433 1653.04 816.4 1651.24 815.127ZM1280.89 1568.41C1279.09 1567.14 1276.79 1566.72 1274.49 1567.27C1272.2 1567.81 1270.1 1569.26 1268.65 1571.3C1267.21 1573.35 1266.54 1575.81 1266.79 1578.15C1267.04 1580.5 1268.19 1582.53 1269.99 1583.8C1271.79 1585.08 1274.09 1585.49 1276.39 1584.95C1278.68 1584.4 1280.78 1582.95 1282.23 1580.91C1283.67 1578.87 1284.34 1576.4 1284.09 1574.06C1283.84 1571.72 1282.69 1569.68 1280.89 1568.41ZM1248.8 1268.78C1247 1267.5 1244.7 1267.09 1242.4 1267.63C1240.11 1268.18 1238.01 1269.63 1236.56 1271.67C1235.12 1273.71 1234.45 1276.18 1234.7 1278.52C1234.95 1280.86 1236.1 1282.9 1237.9 1284.17C1239.7 1285.45 1242 1285.86 1244.3 1285.31C1246.59 1284.77 1248.69 1283.32 1250.14 1281.28C1251.58 1279.24 1252.25 1276.77 1252 1274.43C1251.75 1272.08 1250.6 1270.05 1248.8 1268.78ZM1172.44 1491.66C1170.64 1490.39 1168.34 1489.98 1166.05 1490.52C1163.75 1491.06 1161.65 1492.51 1160.21 1494.55C1158.76 1496.6 1158.09 1499.06 1158.34 1501.4C1158.59 1503.75 1159.75 1505.78 1161.55 1507.06C1163.35 1508.33 1165.65 1508.74 1167.94 1508.2C1170.23 1507.65 1172.33 1506.2 1173.78 1504.16C1175.22 1502.12 1175.9 1499.65 1175.64 1497.31C1175.39 1494.97 1174.24 1492.93 1172.44 1491.66Z" fill="black"/>
<path d="M1021.95 554.386C1020.15 553.112 1017.85 552.701 1015.56 553.244C1013.26 553.787 1011.16 555.239 1009.72 557.281C1008.27 559.322 1007.6 561.786 1007.85 564.13C1008.1 566.475 1009.26 568.508 1011.06 569.781C1012.86 571.055 1015.16 571.466 1017.45 570.923C1019.75 570.38 1021.85 568.928 1023.29 566.887C1024.74 564.845 1025.41 562.381 1025.16 560.037C1024.9 557.692 1023.75 555.66 1021.95 554.386ZM1478.61 139.111C1477.72 138.48 1476.7 138.055 1475.6 137.859C1474.5 137.663 1473.35 137.701 1472.22 137.97C1471.08 138.238 1469.98 138.733 1468.98 139.426C1467.98 140.118 1467.09 140.995 1466.38 142.006C1465.66 143.017 1465.13 144.142 1464.81 145.317C1464.49 146.493 1464.39 147.695 1464.51 148.856C1464.64 150.017 1464.99 151.113 1465.53 152.083C1466.08 153.052 1466.83 153.876 1467.72 154.507C1468.61 155.138 1469.63 155.563 1470.73 155.759C1471.83 155.955 1472.98 155.917 1474.11 155.648C1475.25 155.38 1476.35 154.885 1477.35 154.192C1478.35 153.5 1479.24 152.623 1479.95 151.612C1480.67 150.601 1481.2 149.476 1481.52 148.301C1481.84 147.125 1481.94 145.923 1481.82 144.762C1481.69 143.601 1481.34 142.505 1480.8 141.535C1480.25 140.566 1479.5 139.742 1478.61 139.111ZM1642.02 -206.778C1640.22 -208.052 1637.92 -208.463 1635.63 -207.92C1633.34 -207.377 1631.23 -205.925 1629.79 -203.884C1628.34 -201.842 1627.67 -199.378 1627.93 -197.034C1628.18 -194.689 1629.33 -192.657 1631.13 -191.383C1632.93 -190.109 1635.23 -189.698 1637.52 -190.241C1639.82 -190.784 1641.92 -192.236 1643.36 -194.278C1644.81 -196.319 1645.48 -198.783 1645.23 -201.128C1644.98 -203.472 1643.82 -205.505 1642.02 -206.778ZM1065.48 492.883C1064.59 492.252 1063.56 491.827 1062.47 491.631C1061.37 491.435 1060.22 491.472 1059.08 491.741C1057.95 492.01 1056.85 492.505 1055.85 493.197C1054.84 493.89 1053.96 494.767 1053.24 495.778C1052.53 496.788 1052 497.914 1051.68 499.089C1051.36 500.264 1051.26 501.467 1051.38 502.627C1051.5 503.788 1051.85 504.885 1052.4 505.854C1052.95 506.824 1053.69 507.648 1054.58 508.278C1055.47 508.909 1056.5 509.335 1057.6 509.53C1058.69 509.726 1059.84 509.689 1060.98 509.42C1062.11 509.151 1063.21 508.656 1064.22 507.964C1065.22 507.271 1066.1 506.395 1066.82 505.384C1067.53 504.373 1068.07 503.248 1068.39 502.072C1068.71 500.897 1068.81 499.694 1068.68 498.534C1068.56 497.373 1068.21 496.276 1067.66 495.307C1067.11 494.337 1066.37 493.514 1065.48 492.883ZM1228.89 146.993C1227.09 145.719 1224.79 145.309 1222.5 145.852C1220.2 146.394 1218.1 147.846 1216.66 149.888C1215.21 151.929 1214.54 154.393 1214.79 156.738C1215.04 159.082 1216.19 161.115 1217.99 162.389C1219.79 163.663 1222.09 164.073 1224.39 163.53C1226.68 162.987 1228.78 161.536 1230.23 159.494C1231.67 157.452 1232.34 154.988 1232.09 152.644C1231.84 150.3 1230.69 148.267 1228.89 146.993Z" fill="black"/>
<path d="M1759.68 891.876C1757.88 890.602 1755.58 890.192 1753.29 890.734C1750.99 891.277 1748.89 892.729 1747.45 894.771C1746 896.812 1745.33 899.276 1745.58 901.621C1745.83 903.965 1746.99 905.998 1748.79 907.272C1750.59 908.545 1752.89 908.956 1755.18 908.413C1757.47 907.87 1759.58 906.418 1761.02 904.377C1762.47 902.335 1763.14 899.871 1762.88 897.527C1762.63 895.183 1761.48 893.15 1759.68 891.876ZM1977.32 584.361C1975.52 583.087 1973.22 582.677 1970.92 583.219C1968.63 583.762 1966.53 585.214 1965.08 587.256C1963.64 589.297 1962.97 591.761 1963.22 594.106C1963.47 596.45 1964.62 598.483 1966.42 599.757C1968.22 601.03 1970.52 601.441 1972.81 600.898C1975.11 600.355 1977.21 598.903 1978.65 596.862C1980.1 594.82 1980.77 592.356 1980.52 590.012C1980.27 587.668 1979.12 585.635 1977.32 584.361ZM2053.67 361.477C2052.78 360.847 2051.76 360.421 2050.66 360.225C2049.56 360.029 2048.42 360.067 2047.28 360.336C2046.14 360.605 2045.04 361.099 2044.04 361.792C2043.04 362.484 2042.15 363.361 2041.44 364.372C2040.72 365.383 2040.19 366.508 2039.87 367.684C2039.55 368.859 2039.45 370.061 2039.57 371.222C2039.7 372.383 2040.05 373.479 2040.6 374.449C2041.14 375.418 2041.89 376.242 2042.78 376.873C2043.67 377.504 2044.69 377.929 2045.79 378.125C2046.89 378.321 2048.04 378.283 2049.17 378.015C2050.31 377.746 2051.41 377.251 2052.41 376.558C2053.41 375.866 2054.3 374.989 2055.01 373.978C2055.73 372.967 2056.26 371.842 2056.58 370.667C2056.9 369.491 2057 368.289 2056.88 367.128C2056.75 365.967 2056.41 364.871 2055.86 363.901C2055.31 362.932 2054.56 362.108 2053.67 361.477ZM2151.42 338.349C2149.62 337.075 2147.32 336.664 2145.03 337.207C2142.73 337.75 2140.63 339.202 2139.19 341.244C2137.74 343.285 2137.07 345.749 2137.32 348.094C2137.58 350.438 2138.73 352.471 2140.53 353.745C2142.33 355.018 2144.63 355.429 2146.92 354.886C2149.22 354.343 2151.32 352.891 2152.76 350.85C2154.21 348.808 2154.88 346.344 2154.63 344C2154.38 341.656 2153.22 339.623 2151.42 338.349Z" fill="black"/>
</mask>
<g mask="url(#mask1_507_2229)">
<path d="M1548.78 384.939L1559.48 484.817L1515.95 546.32L1418.2 569.448L1374.67 630.951M1548.78 384.939L1592.31 323.436L1635.83 261.933L1679.36 200.43L1722.89 138.927M1548.78 384.939L1505.25 446.442L1461.73 507.945L1363.98 531.073L1320.45 592.576M1722.89 138.927L1625.14 162.055L1581.61 223.558M1722.89 138.927L1766.41 77.424L1809.94 15.921L1853.47 -45.5819L1896.99 -107.085L1940.52 -168.588L1984.05 -230.091" stroke="#CCAC00" stroke-width="5.17"/>
<path d="M1331.33 577.2C1327.74 574.656 1323.14 573.836 1318.56 574.92C1313.98 576.005 1309.78 578.905 1306.89 582.983C1304.01 587.06 1302.67 591.982 1303.17 596.665C1303.67 601.347 1305.97 605.408 1309.57 607.952C1313.16 610.496 1317.76 611.317 1322.34 610.232C1326.92 609.148 1331.12 606.248 1334.01 602.17C1336.89 598.092 1338.23 593.17 1337.73 588.488C1337.23 583.805 1334.93 579.745 1331.33 577.2ZM1385.55 615.575C1381.96 613.031 1377.37 612.211 1372.78 613.295C1368.2 614.379 1364 617.279 1361.12 621.357C1358.23 625.435 1356.89 630.357 1357.39 635.039C1357.89 639.722 1360.2 643.782 1363.79 646.327C1367.39 648.871 1371.98 649.691 1376.56 648.607C1381.15 647.523 1385.34 644.623 1388.23 640.545C1391.11 636.467 1392.45 631.545 1391.95 626.862C1391.45 622.18 1389.15 618.12 1385.55 615.575ZM1592.49 208.183C1588.9 205.638 1584.3 204.818 1579.72 205.902C1575.14 206.987 1570.94 209.887 1568.06 213.965C1565.17 218.043 1563.83 222.964 1564.33 227.647C1564.83 232.329 1567.13 236.39 1570.73 238.934C1574.32 241.478 1578.92 242.299 1583.5 241.214C1588.08 240.13 1592.28 237.23 1595.17 233.152C1598.05 229.074 1599.39 224.152 1598.89 219.47C1598.39 214.787 1596.09 210.727 1592.49 208.183Z" fill="#CCAC00"/>
<path d="M1657.23 461.688L1667.92 561.566L1624.4 623.069M1657.23 461.688L1646.53 361.811L1690.06 300.308M1657.23 461.688L1613.7 523.191L1570.17 584.694M1570.17 584.694L1526.65 646.197L1483.12 707.7L1439.59 769.203M1570.17 584.694L1580.87 684.572L1537.34 746.075L1493.81 807.578L1450.29 869.081L1460.98 968.959M1690.06 300.308L1700.75 400.185M1690.06 300.308L1733.58 238.805L1777.11 177.302L1820.64 115.799L1864.16 54.2957M1460.98 968.959L1363.23 992.087L1319.71 1053.59M1460.98 968.959L1417.46 1030.46L1373.93 1091.96M1864.16 54.2957L1874.86 154.173L1831.33 215.676M1864.16 54.2957L1907.69 -7.20728L1951.22 -68.7103L1994.74 -130.213L2038.27 -191.716" stroke="#CCAC00" stroke-width="5.17"/>
<path d="M1384.81 1076.59C1381.22 1074.04 1376.62 1073.22 1372.04 1074.31C1367.46 1075.39 1363.26 1078.29 1360.38 1082.37C1357.49 1086.45 1356.15 1091.37 1356.65 1096.05C1357.15 1100.74 1359.45 1104.8 1363.05 1107.34C1366.64 1109.88 1371.24 1110.71 1375.82 1109.62C1380.41 1108.54 1384.6 1105.64 1387.49 1101.56C1390.37 1097.48 1391.71 1092.56 1391.21 1087.88C1390.71 1083.19 1388.41 1079.13 1384.81 1076.59ZM1635.28 607.693C1631.68 605.149 1627.09 604.329 1622.51 605.413C1617.92 606.497 1613.73 609.397 1610.84 613.475C1607.95 617.553 1606.61 622.475 1607.12 627.158C1607.62 631.84 1609.92 635.9 1613.51 638.445C1617.11 640.989 1621.7 641.809 1626.29 640.725C1630.87 639.641 1635.07 636.741 1637.95 632.663C1640.84 628.585 1642.18 623.663 1641.68 618.98C1641.17 614.298 1638.87 610.238 1635.28 607.693ZM1450.47 753.828C1446.88 751.283 1442.28 750.463 1437.7 751.547C1433.12 752.632 1428.92 755.532 1426.04 759.61C1423.15 763.687 1421.81 768.609 1422.31 773.292C1422.81 777.974 1425.12 782.035 1428.71 784.579C1432.31 787.123 1436.9 787.944 1441.48 786.859C1446.07 785.775 1450.26 782.875 1453.15 778.797C1456.03 774.719 1457.37 769.797 1456.87 765.115C1456.37 760.432 1454.07 756.372 1450.47 753.828ZM1711.64 384.81C1708.04 382.265 1703.45 381.445 1698.86 382.529C1694.28 383.614 1690.08 386.514 1687.2 390.592C1684.31 394.67 1682.97 399.591 1683.47 404.274C1683.98 408.957 1686.28 413.017 1689.87 415.561C1693.47 418.105 1698.06 418.926 1702.64 417.841C1707.23 416.757 1711.42 413.857 1714.31 409.779C1717.2 405.701 1718.54 400.779 1718.03 396.097C1717.53 391.414 1715.23 387.354 1711.64 384.81ZM1330.59 1038.21C1326.99 1035.67 1322.4 1034.85 1317.82 1035.93C1313.23 1037.02 1309.04 1039.92 1306.15 1044C1303.27 1048.07 1301.93 1053 1302.43 1057.68C1302.93 1062.36 1305.23 1066.42 1308.83 1068.97C1312.42 1071.51 1317.02 1072.33 1321.6 1071.25C1326.18 1070.16 1330.38 1067.26 1333.26 1063.18C1336.15 1059.11 1337.49 1054.18 1336.99 1049.5C1336.49 1044.82 1334.19 1040.76 1330.59 1038.21ZM1842.22 200.301C1838.62 197.756 1834.03 196.936 1829.44 198.02C1824.86 199.105 1820.66 202.005 1817.78 206.083C1814.89 210.161 1813.55 215.082 1814.05 219.765C1814.56 224.448 1816.86 228.508 1820.45 231.052C1824.05 233.596 1828.64 234.417 1833.23 233.332C1837.81 232.248 1842 229.348 1844.89 225.27C1847.78 221.192 1849.12 216.27 1848.61 211.588C1848.11 206.905 1845.81 202.845 1842.22 200.301Z" fill="#CCAC00"/>
<path d="M820.262 1069.35L722.512 1092.48L678.986 1153.99M820.262 1069.35L863.789 1007.85L907.316 946.348M820.262 1069.35L776.736 1130.86M1168.48 577.33L1179.17 677.208M1168.48 577.33L1266.23 554.202L1309.75 492.699L1407.5 469.57L1451.03 408.067L1494.56 346.564L1538.08 285.061M1168.48 577.33L1124.95 638.833L1081.42 700.336L1037.9 761.839M950.843 884.845L961.539 984.723L918.012 1046.23M950.843 884.845L994.37 823.342L1037.9 761.839M950.843 884.845L907.316 946.348M1538.08 285.061L1440.33 308.19L1396.81 369.693L1353.28 431.196M1538.08 285.061L1527.39 185.184L1570.91 123.681L1614.44 62.1776L1712.19 39.0493L1755.72 -22.4537L1799.25 -83.9567L1842.77 -145.46L1886.3 -206.963L1929.83 -268.466M907.316 946.348L809.566 969.476L766.039 1030.98L668.289 1054.11L624.763 1115.61L581.236 1177.11L537.709 1238.62M1037.9 761.839L1048.59 861.717" stroke="#CCAC00" stroke-width="5.17"/>
<path d="M787.617 1115.48C784.022 1112.94 779.427 1112.12 774.844 1113.2C770.262 1114.29 766.066 1117.19 763.179 1121.26C760.293 1125.34 758.954 1130.26 759.455 1134.95C759.957 1139.63 762.258 1143.69 765.854 1146.23C769.449 1148.78 774.043 1149.6 778.626 1148.51C783.209 1147.43 787.405 1144.53 790.291 1140.45C793.177 1136.37 794.517 1131.45 794.015 1126.77C793.514 1122.09 791.212 1118.03 787.617 1115.48ZM689.867 1138.61C686.272 1136.07 681.677 1135.24 677.095 1136.33C672.512 1137.41 668.316 1140.31 665.43 1144.39C662.544 1148.47 661.204 1153.39 661.705 1158.07C662.207 1162.76 664.508 1166.82 668.104 1169.36C671.699 1171.91 676.293 1172.73 680.876 1171.64C685.459 1170.56 689.655 1167.66 692.541 1163.58C695.427 1159.5 696.767 1154.58 696.265 1149.9C695.764 1145.21 693.462 1141.15 689.867 1138.61ZM1190.05 661.832C1186.46 659.287 1181.87 658.467 1177.28 659.552C1172.7 660.636 1168.5 663.536 1165.62 667.614C1162.73 671.692 1161.39 676.613 1161.89 681.296C1162.39 685.979 1164.7 690.039 1168.29 692.583C1171.89 695.128 1176.48 695.948 1181.06 694.864C1185.65 693.779 1189.84 690.879 1192.73 686.801C1195.61 682.723 1196.95 677.802 1196.45 673.119C1195.95 668.436 1193.65 664.376 1190.05 661.832ZM928.894 1030.85C925.298 1028.31 920.704 1027.49 916.121 1028.57C911.538 1029.65 907.342 1032.55 904.456 1036.63C901.57 1040.71 900.231 1045.63 900.732 1050.31C901.234 1055 903.535 1059.06 907.13 1061.6C910.725 1064.15 915.32 1064.97 919.903 1063.88C924.486 1062.8 928.682 1059.9 931.568 1055.82C934.454 1051.74 935.793 1046.82 935.292 1042.14C934.79 1037.45 932.489 1033.39 928.894 1030.85ZM1364.16 415.82C1360.57 413.276 1355.97 412.455 1351.39 413.54C1346.81 414.624 1342.61 417.524 1339.72 421.602C1336.84 425.68 1335.5 430.602 1336 435.284C1336.5 439.967 1338.8 444.027 1342.4 446.571C1345.99 449.116 1350.59 449.936 1355.17 448.852C1359.75 447.767 1363.95 444.867 1366.84 440.789C1369.72 436.711 1371.06 431.79 1370.56 427.107C1370.06 422.424 1367.76 418.364 1364.16 415.82ZM548.59 1223.24C544.995 1220.7 540.401 1219.88 535.818 1220.96C531.235 1222.04 527.039 1224.94 524.153 1229.02C521.267 1233.1 519.927 1238.02 520.429 1242.71C520.93 1247.39 523.232 1251.45 526.827 1253.99C530.422 1256.54 535.017 1257.36 539.599 1256.27C544.182 1255.19 548.378 1252.29 551.264 1248.21C554.15 1244.13 555.49 1239.21 554.989 1234.53C554.487 1229.85 552.186 1225.79 548.59 1223.24ZM1059.47 846.341C1055.88 843.796 1051.28 842.976 1046.7 844.061C1042.12 845.145 1037.92 848.045 1035.04 852.123C1032.15 856.201 1030.81 861.123 1031.31 865.805C1031.81 870.488 1034.12 874.548 1037.71 877.092C1041.31 879.637 1045.9 880.457 1050.48 879.373C1055.07 878.288 1059.26 875.388 1062.15 871.31C1065.03 867.232 1066.37 862.311 1065.87 857.628C1065.37 852.945 1063.07 848.885 1059.47 846.341Z" fill="#CCAC00"/>
<path d="M1875.6 -306.84L1832.08 -245.337L1788.55 -183.834L1745.02 -122.331L1701.49 -60.8283L1657.97 0.674702" stroke="#CCAC00" stroke-width="5.17"/>
<path d="M1668.85 -14.7011C1665.25 -17.2455 1660.66 -18.0657 1656.08 -16.9814C1651.49 -15.897 1647.3 -12.9969 1644.41 -8.91901C1641.53 -4.84111 1640.19 0.0805277 1640.69 4.7632C1641.19 9.44588 1643.49 13.506 1647.09 16.0504C1650.68 18.5948 1655.28 19.415 1659.86 18.3307C1664.44 17.2463 1668.64 14.3462 1671.52 10.2683C1674.41 6.19043 1675.75 1.26879 1675.25 -3.41389C1674.75 -8.09656 1672.45 -12.1567 1668.85 -14.7011Z" fill="#CCAC00"/>
<path d="M1558.73 945.83L1569.43 1045.71M1558.73 945.83L1548.04 845.953L1591.57 784.45L1635.09 722.947L1678.62 661.444L1722.15 599.941L1765.67 538.438M1558.73 945.83L1515.21 1007.33L1471.68 1068.84M1939.78 292.426L1842.03 315.554L1798.5 377.057L1754.98 438.56L1711.45 500.063M1939.78 292.426L1983.31 230.923L2026.83 169.42L2016.14 69.5421L2059.66 8.03906L2103.19 -53.4639L2146.72 -114.967M1939.78 292.426L1896.25 353.929L1852.73 415.432L1809.2 476.935L1765.67 538.438M1765.67 538.438L1776.37 638.315L1732.84 699.818L1689.32 761.321L1645.79 822.824M1471.68 1068.84L1482.38 1168.71L1438.85 1230.22L1395.32 1291.72L1406.02 1391.6L1362.49 1453.1L1318.97 1514.6L1275.44 1576.11M1471.68 1068.84L1428.15 1130.34L1384.63 1191.84M1384.63 1191.84L1286.88 1214.97L1243.35 1276.47M1384.63 1191.84L1341.1 1253.35L1351.8 1353.22M1351.8 1353.22L1254.05 1376.35L1210.52 1437.85L1166.99 1499.36M1351.8 1353.22L1308.27 1414.73L1264.74 1476.23L1221.22 1537.73" stroke="#CCAC00" stroke-width="5.17"/>
<path d="M1232.1 1522.36C1228.5 1519.81 1223.91 1518.99 1219.32 1520.08C1214.74 1521.16 1210.55 1524.06 1207.66 1528.14C1204.77 1532.22 1203.43 1537.14 1203.94 1541.82C1204.44 1546.5 1206.74 1550.56 1210.33 1553.11C1213.93 1555.65 1218.52 1556.47 1223.11 1555.39C1227.69 1554.3 1231.89 1551.4 1234.77 1547.33C1237.66 1543.25 1239 1538.33 1238.5 1533.64C1237.99 1528.96 1235.69 1524.9 1232.1 1522.36ZM1580.31 1030.33C1576.72 1027.79 1572.12 1026.97 1567.54 1028.05C1562.96 1029.14 1558.76 1032.04 1555.87 1036.11C1552.99 1040.19 1551.65 1045.11 1552.15 1049.8C1552.65 1054.48 1554.95 1058.54 1558.55 1061.08C1562.14 1063.63 1566.74 1064.45 1571.32 1063.36C1575.9 1062.28 1580.1 1059.38 1582.99 1055.3C1585.87 1051.22 1587.21 1046.3 1586.71 1041.62C1586.21 1036.94 1583.91 1032.88 1580.31 1030.33ZM1722.33 484.687C1718.74 482.143 1714.14 481.323 1709.56 482.407C1704.98 483.491 1700.78 486.391 1697.89 490.469C1695.01 494.547 1693.67 499.469 1694.17 504.152C1694.67 508.834 1696.97 512.894 1700.57 515.439C1704.16 517.983 1708.76 518.803 1713.34 517.719C1717.92 516.635 1722.12 513.735 1725 509.657C1727.89 505.579 1729.23 500.657 1728.73 495.975C1728.23 491.292 1725.93 487.232 1722.33 484.687ZM1656.67 807.449C1653.07 804.904 1648.48 804.084 1643.9 805.168C1639.31 806.253 1635.12 809.153 1632.23 813.231C1629.35 817.309 1628.01 822.23 1628.51 826.913C1629.01 831.596 1631.31 835.656 1634.91 838.2C1638.5 840.745 1643.1 841.565 1647.68 840.48C1652.26 839.396 1656.46 836.496 1659.34 832.418C1662.23 828.34 1663.57 823.419 1663.07 818.736C1662.57 814.053 1660.26 809.993 1656.67 807.449ZM1286.32 1560.73C1282.73 1558.19 1278.13 1557.37 1273.55 1558.45C1268.97 1559.53 1264.77 1562.44 1261.88 1566.51C1259 1570.59 1257.66 1575.51 1258.16 1580.2C1258.66 1584.88 1260.96 1588.94 1264.56 1591.48C1268.15 1594.03 1272.75 1594.85 1277.33 1593.76C1281.91 1592.68 1286.11 1589.78 1288.99 1585.7C1291.88 1581.62 1293.22 1576.7 1292.72 1572.02C1292.22 1567.34 1289.92 1563.28 1286.32 1560.73ZM1254.23 1261.1C1250.64 1258.55 1246.04 1257.73 1241.46 1258.82C1236.88 1259.9 1232.68 1262.8 1229.79 1266.88C1226.91 1270.96 1225.57 1275.88 1226.07 1280.56C1226.57 1285.24 1228.87 1289.3 1232.47 1291.85C1236.06 1294.39 1240.66 1295.21 1245.24 1294.13C1249.82 1293.05 1254.02 1290.15 1256.91 1286.07C1259.79 1281.99 1261.13 1277.07 1260.63 1272.39C1260.13 1267.7 1257.83 1263.64 1254.23 1261.1ZM1177.87 1483.98C1174.28 1481.44 1169.68 1480.62 1165.1 1481.7C1160.52 1482.79 1156.32 1485.69 1153.44 1489.76C1150.55 1493.84 1149.21 1498.76 1149.71 1503.45C1150.21 1508.13 1152.52 1512.19 1156.11 1514.73C1159.71 1517.28 1164.3 1518.1 1168.88 1517.01C1173.47 1515.93 1177.66 1513.03 1180.55 1508.95C1183.43 1504.87 1184.77 1499.95 1184.27 1495.27C1183.77 1490.59 1181.47 1486.53 1177.87 1483.98Z" fill="#CCAC00"/>
<path d="M1506 -14.5716L1516.69 85.306L1473.16 146.809M1506 -14.5716L1549.52 -76.0746L1647.27 -99.203L1690.8 -160.706L1734.33 -222.209M1506 -14.5716L1462.47 46.9314M1734.33 -222.209L1636.58 -199.081M1734.33 -222.209L1777.85 -283.712L1821.38 -345.215M1342.58 331.318L1244.83 354.446L1147.08 377.575L1103.56 439.078L1060.03 500.581M1342.58 331.318L1386.11 269.815L1429.64 208.312L1418.94 108.434L1462.47 46.9314M1342.58 331.318L1299.06 392.821L1255.53 454.324L1212 515.827L1114.25 538.955L1016.5 562.084M1462.47 46.9314L1364.72 70.0597L1266.97 93.188L1223.44 154.691" stroke="#CCAC00" stroke-width="5.17"/>
<path d="M1027.39 546.708C1023.79 544.163 1019.2 543.343 1014.61 544.428C1010.03 545.512 1005.83 548.412 1002.95 552.49C1000.06 556.568 998.723 561.489 999.225 566.172C999.726 570.855 1002.03 574.915 1005.62 577.459C1009.22 580.004 1013.81 580.824 1018.4 579.74C1022.98 578.655 1027.17 575.755 1030.06 571.677C1032.95 567.599 1034.29 562.678 1033.78 557.995C1033.28 553.312 1030.98 549.252 1027.39 546.708ZM1484.05 131.433C1480.45 128.889 1475.86 128.069 1471.27 129.153C1466.69 130.237 1462.5 133.137 1459.61 137.215C1456.72 141.293 1455.38 146.215 1455.89 150.898C1456.39 155.58 1458.69 159.64 1462.28 162.185C1465.88 164.729 1470.47 165.549 1475.06 164.465C1479.64 163.381 1483.83 160.481 1486.72 156.403C1489.61 152.325 1490.95 147.403 1490.45 142.72C1489.94 138.038 1487.64 133.978 1484.05 131.433ZM1647.46 -214.456C1643.86 -217.001 1639.27 -217.821 1634.69 -216.737C1630.1 -215.652 1625.91 -212.752 1623.02 -208.674C1620.13 -204.596 1618.79 -199.675 1619.3 -194.992C1619.8 -190.309 1622.1 -186.249 1625.69 -183.705C1629.29 -181.161 1633.88 -180.34 1638.47 -181.425C1643.05 -182.509 1647.25 -185.409 1650.13 -189.487C1653.02 -193.565 1654.36 -198.487 1653.86 -203.169C1653.35 -207.852 1651.05 -211.912 1647.46 -214.456ZM1070.91 485.205C1067.32 482.66 1062.72 481.84 1058.14 482.925C1053.56 484.009 1049.36 486.909 1046.48 490.987C1043.59 495.065 1042.25 499.986 1042.75 504.669C1043.25 509.352 1045.55 513.412 1049.15 515.956C1052.74 518.501 1057.34 519.321 1061.92 518.237C1066.5 517.152 1070.7 514.252 1073.59 510.174C1076.47 506.096 1077.81 501.175 1077.31 496.492C1076.81 491.809 1074.51 487.749 1070.91 485.205ZM1234.32 139.315C1230.73 136.771 1226.13 135.951 1221.55 137.035C1216.97 138.119 1212.77 141.019 1209.89 145.097C1207 149.175 1205.66 154.097 1206.16 158.779C1206.66 163.462 1208.97 167.522 1212.56 170.067C1216.16 172.611 1220.75 173.431 1225.33 172.347C1229.92 171.263 1234.11 168.362 1237 164.285C1239.88 160.207 1241.22 155.285 1240.72 150.602C1240.22 145.92 1237.92 141.86 1234.32 139.315Z" fill="#CCAC00"/>
<path d="M1994 330.8L2004.7 430.678L1961.17 492.181L1971.87 592.059M1994 330.8L2037.53 269.297L2081.06 207.794M1994 330.8L1950.48 392.303L1906.95 453.806L1917.65 553.684L1874.12 615.187L1884.82 715.065L1841.29 776.568L1797.76 838.071L1754.23 899.574M2081.06 207.794L2091.75 307.672L2048.23 369.175M2081.06 207.794L2124.58 146.291M2124.58 146.291L2135.28 246.169L2145.98 346.047M2124.58 146.291L2168.11 84.7884L2157.41 -15.0893L2200.94 -76.5922" stroke="#CCAC00" stroke-width="5.17"/>
<path d="M1765.12 884.198C1761.52 881.654 1756.93 880.833 1752.34 881.918C1747.76 883.002 1743.57 885.902 1740.68 889.98C1737.79 894.058 1736.45 898.98 1736.96 903.662C1737.46 908.345 1739.76 912.405 1743.35 914.949C1746.95 917.494 1751.54 918.314 1756.13 917.23C1760.71 916.145 1764.9 913.245 1767.79 909.167C1770.68 905.089 1772.02 900.168 1771.51 895.485C1771.01 890.802 1768.71 886.742 1765.12 884.198ZM1982.75 576.683C1979.16 574.139 1974.56 573.318 1969.98 574.403C1965.4 575.487 1961.2 578.387 1958.31 582.465C1955.43 586.543 1954.09 591.465 1954.59 596.147C1955.09 600.83 1957.39 604.89 1960.99 607.434C1964.58 609.979 1969.18 610.799 1973.76 609.715C1978.34 608.63 1982.54 605.73 1985.43 601.652C1988.31 597.574 1989.65 592.653 1989.15 587.97C1988.65 583.288 1986.35 579.227 1982.75 576.683ZM2059.11 353.799C2055.51 351.255 2050.92 350.435 2046.34 351.519C2041.75 352.603 2037.56 355.503 2034.67 359.581C2031.78 363.659 2030.45 368.581 2030.95 373.264C2031.45 377.946 2033.75 382.006 2037.34 384.551C2040.94 387.095 2045.53 387.915 2050.12 386.831C2054.7 385.747 2058.9 382.847 2061.78 378.769C2064.67 374.691 2066.01 369.769 2065.51 365.087C2065.01 360.404 2062.7 356.344 2059.11 353.799ZM2156.86 330.671C2153.26 328.127 2148.67 327.306 2144.09 328.391C2139.5 329.475 2135.31 332.375 2132.42 336.453C2129.53 340.531 2128.2 345.453 2128.7 350.135C2129.2 354.818 2131.5 358.878 2135.09 361.422C2138.69 363.967 2143.28 364.787 2147.87 363.703C2152.45 362.618 2156.65 359.718 2159.53 355.64C2162.42 351.562 2163.76 346.641 2163.26 341.958C2162.76 337.276 2160.45 333.215 2156.86 330.671Z" fill="#CCAC00"/>
</g>
</g>
</svg>
