<svg width="169" height="48" viewBox="0 0 169 48" fill="none" xmlns="http://www.w3.org/2000/svg">
<path fill-rule="evenodd" clip-rule="evenodd" d="M157.036 19.8505C156.885 19.8809 156.733 20.2154 156.733 20.3977C156.702 21.6136 156.672 24.836 156.672 27.0247C156.672 27.0855 156.763 27.207 156.854 27.207C157.31 27.2374 158.404 27.2678 159.347 27.2678C160.654 27.2678 161.414 27.0855 161.84 26.9032C162.934 26.356 163.451 25.1702 163.451 23.8631C163.451 20.9145 161.383 19.7896 158.313 19.7896C158.1 19.7595 157.493 19.7595 157.036 19.8505ZM164.88 33.4389C164.88 30.4294 162.66 28.7573 158.648 28.7573C158.465 28.7573 157.189 28.7269 156.885 28.7878C156.793 28.8182 156.672 28.8791 156.672 28.9704C156.672 31.1285 156.641 34.5638 156.733 35.9011C156.793 36.4787 157.219 37.2996 157.736 37.5428C158.283 37.8468 159.529 37.9074 160.38 37.9074C162.782 37.9074 164.88 36.57 164.88 33.4389ZM150.835 18.1786C151.139 18.1786 152.051 18.2697 154.392 18.2697C156.611 18.2697 158.374 18.2091 160.532 18.2091C163.177 18.2091 166.825 19.1514 166.825 23.1031C166.825 25.0488 165.457 26.5992 163.663 27.3591C163.572 27.3896 163.572 27.4501 163.663 27.4806C166.217 28.1191 168.467 29.6999 168.467 32.6789C168.467 35.5973 166.643 37.4515 163.998 38.6068C162.387 39.3059 160.38 39.5491 158.344 39.5491C156.793 39.5491 152.629 39.3667 150.318 39.4276C150.075 39.3363 150.531 38.2419 150.744 38.0595C151.291 38.0291 151.717 37.9987 152.294 37.8164C153.115 37.6036 153.206 37.3604 153.328 36.1141C153.389 35.0501 153.389 31.2804 153.389 28.6055C153.389 24.9271 153.419 22.4344 153.389 21.2185C153.358 20.2762 153.024 19.9722 152.355 19.7896C151.838 19.6986 150.987 19.5769 150.288 19.4858C150.136 19.3337 150.653 18.3001 150.835 18.1786ZM133.295 37.0868C134.025 37.6642 135.453 37.9074 136.73 37.9074C138.372 37.9074 140.013 37.6036 141.594 36.1747C143.205 34.7156 144.33 32.4662 144.33 28.8791C144.33 25.4439 143.022 22.6472 140.348 21.0058C138.828 20.0632 136.882 19.6682 134.632 19.6682C133.964 19.6682 133.325 19.6986 132.93 19.8809C132.839 19.9418 132.626 20.2154 132.626 20.3673C132.565 20.9753 132.565 25.6566 132.565 28.3927C132.565 31.2198 132.565 35.1716 132.626 35.6275C132.626 36.0837 132.839 36.7828 133.295 37.0868ZM126.394 18.1786C126.972 18.1786 129.191 18.2697 130.255 18.2697C132.17 18.2697 133.538 18.1786 137.155 18.1786C140.195 18.1786 142.749 18.9995 144.573 20.5496C146.792 22.4648 147.947 25.1097 147.947 28.3318C147.947 32.9221 145.85 35.5669 143.752 37.0868C141.655 38.6372 138.919 39.5491 135.028 39.5491C132.961 39.5491 129.404 39.4882 126.455 39.4578H126.425C126.273 39.1844 126.668 38.1204 126.911 38.09C127.701 37.9987 127.914 37.9683 128.309 37.8164C128.948 37.5732 129.069 37.2387 129.161 36.1141C129.252 34.0165 129.221 31.4934 129.221 28.6359C129.221 26.5992 129.252 22.6167 129.191 21.34C129.1 20.2762 128.644 20.0026 127.732 19.82C127.276 19.729 126.668 19.6073 125.817 19.5163C125.695 19.3032 126.242 18.361 126.394 18.1786Z" fill="#8E714E"/>
<path fill-rule="evenodd" clip-rule="evenodd" d="M89.6116 38.2723C88.8516 38.181 88.3044 38.0596 87.6355 37.7555C87.5445 37.6946 87.3923 37.3909 87.3923 37.2692C87.3314 36.2051 87.3314 33.1653 87.3314 31.1285C87.3314 29.4869 87.0581 28.0582 86.3587 27.0551C85.5379 25.8998 84.3524 25.2311 82.8325 25.2311C81.4949 25.2311 79.7013 26.1432 78.2118 27.42C78.1814 27.4501 77.9382 27.6632 77.9686 27.3287C77.9686 26.9942 78.0295 26.3256 78.0599 25.8696C78.0904 25.4439 77.8472 25.2311 77.8472 25.2311C76.8742 25.7175 74.1384 26.356 73.1352 26.447C72.4057 26.5992 72.2234 27.2983 72.9833 27.5414H73.0138C73.8343 27.7846 74.3815 28.0582 74.807 28.3318C75.1111 28.575 75.0806 28.9095 75.0806 29.1831C75.1111 31.463 75.1111 34.9588 75.0201 36.8741C74.9896 37.6341 74.7769 37.9074 74.2297 38.0291L74.2902 37.9987C73.8647 38.09 73.5303 38.181 73.0135 38.2419C72.8312 38.4242 72.8312 39.3972 73.0135 39.6099C73.348 39.6099 75.1111 39.5186 76.5704 39.5186C78.5767 39.5186 79.6103 39.6099 80.1271 39.6099C80.3398 39.3667 80.4007 38.4546 80.279 38.2419C79.7013 38.2114 79.2758 38.1509 78.8808 38.0291C78.3335 37.9074 78.1814 37.6341 78.1509 36.9955C78.0904 35.3843 78.0904 31.9798 78.0904 29.6695C78.0904 29.0309 78.2727 28.7269 78.455 28.5446C79.1541 27.9368 80.279 27.511 81.2821 27.511C82.2548 27.511 82.8933 27.8151 83.3797 28.2104C84.0484 28.7573 84.2611 29.5477 84.3524 30.1254C84.5043 31.4326 84.4437 34.0165 84.4437 36.266C84.4437 37.4819 84.3524 37.7859 83.8965 37.9378C83.6837 38.0291 83.1365 38.1509 82.498 38.2114C82.2853 38.4242 82.3461 39.3667 82.498 39.5795C83.3797 39.5795 84.4133 39.4882 85.9332 39.4882C87.8178 39.4882 89.034 39.5795 89.5203 39.5795C89.6722 39.3972 89.7333 38.5155 89.6116 38.2723ZM98.0321 26.66C96.4209 26.66 95.4177 27.9064 95.4177 29.8518C95.4177 31.8276 96.2992 34.1075 98.7921 34.1075C99.2176 34.1075 100.008 33.9252 100.373 33.4997C100.95 32.9525 101.346 31.8581 101.346 30.7031C101.346 28.18 100.099 26.66 98.0321 26.66ZM97.8191 40.0963C97.2113 40.0963 96.7855 40.2786 96.5122 40.4308C95.2351 41.2513 94.6578 42.0417 94.6578 42.9843C94.6578 43.8657 94.992 44.5648 95.7218 45.1729C96.6032 45.9328 97.8191 46.2978 99.3695 46.2978C102.47 46.2978 103.838 44.6257 103.838 42.9843C103.838 41.829 103.261 41.069 102.075 40.6435C101.224 40.2786 99.6735 40.0963 97.8191 40.0963ZM98.0321 48C96.1777 48 94.8401 47.6047 93.6851 46.7232C92.5602 45.872 92.0738 44.5952 92.0738 43.7138C92.0738 43.4706 92.1347 42.8017 92.6819 42.1939C93.0161 41.829 93.7456 41.1299 95.4786 39.9444C95.5392 39.914 95.5696 39.8835 95.5696 39.8227C95.5696 39.7618 95.5088 39.7009 95.4482 39.6708C94.0193 39.1236 93.5938 38.2419 93.472 37.7555V37.6946C93.4419 37.5123 93.381 37.33 93.6546 37.1474C93.8674 36.9955 94.1714 36.8132 94.5056 36.6005C95.0224 36.2964 95.5696 35.962 95.9041 35.6883C95.965 35.6275 95.965 35.5669 95.965 35.506C95.965 35.4452 95.9041 35.3843 95.8432 35.3542C93.7155 34.6548 92.6515 33.074 92.6515 30.7031C92.6515 29.1527 93.3506 27.7542 94.5969 26.8728C95.4482 26.2038 97.5759 25.3833 98.9744 25.3833H99.0657C100.494 25.4134 101.285 25.7175 102.409 26.1128C103.017 26.3256 103.595 26.4166 104.385 26.4166C105.571 26.4166 106.088 26.0519 106.513 25.6265C106.544 25.687 106.605 25.8392 106.635 26.2343C106.665 26.6296 106.544 27.207 106.24 27.6327C105.996 27.9669 105.449 28.2104 104.902 28.2104H104.75C104.203 28.1495 103.96 28.0887 103.96 28.0887L103.838 28.1495C103.808 28.2104 103.838 28.271 103.869 28.3623L103.899 28.4231C103.96 28.6968 104.081 29.5173 104.081 29.7303C104.081 32.223 103.078 33.3171 102.014 34.138C100.981 34.8979 99.7952 35.3843 98.4576 35.506C98.4272 35.506 98.3057 35.506 98.0321 35.5365C97.88 35.5365 97.6672 35.5669 97.6368 35.5669H97.6063C97.3632 35.6275 96.7554 35.9315 96.7554 36.4483C96.7554 36.9042 97.029 37.4515 98.3359 37.5428C98.6095 37.5732 98.8831 37.5732 99.1871 37.6036C100.92 37.7251 103.078 37.8772 104.081 38.2114C105.48 38.7282 106.361 39.9745 106.361 41.4643C106.361 43.7138 104.75 45.8114 102.075 47.1183C100.768 47.696 99.4608 48 98.0321 48ZM115.36 26.8119C114.721 26.8119 114.143 26.9638 113.718 27.2678C112.532 27.9974 111.924 29.4567 111.924 31.5845C111.924 35.5669 113.931 38.3636 116.788 38.3636C117.639 38.3636 118.308 38.1204 118.886 37.6341C119.767 36.9042 120.223 35.4452 120.223 33.4084C120.223 29.4567 118.247 26.8119 115.36 26.8119ZM115.907 39.8227C110.739 39.8227 108.884 36.0228 108.884 32.4662C108.884 29.9735 109.888 28.0582 111.894 26.6902C113.323 25.8088 115.025 25.3224 116.545 25.3224C120.497 25.3224 123.263 28.1495 123.263 32.223C123.263 34.9892 122.169 37.1779 120.071 38.5155C119.068 39.1841 117.336 39.8227 115.907 39.8227ZM61.7357 26.8119C61.0972 26.8119 60.5198 26.9638 60.094 27.2678C58.9086 27.9974 58.3005 29.4567 58.3005 31.5845C58.3005 35.5669 60.3068 38.3636 63.1643 38.3636C64.0156 38.3636 64.6843 38.1204 65.2619 37.6341C66.1433 36.9042 66.5995 35.4452 66.5995 33.4084C66.5995 29.4567 64.6538 26.8119 61.7357 26.8119ZM62.2829 39.8227C57.115 39.8227 55.2606 36.0228 55.2606 32.4662C55.2606 29.9735 56.2637 28.0582 58.27 26.6902C59.699 25.8088 61.4012 25.3224 62.9211 25.3224C66.8731 25.3224 69.6394 28.1495 69.6394 32.223C69.6394 34.9892 68.545 37.1779 66.4474 38.5155C65.4747 39.1841 63.742 39.8227 62.2829 39.8227ZM27.5368 39.5186C27.476 39.4276 27.4151 39.154 27.4455 38.8195C27.4455 38.5763 27.5064 38.4242 27.5368 38.3636C28.1751 38.2723 28.5096 38.181 28.8742 38.09C29.4823 37.9378 29.7255 37.6036 29.7559 36.8437C29.8472 35.0197 29.8472 31.554 29.8168 29.1527V29.0918C29.8168 28.8182 29.8168 28.4837 29.4823 28.2405C28.9959 27.9368 28.4183 27.6632 27.6583 27.4501C27.3847 27.3591 27.2024 27.207 27.2328 27.0247C27.2328 26.8423 27.4151 26.6296 27.8105 26.5687C28.8136 26.4774 31.4277 25.8392 32.4613 25.3833C32.5221 25.4439 32.6134 25.6265 32.6134 25.8696L32.583 26.2038C32.5526 26.5383 32.5221 26.9336 32.5221 27.3287C32.5221 27.4501 32.6439 27.5414 32.7653 27.5414C32.8262 27.5414 32.8871 27.511 32.9479 27.4806C34.8933 25.9606 36.6565 25.4134 37.5683 25.4134C39.0581 25.4134 40.2131 26.1128 41.0948 27.5719C41.1554 27.6632 41.2163 27.6933 41.3076 27.6933C41.3684 27.6933 41.4594 27.6632 41.4899 27.6023C43.2834 26.2343 45.077 25.4134 46.2624 25.4134C49.0896 25.4134 50.7617 27.511 50.7617 31.0677C50.7617 32.0708 50.7617 33.378 50.7312 34.5638C50.7312 35.6275 50.7008 36.6005 50.7008 37.2996C50.7008 37.4515 50.9135 37.9378 51.248 38.0291C51.6735 38.2419 52.2512 38.3332 53.0111 38.4546H53.0416C53.1024 38.6674 52.9807 39.4578 52.8593 39.6099C52.6767 39.6099 52.403 39.6099 52.0993 39.5795C51.5216 39.5491 50.7008 39.5186 49.7889 39.5186C47.9041 39.5186 46.9314 39.5491 45.9888 39.6099C45.9282 39.3667 45.8978 38.6372 45.9888 38.4546C46.536 38.3636 46.8097 38.2723 47.1441 38.181C47.7522 37.9987 47.9041 37.7251 47.9345 36.9347C47.9345 36.3573 48.056 31.4326 47.8737 30.2468C47.6914 29.031 46.7792 27.6023 44.7729 27.6023C44.013 27.6023 42.8275 27.9064 41.6722 28.7878C41.6116 28.8486 41.5507 29.0005 41.5507 29.0918V29.1222C41.6722 29.7605 41.6722 30.4903 41.6722 31.6149V33.5908C41.6722 34.9588 41.6418 36.2356 41.6722 37.2083C41.6722 37.8772 42.0675 38.0291 42.402 38.1509C42.5843 38.181 42.7058 38.2114 42.8579 38.2419C43.1315 38.3027 43.4052 38.3636 43.8307 38.4546C43.8915 38.5763 43.8915 38.9714 43.8002 39.3059C43.7698 39.4882 43.7089 39.5795 43.6788 39.6099C42.6452 39.5795 41.5812 39.5491 40.0308 39.5491C39.5749 39.5491 38.7845 39.5795 38.1155 39.5795C37.5683 39.5795 37.0515 39.6099 36.7478 39.6099C36.7173 39.5491 36.6565 39.3363 36.6565 39.0018C36.6565 38.7282 36.7173 38.5155 36.7782 38.4546C36.9301 38.4242 37.0515 38.394 37.2037 38.394C37.5683 38.3332 37.8724 38.2723 38.1764 38.2114C38.6932 38.0596 38.8755 37.7859 38.9059 37.1173C38.9972 35.5973 39.0882 31.2503 38.8755 30.1558C38.5109 28.3927 37.5077 27.511 35.8965 27.511C34.9542 27.511 33.7685 27.9669 32.7958 28.6968C32.6439 28.8182 32.5221 29.1222 32.5221 29.3959V31.1894C32.5221 33.378 32.5221 36.1141 32.5526 37.2996C32.583 37.6642 32.7045 38.09 33.4038 38.2419C33.5557 38.2723 33.7989 38.3332 34.1029 38.3636L34.6502 38.4546C34.711 38.6372 34.6806 39.3667 34.5589 39.6099C34.2548 39.6099 33.8902 39.5795 33.4644 39.5795C32.8262 39.5491 32.0054 39.5186 31.0935 39.5186C30.0295 39.5186 29.2695 39.5491 28.6614 39.5795C28.2359 39.5186 27.9015 39.5186 27.5368 39.5186Z" fill="#442D22"/>
<path fill-rule="evenodd" clip-rule="evenodd" d="M11.547 46.8145L10.3007 46.3888C10.3007 46.3888 10.4529 40.0354 8.17299 39.5795C6.65305 37.8164 8.41616 -35.202 13.8878 39.3363C13.8878 39.3363 12.0033 40.2786 11.6688 41.8898C11.3039 43.4706 11.547 46.8145 11.547 46.8145Z" fill="#1C3879" fill-opacity="0.95"/>
<path fill-rule="evenodd" clip-rule="evenodd" d="M11.547 46.8145L10.3007 46.3888C10.3007 46.3888 10.4529 40.0354 8.17299 39.5795C6.65305 37.8164 8.41616 -35.202 13.8878 39.3363C13.8878 39.3363 12.0033 40.2786 11.6688 41.8898C11.3039 43.4706 11.547 46.8145 11.547 46.8145Z" fill="#A6A385"/>
<path fill-rule="evenodd" clip-rule="evenodd" d="M12.2161 40.6739C12.2161 40.6739 23.1292 33.4997 20.5757 18.5737C18.1135 7.72142 12.3071 4.16475 11.6688 2.7967C10.9697 1.82398 10.3008 0.121735 10.3008 0.121735L10.757 30.3077C10.757 30.3381 9.81442 39.5491 12.2161 40.6739Z" fill="#1C3879" fill-opacity="0.95"/>
<path fill-rule="evenodd" clip-rule="evenodd" d="M12.2161 40.6739C12.2161 40.6739 23.1292 33.4997 20.5757 18.5737C18.1135 7.72142 12.3071 4.16475 11.6688 2.7967C10.9697 1.82398 10.3008 0.121735 10.3008 0.121735L10.757 30.3077C10.757 30.3381 9.81442 39.5491 12.2161 40.6739Z" fill="#499D4A"/>
<path fill-rule="evenodd" clip-rule="evenodd" d="M9.66244 41.069C9.66244 41.069 -0.58205 34.0771 0.0260381 21.7657C0.603409 9.45409 7.83846 3.40478 9.23667 2.31034C10.1488 1.33762 10.1792 0.972714 10.2401 0C10.8783 1.36806 10.7569 20.4586 10.8479 22.708C11.1215 31.3717 10.3615 39.4276 9.66244 41.069Z" fill="#1C3879" fill-opacity="0.95"/>
<path fill-rule="evenodd" clip-rule="evenodd" d="M9.66244 41.069C9.66244 41.069 -0.58205 34.0771 0.0260381 21.7657C0.603409 9.45409 7.83846 3.40478 9.23667 2.31034C10.1488 1.33762 10.1792 0.972714 10.2401 0C10.8783 1.36806 10.7569 20.4586 10.8479 22.708C11.1215 31.3717 10.3615 39.4276 9.66244 41.069Z" fill="#58AA50"/>
</svg>
