<svg width="105" height="64" viewBox="0 0 105 64" fill="none" xmlns="http://www.w3.org/2000/svg">
<path d="M51.6916 64C51.3372 64 51.0065 63.9055 50.6994 63.7401L47.5572 61.8737C47.0847 61.6139 47.321 61.5194 47.4627 61.4721C48.1006 61.2595 48.2187 61.2122 48.8802 60.8342C48.9511 60.787 49.0456 60.8106 49.1165 60.8579L51.5262 62.299C51.6207 62.3462 51.7389 62.3462 51.8097 62.299L61.2361 56.8416C61.3306 56.7944 61.3778 56.6999 61.3778 56.5818V45.6906C61.3778 45.5725 61.3306 45.478 61.2361 45.4308L51.8097 39.997C51.7152 39.9498 51.5971 39.9498 51.5262 39.997L42.0999 45.4308C42.0054 45.478 41.9581 45.5961 41.9581 45.6906V56.5818C41.9581 56.6763 42.0054 56.7944 42.0999 56.8416L44.675 58.33C46.0689 59.0387 46.943 58.2119 46.943 57.385V46.6356C46.943 46.4939 47.0611 46.3521 47.2265 46.3521H48.4314C48.5731 46.3521 48.7149 46.4703 48.7149 46.6356V57.385C48.7149 59.2514 47.699 60.3381 45.9271 60.3381C45.3838 60.3381 44.9585 60.3381 43.7536 59.7475L41.273 58.33C40.6588 57.9756 40.2808 57.3141 40.2808 56.6054V45.7143C40.2808 45.0055 40.6588 44.344 41.273 43.9897L50.6994 38.5323C51.29 38.2015 52.0932 38.2015 52.6839 38.5323L62.1102 43.9897C62.7245 44.344 63.1025 45.0055 63.1025 45.7143V56.6054C63.1025 57.3141 62.7245 57.9756 62.1102 58.33L52.6839 63.7874C52.3767 63.9291 52.0224 64 51.6916 64ZM54.5975 56.5109C50.4631 56.5109 49.6126 54.6209 49.6126 53.0144C49.6126 52.8726 49.7307 52.7309 49.8961 52.7309H51.1246C51.2664 52.7309 51.3845 52.8254 51.3845 52.9671C51.5735 54.2193 52.1169 54.8335 54.6211 54.8335C56.6056 54.8335 57.4561 54.3846 57.4561 53.3215C57.4561 52.7073 57.2199 52.2584 54.125 51.9513C51.5499 51.6914 49.9434 51.1244 49.9434 49.069C49.9434 47.1554 51.5499 46.0214 54.2431 46.0214C57.2671 46.0214 58.7555 47.0609 58.9445 49.3289C58.9445 49.3998 58.9209 49.4706 58.8736 49.5415C58.8264 49.5888 58.7555 49.636 58.6846 49.636H57.4561C57.338 49.636 57.2199 49.5415 57.1962 49.4234C56.9127 48.124 56.1804 47.6988 54.2431 47.6988C52.0696 47.6988 51.8097 48.4548 51.8097 49.0218C51.8097 49.7069 52.1169 49.9195 55.0464 50.2975C57.9522 50.6755 59.3225 51.2189 59.3225 53.2506C59.2988 55.3296 57.5979 56.5109 54.5975 56.5109Z" fill="#539E43"/>
<path d="M22.4437 21.4042C22.4437 20.979 22.2075 20.5773 21.8295 20.3647L11.8125 14.6002C11.6471 14.5057 11.4581 14.4585 11.2691 14.4349H11.1746C10.9856 14.4349 10.7966 14.5057 10.6312 14.6002L0.614249 20.3647C0.23625 20.5773 0 20.979 0 21.4042L0.023625 36.9022C0.023625 37.1148 0.14175 37.3274 0.330749 37.4219C0.519749 37.5401 0.755998 37.5401 0.921373 37.4219L6.87486 34.0199C7.25286 33.8073 7.48911 33.4057 7.48911 32.9804V25.7276C7.48911 25.3023 7.72536 24.9007 8.10336 24.6881L10.6312 23.2233C10.8202 23.1052 11.0329 23.058 11.2455 23.058C11.4581 23.058 11.6707 23.1052 11.8361 23.2233L14.364 24.6881C14.742 24.9007 14.9782 25.3023 14.9782 25.7276V32.9804C14.9782 33.4057 15.2145 33.8073 15.5925 34.0199L21.546 37.4219C21.735 37.5401 21.9712 37.5401 22.1602 37.4219C22.3492 37.3274 22.4673 37.1148 22.4673 36.9022L22.4437 21.4042Z" fill="black"/>
<path d="M70.5913 0.0708749C70.4023 -0.023625 70.166 -0.023625 70.0007 0.0708749C69.8117 0.189 69.6936 0.377999 69.6936 0.590624V15.9468C69.6936 16.0886 69.6227 16.2303 69.4809 16.3248C69.3392 16.3957 69.1974 16.3957 69.0557 16.3248L66.5514 14.8837C66.1734 14.6711 65.7246 14.6711 65.3466 14.8837L55.3296 20.6718C54.9516 20.8845 54.7153 21.2861 54.7153 21.7113V33.2639C54.7153 33.6892 54.9516 34.0908 55.3296 34.3034L65.3466 40.0915C65.7246 40.3042 66.1734 40.3042 66.5514 40.0915L76.5684 34.3034C76.9464 34.0908 77.1827 33.6892 77.1827 33.2639V4.46512C77.1827 4.01624 76.9464 3.61462 76.5684 3.40199L70.5913 0.0708749ZM69.6699 29.4603C69.6699 29.5784 69.6227 29.6729 69.5282 29.7202L66.1026 31.7047C66.0081 31.7519 65.8899 31.7519 65.7954 31.7047L62.3698 29.7202C62.2753 29.6729 62.2281 29.5548 62.2281 29.4603V25.4913C62.2281 25.3732 62.2753 25.2787 62.3698 25.2314L65.7954 23.247C65.8899 23.1997 66.0081 23.1997 66.1026 23.247L69.5282 25.2314C69.6227 25.2787 69.6699 25.3968 69.6699 25.4913V29.4603Z" fill="black"/>
<path d="M103.926 25.3968C104.304 25.1842 104.517 24.7826 104.517 24.3573V21.546C104.517 21.1207 104.281 20.7191 103.926 20.5065L93.9801 14.742C93.6021 14.5294 93.1533 14.5294 92.7753 14.742L82.7583 20.5301C82.3803 20.7427 82.144 21.1444 82.144 21.5696V33.1222C82.144 33.5475 82.3803 33.9491 82.7583 34.1617L92.7044 39.8317C93.0824 40.0443 93.5313 40.0443 93.8856 39.8317L99.91 36.4769C100.099 36.3824 100.217 36.1698 100.217 35.9572C100.217 35.7446 100.099 35.5319 99.91 35.4374L89.8458 29.6493C89.6568 29.5312 89.5387 29.3422 89.5387 29.1296V25.515C89.5387 25.3023 89.6568 25.0897 89.8458 24.9952L92.9879 23.1997C93.1769 23.0816 93.4131 23.0816 93.6021 23.1997L96.7443 24.9952C96.9333 25.1133 97.0514 25.3023 97.0514 25.515V28.35C97.0514 28.5626 97.1695 28.7752 97.3585 28.8697C97.5475 28.9878 97.7838 28.9878 97.9728 28.8697L103.926 25.3968Z" fill="black"/>
<path d="M93.2236 24.8534C93.2945 24.8062 93.389 24.8062 93.4599 24.8534L95.3735 25.9638C95.4444 26.0111 95.4916 26.0819 95.4916 26.1764V28.3972C95.4916 28.4917 95.4444 28.5625 95.3735 28.6098L93.4599 29.7202C93.389 29.7674 93.2945 29.7674 93.2236 29.7202L91.31 28.6098C91.2391 28.5625 91.1919 28.4917 91.1919 28.3972V26.1764C91.1919 26.0819 91.2391 26.0111 91.31 25.9638L93.2236 24.8534Z" fill="#539E43"/>
<path d="M39.1942 14.7892C38.8162 14.5766 38.3674 14.5766 37.9894 14.7892L28.0433 20.5301C27.6653 20.7427 27.4526 21.1443 27.4526 21.5696V33.0749C27.4526 33.5002 27.6889 33.9018 28.0433 34.1144L37.9894 39.8553C38.3674 40.0679 38.8162 40.0679 39.1942 39.8553L49.1403 34.1144C49.5183 33.9018 49.731 33.5002 49.731 33.0749V21.5696C49.731 21.1443 49.4947 20.7427 49.1403 20.5301L39.1942 14.7892Z" fill="url(#paint0_linear_499_183)"/>
<defs>
<linearGradient id="paint0_linear_499_183" x1="42.6439" y1="19.0688" x2="31.7416" y2="36.1988" gradientUnits="userSpaceOnUse">
<stop stop-color="#41873F"/>
<stop offset="0.3288" stop-color="#418B3D"/>
<stop offset="0.6352" stop-color="#419637"/>
<stop offset="0.9319" stop-color="#3FA92D"/>
<stop offset="1" stop-color="#3FAE2A"/>
</linearGradient>
</defs>
</svg>
