<svg width="120" height="94" viewBox="0 0 120 94" fill="none" xmlns="http://www.w3.org/2000/svg">
<path d="M90 0H0V88.985H90V0Z" fill="#EAE3D2"/>
<path d="M0 46.5485V93.0974H47.0795H94.1593V46.5485V0H47.0795H0V46.5485ZM50.1239 6.08849C53.3097 9.13275 56.2832 13.3097 57.7346 16.708C58.3717 18.2301 58.8671 18.8319 59.7876 19.292L60.991 19.8584L60.7433 18.7257C60.4248 17.0265 57.5222 11.1504 56.0355 9.09733C55.2921 8.0708 53.9822 6.47788 53.0973 5.52213L51.5044 3.7876L53.3806 4.03541C55.3274 4.28318 60.4956 5.6991 62.4071 6.51327C64.6725 7.43363 67.3983 14.8318 68.1416 21.9823L68.354 24.354L70.9027 24.5664C75.7521 25.0619 82.3008 27.0087 85.1328 28.8849C86.0177 29.4512 87.4335 33.2742 88.3186 37.5576C89.0973 41.2388 89.062 41.4159 87.5397 39.9645C85.4867 38.0177 83.2213 36.2832 81.0618 35.0442C78.9026 33.7699 74.3362 31.8584 73.4867 31.8584C72.991 31.8584 72.991 31.9646 73.4867 33.0265C73.9115 33.9114 74.5133 34.3717 76.0354 35.0089C79.2921 36.3186 83.5399 39.3629 86.6548 42.6193C88.2477 44.2831 89.5574 45.7699 89.5574 45.947C89.5574 46.3717 86.5133 49.8053 84.6018 51.5397C82.0531 53.8407 80.5664 54.8317 77.0973 56.6017C74.5133 57.9114 73.77 58.4779 73.4158 59.3628L72.9557 60.46L74.2654 60.1061C78.0531 59.0795 83.5752 55.8231 87.0443 52.6016L88.9558 50.7963L88.7078 52.6725C88.4601 54.6549 87.0443 59.7876 86.23 61.77C85.6638 63.1149 84.0353 64.0707 79.7169 65.6283C76.9558 66.6193 71.9291 67.6107 69.699 67.6107H68.3893L68.1416 69.9823C67.8231 73.5929 66.9379 77.3806 65.7698 80.354C64.1416 84.4956 63.6459 85.1328 61.3096 85.9823C58.6194 86.9734 53.9469 88.1415 52.6372 88.1415H51.6106L53.5574 86.0176C54.6549 84.8495 56.3185 82.5841 57.3098 81.0265C59.0089 78.2654 61.1681 73.0972 60.8142 72.708C60.708 72.6371 60.1771 72.7433 59.6461 72.991C58.9733 73.3096 58.3717 74.053 57.8052 75.3982C56.354 78.6902 53.3097 82.8671 50.1592 85.9114C48.5309 87.5397 46.9733 88.8496 46.7256 88.8496C46.0176 88.8496 42.5487 85.7344 40.4602 83.2213C38.3363 80.637 36.1062 77.0264 35.3628 74.9025C35.0089 73.9115 34.5133 73.3805 33.5222 72.8495L32.1417 72.177L32.3894 72.991C33.7346 77.4512 36.4601 82.3361 39.7168 86.1238C41.4512 88.1062 41.4868 88.1415 40.531 88.1415C39.3629 88.1415 36.1415 87.3273 32.4956 86.1591L29.7345 85.239L28.6726 82.9733C26.5487 78.584 25.1327 72.991 25.1327 69.2036V67.7169L22.4071 67.5045C18.4425 67.1859 14.1947 66.0531 10.6195 64.3892L7.50443 62.9381L6.76107 60.8848C5.73451 58.0884 4.60176 53.5574 4.60176 52.2831V51.2567L6.61946 53.0264C10.4071 56.2831 15.292 59.0089 19.7522 60.3538L20.5664 60.6018L19.9292 59.3275C19.3982 58.3008 18.6903 57.7699 16.1062 56.5308C14.3363 55.6813 11.7168 54.0177 10.2655 52.8496C7.50443 50.6901 3.89381 46.8671 3.89381 46.1238C3.89381 45.3098 7.15043 41.7698 9.9823 39.4691C11.6106 38.1947 14.3717 36.4247 16.1416 35.5399C18.4071 34.4424 19.5044 33.699 19.7876 33.0265C20 32.5309 20.1416 32.0355 20.0354 31.9646C19.7876 31.7169 16.4248 32.8494 14.3363 33.9114C11.7522 35.1857 8.21238 37.6282 6.26548 39.4691C5.34512 40.3539 4.53098 41.062 4.46017 41.062C4.07079 41.062 5.23893 35.8938 6.58407 31.8231L7.46901 29.0973L10.1947 27.8583C14.1239 26.0885 17.1681 25.2389 21.3451 24.7434L25.0265 24.3186L25.2743 21.4513C25.5575 17.6637 26.6549 13.5929 28.3187 9.98231C29.4868 7.50441 29.876 6.97344 30.9379 6.54866C32.9203 5.6991 38.0886 4.28318 40.0707 4.03541L41.9469 3.7876L40.2125 5.59291C37.9468 7.96461 36.3186 10.2655 34.7965 13.2743C33.7699 15.292 32.2123 19.1504 32.2123 19.7168C32.2123 19.7876 32.7788 19.5398 33.4513 19.2212C34.4071 18.7257 34.9733 17.9823 36.0353 15.7522C37.8406 12.0708 41.2388 7.57522 44.1061 5.13274C45.3804 4.0708 46.5486 3.18585 46.7609 3.18585C46.938 3.18585 48.4601 4.49557 50.1239 6.08849ZM25.1681 11.115C24.2124 13.6637 23.4336 17.0619 23.1504 19.9292L22.9027 22.2655L20.9203 22.4779C18.0885 22.7964 15.7876 23.292 12.6372 24.3186C11.115 24.8141 9.8053 25.1327 9.73452 25.0619C9.27432 24.6018 15.5398 16.6726 18.1593 14.4071C20.2124 12.6726 25.5929 8.84955 25.7699 9.02655C25.8407 9.09733 25.5929 10.0177 25.1681 11.115ZM70.5486 10.8673C73.8762 13.0619 79.7522 18.9734 81.9114 22.2301C82.8318 23.646 83.5399 24.8849 83.4337 24.9911C83.3628 25.0973 82.0885 24.7788 80.6726 24.2832C78.1239 23.4336 75.6106 22.9026 72.1415 22.4779C70.5841 22.2655 70.4424 22.1947 70.3008 21.1327C70.1947 20.4956 69.947 18.7965 69.7346 17.3451C69.5222 15.9292 68.9556 13.5575 68.4955 12.1416C67.9999 10.7257 67.6107 9.45133 67.6107 9.38053C67.6107 8.99114 68.1416 9.27433 70.5486 10.8673ZM13.8053 68.1416C15.469 68.6726 18.1947 69.2389 19.9292 69.4513L23.0088 69.8407V71.0089C23.0088 72.7786 24 77.5221 24.9557 80.354C25.4513 81.7699 25.8053 83.0089 25.7345 83.0442C25.5221 83.2566 21.7345 80.5664 18.938 78.2301C16.177 75.9291 13.2389 72.6018 11.0796 69.3804C9.38052 66.7964 9.38052 66.7611 10.1239 67.0088C10.4779 67.115 12.1416 67.646 13.8053 68.1416ZM83.3981 67.5045C82.7965 69.0265 78.8673 73.9468 76.1416 76.5663C73.6282 78.9735 68.1416 83.1857 67.5045 83.1857C67.3983 83.1857 67.7875 81.8761 68.354 80.2478C69.2389 77.7345 69.6637 75.6815 70.3008 70.938C70.4424 69.8407 70.5132 69.8052 72.6724 69.5928C75.3982 69.2742 80.1061 68.1769 81.7699 67.4689C83.3628 66.7611 83.6814 66.7611 83.3981 67.5045Z" fill="#1C3879"/>
<path d="M44.885 7.68143C42.3716 9.94691 39.3273 14.1239 37.77 17.3805C36.4601 20.1062 36.1062 20.5664 34.8671 21.1328C34.0885 21.4867 32.5309 22.3717 31.3983 23.115L29.3097 24.4602L29.5221 22.4071C29.6636 21.2744 30.0178 19.3982 30.3363 18.2301C30.9379 15.8938 33.5222 10.1239 34.6903 8.4956C35.1151 7.89382 35.3981 7.43365 35.2919 7.43365C35.2213 7.43365 34.4071 7.68143 33.4866 8.00001C31.9999 8.53099 31.7169 8.77877 30.7256 10.7611C28.6372 14.9027 27.2567 20.531 27.2567 25.0266V26.9026H24.4602C20.1416 26.9026 15.1858 28.1416 11.115 30.1946C9.66369 30.938 9.16814 31.3983 8.70794 32.5665C7.85839 34.6903 7.96458 34.7965 9.87608 33.6284C12.177 32.2123 15.646 30.655 18.1593 29.9469C20.0708 29.3806 24.7787 28.6726 24.7787 28.9203C24.7787 28.9558 24.2124 29.9116 23.5044 31.0088C22.7964 32.1061 21.9469 33.6284 21.5929 34.4424C21.0619 35.6105 20.6371 36 19.0088 36.6725C15.0442 38.2654 7.85839 43.8231 7.22122 45.7346C6.76105 47.2213 13.3097 52.8141 18.1947 55.0442C20.4956 56.1417 20.9911 56.5309 21.6283 57.8052C22.0531 58.6195 22.938 60.1415 23.6106 61.2034C24.2832 62.2301 24.7433 63.1505 24.6725 63.2211C24.3893 63.5044 19.7168 62.6549 17.3451 61.9115C14.8673 61.1328 10.7611 59.1504 9.09733 57.9823L8.03539 57.2036L8.28316 58.1594C8.95575 60.8849 9.59291 61.4514 13.8761 63.1505C17.0619 64.3893 20.8495 65.1682 24.2832 65.2388L27.1505 65.3097L27.3629 68.708C27.6459 72.708 28.5663 76.4955 30.1593 80.2479C31.3983 83.0796 32.2479 83.8938 34.4424 84.4601L35.4337 84.708L34.1594 82.6904C31.8231 79.0442 30.124 74.301 29.5574 69.8052C29.4159 68.8142 29.3806 67.9646 29.4512 67.9646C29.5574 67.9646 30.9379 68.7433 32.5664 69.7346C34.1947 70.6903 35.7167 71.5043 35.9291 71.5043C36.177 71.5043 36.6371 72.1771 36.9557 72.9911C38.053 75.9292 40.6725 79.9293 43.3627 82.761C44.885 84.3539 46.2655 85.6638 46.4423 85.6638C47.1504 85.6638 49.4867 83.5043 51.5397 81.0265C52.6725 79.646 54.3363 76.9912 55.2921 75.115C56.9556 71.7523 57.0265 71.7167 59.3981 70.4424C60.708 69.7699 62.23 68.885 62.7963 68.4956L63.8229 67.8231L63.6106 70.1594C63.3273 73.3452 61.4867 78.6903 59.646 81.8408C58.7965 83.2566 58.1946 84.4957 58.2299 84.5663C58.3008 84.6372 59.1151 84.3895 60.0352 84.0353C61.5929 83.4337 61.8052 83.2213 62.8672 80.8495C64.6016 77.1682 65.5574 73.239 65.8053 69.0265L66.0177 65.3097L67.0797 65.4159C70.407 65.7345 78.0883 63.9645 82.1237 61.9468C83.7166 61.1328 84.177 60.708 84.5662 59.6105C84.8495 58.8319 85.1327 57.9823 85.2389 57.699C85.3804 57.3451 85.0619 57.4513 84.2123 58.0176C80.637 60.4248 74.5133 62.6549 70.1593 63.1505L68.3184 63.3982L69.5221 61.522C70.1593 60.4957 71.1151 58.8319 71.6105 57.8761C72.3894 56.3185 72.7433 55.9999 74.2653 55.4689C76.8496 54.5132 81.2742 51.5044 83.9999 48.7787C85.3096 47.469 86.3715 46.2656 86.3715 46.0885C86.3715 45.5575 81.2742 40.7434 79.3273 39.4335C78.2654 38.6902 76.2477 37.5929 74.9025 36.9557C72.6371 35.9291 72.2832 35.6105 71.5398 34.0885C71.0795 33.168 70.2655 31.7169 69.699 30.8673C69.1327 30.0178 68.6726 29.2388 68.6726 29.062C68.6726 28.5664 73.239 29.345 76.531 30.4426C78.3716 31.0442 81.0618 32.2479 82.4779 33.0974C83.929 33.947 85.1327 34.6195 85.2034 34.5842C85.2389 34.5133 84.991 33.7346 84.6724 32.7788C84.1061 31.2212 83.8937 31.0088 81.5221 29.9116C77.6635 28.0707 74.3009 27.2211 69.8407 27.0088L65.8406 26.7964V24.0708C65.8406 19.6106 64.7787 15.3274 62.4777 10.4425C61.7344 8.92038 61.3805 8.56638 59.9646 8.0354C59.0442 7.71682 58.2299 7.46904 58.1946 7.53985C58.1237 7.61062 58.6194 8.56638 59.3275 9.69913C60.9557 12.4248 62.1947 15.469 63.0443 18.6903C63.6459 21.1328 63.9291 24.0708 63.5752 24.0708C63.469 24.0708 62.7257 23.6106 61.8761 23.0443C61.0266 22.4779 59.5752 21.6637 58.6547 21.2035C57.0974 20.4602 56.8141 20.1062 55.7168 17.7699C55.0797 16.3186 53.8053 14.1593 52.9558 12.9558C51.3273 10.6903 47.2213 6.3717 46.6903 6.3717C46.5132 6.3717 45.699 6.97346 44.885 7.68143ZM48.708 11.3982C51.2211 14.0177 54.5131 18.8673 54.0884 19.292C54.0177 19.3982 53.3806 19.292 52.7078 19.1151C49.7344 18.2301 42.3716 18.3717 39.8583 19.3275C38.9025 19.6814 39.1858 18.6549 40.7434 16.2832C42.0884 14.1947 46.1946 9.55754 46.6903 9.55754C46.8318 9.55754 47.7167 10.4071 48.708 11.3982ZM51.6815 37.239C55.5751 38.6902 55.823 43.5398 52.1415 46.1594L50.6195 47.2213L52.2124 47.7523C53.2035 48.0709 54.3007 48.7787 55.0441 49.6282C56.106 50.7964 56.2831 51.2211 56.2831 52.7434C56.2831 55.115 55.6107 56.6371 53.9468 57.9823C52.1062 59.5043 50.0885 59.8585 42.9379 59.7523C38.1592 59.7167 36.8142 59.5752 36.8142 59.2213C36.8142 58.938 37.239 58.761 37.9824 58.761C38.6195 58.761 39.3273 58.5842 39.5753 58.3362C39.8939 58.0176 40.0001 55.3627 40.0001 48.6372C40.0001 43.5398 39.8939 39.0796 39.7877 38.7964C39.6459 38.4778 38.9734 38.1239 38.1947 38.0177C37.3805 37.8762 36.8142 37.5929 36.8142 37.3096C36.8142 36.4601 49.4867 36.3895 51.6815 37.239ZM19.7522 39.5397C19.5044 40.1769 19.3274 42.6194 19.3274 46.0176C19.3274 49.4158 19.5044 51.8583 19.7522 52.4602C20.0708 53.2744 20.0708 53.4512 19.6814 53.4512C18.938 53.4512 14.2301 50.2301 11.9292 48.1415L9.87608 46.2656L11.5752 44.5309C13.5221 42.4779 16.177 40.4249 18.2301 39.3629C20.0708 38.3716 20.2478 38.4072 19.7522 39.5397ZM76.4248 40.1063C77.4512 40.7434 79.4689 42.3008 80.8494 43.6107L83.3627 45.947L81.7698 47.6105C80.885 48.531 79.3627 49.8762 78.4069 50.6196C76.5663 51.9645 73.6637 53.593 73.4513 53.3806C73.3805 53.3097 73.4513 52.6372 73.6282 51.8939C74.4424 48.2124 74.3362 41.4868 73.3805 39.0443C73.0972 38.301 73.8052 38.5487 76.4248 40.1063ZM47.9646 73.4867C50.1238 73.3805 52.3892 73.1328 53.0264 72.9557C54.0884 72.6372 54.1945 72.6725 53.9822 73.2034C53.3806 74.8673 51.2567 77.876 49.0266 80.2832L46.5841 82.938L44.637 80.8495C42.6549 78.6903 39.292 73.8406 39.292 73.0973C39.292 72.7787 39.8583 72.8142 41.6992 73.2034C43.3274 73.5576 45.2742 73.6282 47.9646 73.4867Z" fill="#1C3879"/>
<path d="M44.9912 14.3363C44.2123 15.1858 43.5398 16 43.5398 16.1062C43.5398 16.2124 44.9912 16.2832 46.7609 16.2832H49.9468L48.4601 14.5133C47.6461 13.5221 46.8671 12.7433 46.7256 12.7433C46.5841 12.7433 45.8052 13.4513 44.9912 14.3363Z" fill="#1C3879"/>
<path d="M43.1859 42.4779V47.0796H45.0618C49.0266 47.0796 50.9025 45.7346 51.2211 42.7256C51.5753 39.3983 49.8762 37.8762 45.7699 37.8762H43.1859V42.4779Z" fill="#1C3879"/>
<path d="M43.2566 53.3451L43.3628 58.5842H46.3718C51.3274 58.5486 52.9559 56.9913 52.6726 52.6373C52.5664 50.6196 52.3893 50.0886 51.5753 49.2744C50.6549 48.3895 50.3716 48.3186 46.9028 48.2124L43.1504 48.0709L43.2566 53.3451Z" fill="#1C3879"/>
<path d="M14.9734 44.3893L13.2743 45.947L14.8672 47.5752C15.7168 48.46 16.5309 49.2034 16.6371 49.2034C16.7433 49.2034 16.8141 47.7523 16.8141 46.0176C16.8141 44.2478 16.7787 42.8317 16.7433 42.8317C16.7433 42.8317 15.9292 43.5398 14.9734 44.3893Z" fill="#1C3879"/>
<path d="M76.4601 46.0532V49.3097L77.2743 48.6372C79.0088 47.1858 79.9998 46.23 79.9998 45.9823C79.9998 45.8408 79.2211 45.0619 78.2301 44.2479L76.4601 42.7612V46.0532Z" fill="#1C3879"/>
<path d="M43.8584 76.4248C44.0354 76.7434 44.7432 77.522 45.4513 78.1945C46.8671 79.5751 46.9733 79.5044 48.8848 77.1326L49.9115 75.8229H46.7256C43.8937 75.8229 43.5751 75.8938 43.8584 76.4248Z" fill="#1C3879"/>
<path d="M18.3009 17.5929C16.6018 19.2566 15.2567 20.6725 15.2921 20.7079C15.3629 20.7787 16.6018 20.6371 18.0531 20.3894L20.6726 20L21.062 17.2389C21.2744 15.7522 21.416 14.5132 21.3805 14.5132C21.3805 14.5132 19.9646 15.8938 18.3009 17.5929Z" fill="#1C3879"/>
<path d="M72.0001 15.4691C72.1063 15.8231 72.2833 16.9912 72.3895 18.0885L72.6372 20.0709L75.1506 20.4248C76.5664 20.6018 77.7699 20.7434 77.8408 20.6726C78.0532 20.4956 72.4957 14.8673 72.1416 14.8673C71.9648 14.8673 71.8939 15.1505 72.0001 15.4691Z" fill="#1C3879"/>
<path d="M16.7079 72.9911C18.3008 74.8673 21.6637 77.8055 21.3805 77.0621C21.3097 76.8141 21.0973 75.5754 20.9557 74.3363L20.7079 72.0709L18.0176 71.6815L15.3274 71.3276L16.7079 72.9911Z" fill="#1C3879"/>
<path d="M75.1859 71.6461L72.6372 71.9647L72.3186 74.4778C72.1062 75.8583 72 77.062 72.1062 77.1682C72.1771 77.2389 73.5577 76.0001 75.115 74.4072C76.7079 72.8496 77.947 71.469 77.8761 71.4337C77.7699 71.3628 76.5664 71.469 75.1859 71.6461Z" fill="#1C3879"/>
<path d="M102.947 55.9253L97.6041 48.4364L95.9602 50.3771V55.9253H94.2478V40.3539H95.9602V48.2309L102.536 40.3539H104.431L98.6087 47.2492L104.887 55.9253H102.947ZM117.052 47.546C117.95 47.7743 118.642 48.2158 119.13 48.8702C119.616 49.5247 119.86 50.3848 119.86 51.4502C119.86 52.8353 119.441 53.9312 118.604 54.738C117.767 55.5294 116.618 55.9253 115.157 55.9253H109.494V40.3539H114.632C116.017 40.3539 117.105 40.7193 117.897 41.4499C118.688 42.1654 119.084 43.1243 119.084 44.3267C119.084 45.103 118.909 45.7728 118.559 46.3359C118.209 46.8839 117.706 47.2871 117.052 47.546ZM111.207 46.998H114.837C116.466 46.998 117.28 46.1076 117.28 44.3267C117.28 43.5199 117.044 42.896 116.572 42.4545C116.1 42.013 115.446 41.7923 114.609 41.7923H111.207V46.998ZM114.928 54.5097C115.903 54.5097 116.664 54.2357 117.212 53.6877C117.775 53.1398 118.056 52.394 118.056 51.4502C118.056 50.5064 117.775 49.7684 117.212 49.2355C116.664 48.6876 115.903 48.4136 114.928 48.4136H111.207V54.5097H114.928Z" fill="#EAE3D2"/>
</svg>
