<svg width="32" height="32" viewBox="0 0 50 50" fill="none" xmlns="http://www.w3.org/2000/svg">
<g clip-path="url(#clip0_528_212)">
<path d="M18.75 10.2344C18.75 9.33594 18.1836 8.54492 17.4609 8.00781C16.3281 7.1582 15.625 5.98633 15.625 4.6875C15.625 2.09961 18.4277 0 21.875 0C25.3223 0 28.125 2.09961 28.125 4.6875C28.125 5.98633 27.4219 7.1582 26.2891 8.00781C25.5664 8.54492 25 9.33594 25 10.2344C25 11.4844 26.0156 12.5 27.2656 12.5H32.8125C35.4004 12.5 37.5 14.5996 37.5 17.1875V22.7344C37.5 23.9844 38.5156 25 39.7656 25C40.6641 25 41.4551 24.4336 41.9922 23.7109C42.8418 22.5781 44.0137 21.875 45.3125 21.875C47.9004 21.875 50 24.6777 50 28.125C50 31.5723 47.9004 34.375 45.3125 34.375C44.0137 34.375 42.8418 33.6719 41.9922 32.5391C41.4551 31.8164 40.6641 31.25 39.7656 31.25C38.5156 31.25 37.5 32.2656 37.5 33.5156V45.3125C37.5 47.9004 35.4004 50 32.8125 50H27.2656C26.0156 50 25 48.9844 25 47.7344C25 46.8359 25.5664 46.0449 26.2891 45.5078C27.4219 44.6582 28.125 43.4863 28.125 42.1875C28.125 39.5996 25.3223 37.5 21.875 37.5C18.4277 37.5 15.625 39.5996 15.625 42.1875C15.625 43.4863 16.3281 44.6582 17.4609 45.5078C18.1836 46.0449 18.75 46.8359 18.75 47.7344C18.75 48.9844 17.7344 50 16.4844 50H4.6875C2.09961 50 0 47.9004 0 45.3125V33.5156C0 32.2656 1.01562 31.25 2.26562 31.25C3.16406 31.25 3.95508 31.8164 4.49219 32.5391C5.3418 33.6719 6.51367 34.375 7.8125 34.375C10.4004 34.375 12.5 31.5723 12.5 28.125C12.5 24.6777 10.4004 21.875 7.8125 21.875C6.51367 21.875 5.3418 22.5781 4.49219 23.7109C3.95508 24.4336 3.16406 25 2.26562 25C1.01562 25 0 23.9844 0 22.7344V17.1875C0 14.5996 2.09961 12.5 4.6875 12.5H16.4844C17.7344 12.5 18.75 11.4844 18.75 10.2344Z" fill="#CCAC00"/>
</g>
<defs>
<clipPath id="clip0_528_212">
<rect width="50" height="50" fill="white"/>
</clipPath>
</defs>
</svg>
