<svg width="258" height="138" viewBox="0 0 258 138" fill="none" xmlns="http://www.w3.org/2000/svg">
<g filter="url(#filter0_d_358_173)">
<rect x="29" y="29" width="200" height="80" rx="20" fill="white"/>
<rect x="29.5" y="29.5" width="199" height="79" rx="19.5" stroke="#EAE3D2"/>
</g>
<path d="M92.6719 64.2348C92.25 64.0969 91.8281 63.9666 91.4062 63.844C91.4766 63.5605 91.5391 63.277 91.6016 62.9935C92.5625 58.4265 91.9297 54.7561 89.7969 53.5454C87.7422 52.3883 84.3906 53.5914 81 56.4879C80.6641 56.7714 80.3359 57.0702 80.0234 57.3691C79.8125 57.1698 79.5938 56.9706 79.375 56.779C75.8203 53.6833 72.2578 52.3807 70.125 53.599C68.0781 54.7638 67.4688 58.2196 68.3281 62.5414C68.4141 62.9705 68.5078 63.3919 68.6172 63.821C68.1172 63.959 67.625 64.1122 67.1641 64.2731C62.9922 65.6907 60 67.9282 60 70.2424C60 72.6331 63.1875 75.0315 67.5234 76.4874C67.875 76.6024 68.2266 76.7173 68.5859 76.8169C68.4688 77.2767 68.3672 77.7288 68.2734 78.1962C67.4531 82.449 68.0938 85.8206 70.1406 86.9776C72.25 88.173 75.7969 86.947 79.25 83.9815C79.5234 83.744 79.7969 83.4988 80.0703 83.2382C80.4141 83.5677 80.7734 83.8819 81.1328 84.1884C84.4766 87.0083 87.7812 88.15 89.8203 86.9929C91.9297 85.7976 92.6172 82.1731 91.7266 77.7594C91.6562 77.4223 91.5781 77.0775 91.4922 76.725C91.7422 76.656 91.9844 76.5794 92.2266 76.5028C96.7344 75.0392 100 72.6714 100 70.2424C100 67.9206 96.9219 65.6677 92.6719 64.2348ZM82.1016 57.7292C85.0078 55.2465 87.7188 54.2734 88.9531 54.9707C90.2734 55.7139 90.7812 58.7177 89.9531 62.664C89.8984 62.9245 89.8438 63.1774 89.7734 63.4302C88.0391 63.0471 86.2812 62.7713 84.5156 62.618C83.5 61.1927 82.3906 59.8288 81.1875 58.5491C81.4922 58.2656 81.7891 57.9974 82.1016 57.7292ZM73.0625 74.2193C73.4609 74.8859 73.8672 75.5526 74.2969 76.2039C73.0781 76.0736 71.8672 75.8821 70.6719 75.6292C71.0156 74.5258 71.4453 73.384 71.9453 72.2193C72.3047 72.8936 72.6719 73.5603 73.0625 74.2193ZM70.6953 65.0011C71.8203 64.7559 73.0156 64.5567 74.2578 64.4034C73.8438 65.0394 73.4375 65.6907 73.0547 66.3497C72.6719 67.001 72.2969 67.6677 71.9453 68.342C71.4531 67.2003 71.0391 66.0815 70.6953 65.0011ZM72.8359 70.2807C73.3516 69.2232 73.9141 68.1888 74.5078 67.1696C75.1016 66.1505 75.7422 65.162 76.4141 64.1888C77.5859 64.1046 78.7812 64.0586 80 64.0586C81.2188 64.0586 82.4219 64.1046 83.5859 64.1888C84.25 65.1543 84.8828 66.1428 85.4844 67.1543C86.0859 68.1658 86.6484 69.2002 87.1797 70.25C86.6562 71.3075 86.0937 72.3496 85.4922 73.3764C84.8984 74.3955 84.2656 75.384 83.6016 76.3648C82.4375 76.4491 81.2266 76.4874 80 76.4874C78.7734 76.4874 77.5859 76.4491 76.4375 76.3802C75.7578 75.407 75.1172 74.4108 74.5156 73.3917C73.9141 72.3726 73.3594 71.3381 72.8359 70.2807ZM86.9453 74.204C87.3438 73.5296 87.7188 72.8477 88.0859 72.158C88.5859 73.2691 89.0234 74.3955 89.4062 75.5526C88.1953 75.8208 86.9688 76.0277 85.7344 76.1656C86.1562 75.5219 86.5547 74.8629 86.9453 74.204ZM88.0703 68.342C87.7031 67.6677 87.3281 66.9934 86.9375 66.3344C86.5547 65.6831 86.1562 65.0394 85.7422 64.4034C87 64.5567 88.2031 64.7635 89.3281 65.0164C88.9688 66.1505 88.5469 67.2539 88.0703 68.342ZM80.0156 59.7215C80.8359 60.5951 81.6094 61.5146 82.3281 62.4647C80.7812 62.3958 79.2266 62.3958 77.6797 62.4647C78.4453 61.4763 79.2344 60.5567 80.0156 59.7215ZM70.9531 55.0243C72.2656 54.2734 75.1797 55.3461 78.25 58.0127C78.4453 58.1813 78.6406 58.3652 78.8438 58.5491C77.6328 59.8288 76.5156 61.1927 75.4922 62.618C73.7266 62.7713 71.9766 63.0394 70.2422 63.4149C70.1406 63.0241 70.0547 62.6257 69.9688 62.2272C69.2344 58.5185 69.7188 55.7216 70.9531 55.0243ZM69.0391 75.2231C68.7109 75.1311 68.3906 75.0315 68.0703 74.9242C66.4063 74.4108 64.5156 73.5986 63.1484 72.5335C62.3594 71.9971 61.8281 71.1695 61.6797 70.2424C61.6797 68.8401 64.1484 67.047 67.7109 65.8287C68.1562 65.6754 68.6094 65.5375 69.0625 65.4072C69.5938 67.07 70.2344 68.7022 70.9766 70.2807C70.2266 71.8822 69.5781 73.5373 69.0391 75.2231ZM78.1484 82.7325C76.8594 83.8896 75.3672 84.8091 73.7422 85.4374C72.875 85.8435 71.875 85.8819 70.9844 85.537C69.7422 84.8321 69.2266 82.1272 69.9297 78.4874C70.0156 78.0583 70.1094 77.6292 70.2188 77.2077C71.9688 77.5755 73.7344 77.8284 75.5234 77.9587C76.5547 79.3916 77.6875 80.7632 78.8984 82.0505C78.6484 82.2881 78.3984 82.5179 78.1484 82.7325ZM80.0625 80.8705C79.2656 80.0276 78.4688 79.0927 77.6953 78.0889C78.4453 78.1196 79.2188 78.1349 80 78.1349C80.8047 78.1349 81.5938 78.1196 82.375 78.0813C81.6562 79.0544 80.8828 79.9816 80.0625 80.8705ZM90.2734 83.1693C90.2031 84.1041 89.7344 84.9777 88.9844 85.5677C87.7422 86.2727 85.0938 85.3531 82.2344 82.9471C81.9062 82.6712 81.5781 82.3724 81.2422 82.0658C82.4375 80.7709 83.5391 79.3992 84.5391 77.9587C86.3281 77.8131 88.1094 77.5449 89.8672 77.1541C89.9453 77.4682 90.0156 77.7824 90.0781 78.0889C90.4609 79.7441 90.5234 81.4682 90.2734 83.1693ZM91.6953 74.9319C91.4766 75.0009 91.2578 75.0698 91.0312 75.1311C90.4844 73.4607 89.8125 71.8285 89.0391 70.2424C89.7891 68.6792 90.4219 67.07 90.9531 65.4225C91.3594 65.5375 91.75 65.6601 92.125 65.7827C95.7656 67.0087 98.3203 68.8324 98.3203 70.227C98.3203 71.7289 95.5938 73.6676 91.6953 74.9319ZM80 73.7825C81.9766 73.7825 83.5781 72.2117 83.5781 70.273C83.5781 68.3343 81.9766 66.7635 80 66.7635C78.0234 66.7635 76.4219 68.3343 76.4219 70.273C76.4219 72.2117 78.0234 73.7825 80 73.7825Z" fill="#5ED3F2"/>
<path d="M128.736 63.2425H126.276V69.8425H128.796C129.956 69.8425 130.826 69.5525 131.406 68.9725C131.986 68.3725 132.276 67.5425 132.276 66.4825C132.276 65.4425 131.966 64.6425 131.346 64.0825C130.746 63.5225 129.876 63.2425 128.736 63.2425ZM126.276 80.3425H122.496V60.1225H128.736C131.036 60.1225 132.836 60.7025 134.136 61.8625C135.456 63.0225 136.116 64.5725 136.116 66.5125C136.096 67.9525 135.746 69.1725 135.066 70.1725C134.386 71.1525 133.456 71.8825 132.276 72.3625L137.466 80.3425H132.936L128.346 72.9625H126.276V80.3425ZM151.622 79.5025C150.562 80.1625 149.032 80.4925 147.032 80.4925C144.612 80.4925 142.702 79.7725 141.302 78.3325C139.902 76.8925 139.202 75.0325 139.202 72.7525C139.202 70.3325 139.862 68.4325 141.182 67.0525C142.502 65.6725 144.152 64.9825 146.132 64.9825C148.112 64.9825 149.682 65.5825 150.842 66.7825C152.002 67.9825 152.582 69.7325 152.582 72.0325C152.582 72.5925 152.512 73.3125 152.372 74.1925H142.832C143.092 75.2925 143.632 76.1325 144.452 76.7125C145.292 77.2925 146.332 77.5825 147.572 77.5825C149.172 77.5825 150.522 77.1825 151.622 76.3825V79.5025ZM146.222 67.8025C145.362 67.8025 144.612 68.1225 143.972 68.7625C143.352 69.3825 142.952 70.2925 142.772 71.4925H149.162V71.0425C149.122 70.0625 148.852 69.2825 148.352 68.7025C147.872 68.1025 147.162 67.8025 146.222 67.8025ZM161.11 77.7925C161.91 77.7925 162.53 77.5625 162.97 77.1025C163.43 76.6225 163.66 76.0025 163.66 75.2425V73.8025H161.8C160.86 73.8025 160.14 74.0025 159.64 74.4025C159.14 74.7825 158.89 75.2725 158.89 75.8725C158.89 77.1525 159.63 77.7925 161.11 77.7925ZM163.81 78.5125C163.11 79.8125 161.79 80.4625 159.85 80.4625C158.41 80.4625 157.26 80.0425 156.4 79.2025C155.56 78.3625 155.14 77.3025 155.14 76.0225C155.14 74.5825 155.68 73.4525 156.76 72.6325C157.84 71.8125 159.4 71.4025 161.44 71.4025H163.66V70.4725C163.66 69.6325 163.44 68.9925 163 68.5525C162.56 68.1125 161.81 67.8925 160.75 67.8925C159.13 67.8925 157.64 68.3425 156.28 69.2425V65.9125C157.42 65.2125 159.06 64.8625 161.2 64.8625C165.32 64.8625 167.38 66.7825 167.38 70.6225V80.3425H163.81V78.5125ZM182.106 79.6825C181.046 80.3025 179.726 80.6125 178.146 80.6125C175.806 80.6125 173.906 79.8725 172.446 78.3925C171.006 76.9125 170.286 75.0425 170.286 72.7825C170.306 70.5625 171.026 68.6925 172.446 67.1725C173.886 65.6525 175.846 64.8925 178.326 64.8925C179.806 64.8925 181.066 65.1725 182.106 65.7325V68.9125C181.106 68.2725 179.966 67.9525 178.686 67.9525C177.286 67.9525 176.156 68.3925 175.296 69.2725C174.436 70.1525 173.996 71.3225 173.976 72.7825C174.016 74.2225 174.446 75.3825 175.266 76.2625C176.106 77.1425 177.236 77.5825 178.656 77.5825C179.896 77.5825 181.046 77.2425 182.106 76.5625V79.6825ZM193.587 79.9825C192.887 80.3225 191.987 80.4925 190.887 80.4925C187.607 80.4925 185.967 78.8325 185.967 75.5125V67.8325H183.687V65.1325H185.967V61.4725H189.567V65.1325H193.347V67.8325H189.567V75.5725C189.567 76.2125 189.737 76.7025 190.077 77.0425C190.417 77.3625 190.887 77.5225 191.487 77.5225C192.247 77.5225 192.947 77.3125 193.587 76.8925V79.9825Z" fill="#333333" fill-opacity="0.75"/>
<defs>
<filter id="filter0_d_358_173" x="0" y="0" width="258" height="138" filterUnits="userSpaceOnUse" color-interpolation-filters="sRGB">
<feFlood flood-opacity="0" result="BackgroundImageFix"/>
<feColorMatrix in="SourceAlpha" type="matrix" values="0 0 0 0 0 0 0 0 0 0 0 0 0 0 0 0 0 0 127 0" result="hardAlpha"/>
<feMorphology radius="4" operator="dilate" in="SourceAlpha" result="effect1_dropShadow_358_173"/>
<feOffset/>
<feGaussianBlur stdDeviation="12.5"/>
<feComposite in2="hardAlpha" operator="out"/>
<feColorMatrix type="matrix" values="0 0 0 0 0.2 0 0 0 0 0.2 0 0 0 0 0.2 0 0 0 0.25 0"/>
<feBlend mode="normal" in2="BackgroundImageFix" result="effect1_dropShadow_358_173"/>
<feBlend mode="normal" in="SourceGraphic" in2="effect1_dropShadow_358_173" result="shape"/>
</filter>
</defs>
</svg>
